<?xml version="1.0" encoding="utf-8"?>
<!-- Generator: Adobe Illustrator 25.0.1, SVG Export Plug-In . SVG Version: 6.00 Build 0)  -->
<svg version="1.1" id="レイヤー_1" xmlns="http://www.w3.org/2000/svg" xmlns:xlink="http://www.w3.org/1999/xlink" x="0px"
	 y="0px" viewBox="0 0 100 100" style="enable-background:new 0 0 100 100;" xml:space="preserve">
<style type="text/css">
	.st0{fill:#231815;}
</style>
<g>
	<rect x="35.5" y="31.7" class="st0" width="11" height="4.6"/>
	<rect x="51.5" y="31.7" class="st0" width="11" height="4.6"/>
	<rect x="35.5" y="44.5" class="st0" width="11" height="4.6"/>
	<rect x="51.5" y="44.5" class="st0" width="11" height="4.6"/>
	<rect x="35.5" y="57.3" class="st0" width="11" height="4.6"/>
	<rect x="51.5" y="57.3" class="st0" width="11" height="4.6"/>
	<rect x="35.5" y="70.1" class="st0" width="11" height="4.6"/>
	<rect x="51.5" y="70.1" class="st0" width="11" height="4.6"/>
	<rect x="35.5" y="82.9" class="st0" width="11" height="4.6"/>
	<rect x="51.5" y="82.9" class="st0" width="11" height="4.6"/>
	<rect x="73.9" y="55.7" class="st0" width="11" height="4.6"/>
	<rect x="73.9" y="63.7" class="st0" width="11" height="4.6"/>
	<rect x="73.9" y="71.7" class="st0" width="11" height="4.6"/>
	<rect x="73.9" y="79.7" class="st0" width="11" height="4.6"/>
	<rect x="73.9" y="87.7" class="st0" width="11" height="4.6"/>
	<rect x="13.1" y="55.7" class="st0" width="4.6" height="4.6"/>
	<rect x="13.1" y="63.7" class="st0" width="4.6" height="4.6"/>
	<rect x="13.1" y="71.7" class="st0" width="4.6" height="4.6"/>
	<rect x="13.1" y="79.7" class="st0" width="4.6" height="4.6"/>
	<rect x="13.1" y="87.7" class="st0" width="4.6" height="4.6"/>
	<rect x="19.5" y="55.7" class="st0" width="4.6" height="4.6"/>
	<rect x="13.1" y="47.7" class="st0" width="4.6" height="4.6"/>
	<rect x="19.5" y="47.7" class="st0" width="4.6" height="4.6"/>
	<rect x="19.5" y="63.7" class="st0" width="4.6" height="4.6"/>
	<rect x="19.5" y="71.7" class="st0" width="4.6" height="4.6"/>
	<rect x="19.5" y="79.7" class="st0" width="4.6" height="4.6"/>
	<rect x="19.5" y="87.7" class="st0" width="4.6" height="4.6"/>
	<path class="st0" d="M92.9,95.7v-48H70.5V18.9h-6.6c-1-6.5-6.2-11.6-12.6-12.6v-6.6h-4.6v6.6c-6.5,1-11.6,6.2-12.6,12.6h-6.6v20.8
		H5.1v56h-6.4v4.6H99.3v-4.6H92.9z M9.7,95.7V44.3h17.8v51.4H9.7z M38.7,18.9c1.1-4.7,5.3-8.2,10.3-8.2c4.9,0,9.2,3.5,10.3,8.2H38.7
		z M32.1,95.7V23.5h33.8v72.2H32.1z M70.5,95.7V52.3h17.8v43.4H70.5z"/>
</g>
</svg>
