<?xml version="1.0" encoding="UTF-8"?>
<svg width="100pt" height="100pt" version="1.1" viewBox="0 0 100 100" xmlns="http://www.w3.org/2000/svg">
 <path d="m50 12.996c-9.8867 0-19.77 1.7422-29.105 5.2227v0.003906c-0.6875 0.15234-1.2461 0.65625-1.4688 1.3242l-6.0273 18.332-5.543 16.855h0.003906c-1.0703 0.078125-1.8906 0.98438-1.8594 2.0547 0.22266 7.0508 7.2344 12.227 15.328 12.227s15.105-5.1758 15.328-12.227h-0.003906c0.035156-1.0703-0.78516-1.9766-1.8555-2.0547l-5.543-16.855-5.4141-16.469c7.7891-2.7188 15.965-4.1797 24.164-4.3828v57.906c-2.9336 0.13281-5.582 0.5625-7.7188 1.2344-1.3047 0.41016-2.4258 0.89844-3.3594 1.5938-0.93359 0.69531-1.8203 1.7656-1.8203 3.1875s0.89062 2.4883 1.8203 3.1836c0.93359 0.69141 2.0508 1.1797 3.3594 1.5898 2.6133 0.82031 5.9883 1.2812 9.7188 1.2812 3.7266 0 7.0977-0.46094 9.7109-1.2812 1.3047-0.41016 2.4219-0.89844 3.3555-1.5898 0.93359-0.69141 1.8203-1.7617 1.8203-3.1836 0-1.418-0.88672-2.4922-1.8203-3.1875-0.93359-0.69531-2.0508-1.1836-3.3555-1.5938-2.1367-0.67188-4.7812-1.1016-7.7109-1.2344v-57.906c8.1992 0.20312 16.371 1.6641 24.156 4.3828l-5.4141 16.469-5.543 16.855c-1.0703 0.078125-1.8906 0.98438-1.8555 2.0547 0.22266 7.0508 7.2344 12.227 15.328 12.227s15.105-5.1758 15.328-12.227h-0.003906c0.03125-1.0703-0.78906-1.9766-1.8594-2.0547l-5.543-16.855-6.0273-18.332h0.003907c-0.22266-0.66797-0.78125-1.1719-1.4688-1.3242-9.3359-3.4805-19.223-5.2227-29.105-5.2227zm-28.672 13.574l4.1289 12.555 5.1289 15.598h-18.516l5.1289-15.598zm57.344 0l4.1289 12.555 5.1289 15.598h-18.516l5.1289-15.598zm-68.258 32.152h21.828c-1.3047 3.4844-5.5391 6.2891-10.914 6.2891s-9.6094-2.8047-10.914-6.2891zm57.344 0h21.828c-1.3047 3.4844-5.5352 6.2891-10.914 6.2891-5.375 0-9.6094-2.8047-10.914-6.2891zm-17.754 20.16c3.3828 0 6.4531 0.44922 8.5078 1.0977 1 0.3125 1.75 0.6875 2.1328 0.96094-0.38672 0.27344-1.1367 0.64453-2.1328 0.96094-2.0547 0.64453-5.125 1.0938-8.5078 1.0938-3.3906 0-6.4609-0.44922-8.5195-1.0938-0.99609-0.3125-1.75-0.68359-2.1328-0.96094 0.38281-0.27734 1.1367-0.64844 2.1328-0.96094 2.0547-0.64844 5.1289-1.0977 8.5195-1.0977z" fill-rule="evenodd"/>
</svg>
