<?xml version="1.0" encoding="utf-8"?>
<!-- Generator: Adobe Illustrator 25.0.1, SVG Export Plug-In . SVG Version: 6.00 Build 0)  -->
<svg version="1.1" id="レイヤー_1" xmlns="http://www.w3.org/2000/svg" xmlns:xlink="http://www.w3.org/1999/xlink" x="0px"
	 y="0px" viewBox="0 0 100 100" style="enable-background:new 0 0 100 100;" xml:space="preserve">
<style type="text/css">
	.st0{fill:#231815;}
</style>
<g>
	<path class="st0" d="M50,59.5L50,59.5c0.3,0,0.6-0.1,0.9-0.2l25.4-11.8c0.7-0.3,1.2-1.1,1.2-1.9s-0.5-1.6-1.2-1.9l-6.7-3.1l6.7-3.1
		c0.7-0.3,1.2-1.1,1.2-1.9c0-0.8-0.5-1.6-1.2-1.9l-6.7-3.1l6.7-3.1c0.7-0.3,1.2-1.1,1.2-1.9c0-0.8-0.5-1.6-1.2-1.9L50.9,11.8
		c-0.6-0.3-1.2-0.3-1.8,0L23.7,23.6c-0.7,0.3-1.2,1.1-1.2,1.9c0,0.8,0.5,1.6,1.2,1.9l6.7,3.1l-6.7,3.1c-0.7,0.3-1.2,1.1-1.2,1.9
		c0,0.8,0.5,1.6,1.2,1.9l6.7,3.1l-6.7,3.1c-0.7,0.3-1.2,1.1-1.2,1.9s0.5,1.6,1.2,1.9l25.4,11.8C49.4,59.4,49.7,59.5,50,59.5z
		 M29.6,35.6l5.8-2.7l13.7,6.4c0.4,0.2,0.9,0.2,1.4,0.1c0,0,0,0,0,0c0.1,0,0.3-0.1,0.4-0.1l13.7-6.4l5.8,2.7l-6.7,3.1c0,0,0,0,0,0
		L50,45l-13.7-6.4c0,0,0,0,0,0L29.6,35.6z M50,16.1l12,5.6l-12,5.6l-12-5.6L50,16.1z M33,24l16.1,7.5c0.3,0.1,0.6,0.2,0.9,0.2
		c0.3,0,0.6-0.1,0.9-0.2L67,24l3.4,1.6l-6.6,3.1c0,0,0,0-0.1,0L50,35l-13.2-6.1l-7.2-3.3L33,24z M49.1,49.3c0.4,0.2,0.9,0.2,1.4,0.1
		c0,0,0.1,0,0.1,0c0.1,0,0.2-0.1,0.3-0.1l13.7-6.4l5.8,2.7L50,55.1l-20.4-9.5l5.8-2.7L49.1,49.3z"/>
	<path class="st0" d="M87.4,4.1H12.6c-4.2,0-7.7,3.4-7.7,7.7v56.9c0,4.2,3.4,7.7,7.7,7.7h25.3l-4.4,15.3h-7.7c-1.2,0-2.1,1-2.1,2.1
		s1,2.1,2.1,2.1h9.3h29.8h9.3c0.6,0,1.1-0.2,1.5-0.6c0.4-0.4,0.6-0.9,0.6-1.5c0-1.2-1-2.1-2.1-2.1h-7.7l-4.4-15.3h25.3
		c4.2,0,7.7-3.4,7.7-7.7V11.8C95.1,7.5,91.6,4.1,87.4,4.1z M59.4,72.2C59.4,72.2,59.3,72.1,59.4,72.2l-18.7,0c0,0,0,0-0.1,0h-28
		c-1.9,0-3.4-1.5-3.4-3.4v-2.1h17.4c1.2,0,2.1-1,2.1-2.1s-0.9-2.1-2.1-2.1H9.1V11.8c0-1.9,1.5-3.4,3.4-3.4l74.8,0
		c1.9,0,3.4,1.5,3.4,3.4v50.6H38.3c-1.2,0-2.1,1-2.1,2.1s0.9,2.1,2.1,2.1h52.6v2.1c0,1.9-1.5,3.4-3.4,3.4H59.4z M57.7,76.4l4.4,15.3
		H37.9l4.4-15.3H57.7z"/>
	<path class="st0" d="M16.8,11.6h-2c-1.2,0-2.1,0.9-2.1,2.1s0.9,2.1,2.1,2.1h2c1.2,0,2.1-0.9,2.1-2.1S18,11.6,16.8,11.6z"/>
	<path class="st0" d="M16.8,17.5h-2c-1.2,0-2.1,0.9-2.1,2.1s0.9,2.1,2.1,2.1h2c1.2,0,2.1-0.9,2.1-2.1S18,17.5,16.8,17.5z"/>
	<path class="st0" d="M16.8,23.3h-2c-1.2,0-2.1,0.9-2.1,2.1s0.9,2.1,2.1,2.1h2c1.2,0,2.1-0.9,2.1-2.1S18,23.3,16.8,23.3z"/>
	<path class="st0" d="M16.8,29.2h-2c-1.2,0-2.1,0.9-2.1,2.1s0.9,2.1,2.1,2.1h2c1.2,0,2.1-1,2.1-2.1S18,29.2,16.8,29.2z"/>
	<path class="st0" d="M16.8,35h-2c-1.2,0-2.1,0.9-2.1,2.1s0.9,2.1,2.1,2.1h2c1.2,0,2.1-0.9,2.1-2.1S18,35,16.8,35z"/>
	<path class="st0" d="M16.8,40.9h-2c-1.2,0-2.1,0.9-2.1,2.1s0.9,2.1,2.1,2.1h2c1.2,0,2.1-0.9,2.1-2.1S18,40.9,16.8,40.9z"/>
	<path class="st0" d="M16.8,46.8h-2c-1.2,0-2.1,0.9-2.1,2.1s0.9,2.1,2.1,2.1h2c1.2,0,2.1-1,2.1-2.1S18,46.8,16.8,46.8z"/>
	<path class="st0" d="M16.8,52.6h-2c-1.2,0-2.1,1-2.1,2.1s0.9,2.1,2.1,2.1h2c1.2,0,2.1-1,2.1-2.1S18,52.6,16.8,52.6z"/>
	<rect x="82.5" y="11" class="st0" width="5.4" height="5.4"/>
	<rect x="82.5" y="16.9" class="st0" width="5.4" height="40.6"/>
</g>
</svg>
