<?xml version="1.0" encoding="UTF-8"?>
<svg width="251px" height="404px" viewBox="0 0 251 404" version="1.1" xmlns="http://www.w3.org/2000/svg" xmlns:xlink="http://www.w3.org/1999/xlink">
    <!-- Generator: Sketch 43.2 (39069) - http://www.bohemiancoding.com/sketch -->
    <title>path1</title>
    <desc>Created with Sketch.</desc>
    <defs></defs>
    <g id="Page-1" stroke="none" stroke-width="1" fill="none" fill-rule="evenodd">
        <path d="M124.493895,0.64212327 C124.287254,0.781052118 123.901411,1.3136127 123.636465,1.82644882 C122.973672,3.11025428 118.473883,10.6612944 116.629552,13.5865185 C115.796988,14.9072001 114.962709,16.3290768 114.775789,16.746721 C114.311062,17.7843994 111.617019,22.0568902 111.075124,22.616036 C110.834186,22.8647358 110.63612,23.278092 110.63612,23.53451 C110.63612,23.7909281 110.405471,24.2308694 110.123377,24.5130151 C109.840425,24.7951607 109.453725,25.3851795 109.262518,25.8242633 C109.071311,26.2624894 108.005526,28.0882889 106.892583,29.8806426 C105.780497,31.6729962 103.745817,35.0690347 102.372215,37.4273948 C100.997755,39.7857548 99.1114102,42.8730626 98.1793844,44.2880786 C97.2473586,45.7030946 96.0340959,47.7098447 95.4836261,48.7475231 C94.932299,49.7852015 94.1854779,51.0973073 93.8236427,51.6633137 C93.4618074,52.2293201 92.907908,53.1555124 92.592374,53.7215189 C92.2776973,54.2875253 91.9167195,54.8278041 91.7906774,54.9221385 C91.6646353,55.0164729 90.5036758,56.9460403 89.212387,59.2100659 C87.9202408,61.4740916 86.1839461,64.4070339 85.3539543,65.7277156 C84.1029647,67.7181715 80.4571746,73.7367063 76.7753725,79.888167 C76.3560895,80.5905295 75.8570655,81.514149 75.6675736,81.9412266 C75.4780817,82.3683042 75.0287886,83.1401311 74.6695257,83.6563976 C73.382524,85.5019215 65.2952493,98.8236543 62.4485834,103.786502 C62.0713144,104.44427 60.7105739,106.723732 59.4244297,108.853117 C58.1382855,110.981644 56.9481733,112.954948 56.7801172,113.237951 C56.612061,113.520954 55.8892479,114.73701 55.1741518,115.94106 C54.4590556,117.144253 53.6119153,118.533541 53.2912366,119.028368 C52.970558,119.522337 52.0779739,121.007675 51.3080023,122.328357 C49.5331233,125.37107 49.4276594,125.544303 47.3218127,128.845149 C46.3589194,130.355357 45.4689076,131.821828 45.3428654,132.104832 C45.2176807,132.387835 44.77096,133.19225 44.3499621,133.892897 C43.1847154,135.833613 41.2649309,138.989528 40.4983889,140.223593 C40.1211199,140.831621 38.6849256,143.227715 37.3070364,145.550057 C35.9291473,147.871541 34.2048566,150.774467 33.4760415,152.000815 C32.7472265,153.227162 32.017554,154.384902 31.8546424,154.573571 C31.6908734,154.76224 31.2012811,155.61125 30.765707,156.460259 C30.0283176,157.897572 29.5593037,158.660824 26.6800555,163.110835 C26.0832846,164.032739 25.2738712,165.422027 24.8811685,166.198142 C24.4884658,166.974257 22.9399482,169.538438 21.4394466,171.896798 C19.9398024,174.255158 18.4727406,176.704422 18.1803572,177.339893 C17.8871163,177.975364 16.9147913,179.602203 16.0187775,180.955473 C15.1227637,182.308743 14.2867699,183.641431 14.1607278,183.916716 C14.0355431,184.192001 13.5425212,185.035007 13.0657904,185.789683 C12.5890596,186.544358 11.9657083,187.624915 11.6801843,188.190922 C11.3955178,188.756928 10.5500923,190.146217 9.80327122,191.27823 C9.05645015,192.410242 8.21874155,193.811537 7.94264926,194.39298 C7.6674144,194.973565 7.20097277,195.648485 6.90687446,195.892897 C6.61277615,196.136451 6.3726959,196.483773 6.3726959,196.663009 C6.3726959,196.843102 5.71676235,198.085743 4.9150658,199.425292 C4.11336924,200.76484 3.22250002,202.257896 2.93440371,202.744147 C2.64716484,203.229541 2.15071318,204.016804 1.83174941,204.492764 C1.08578577,205.60591 1.38417123,206.739638 2.54856045,207.210453 C3.04844183,207.412843 5.61815796,208.878456 8.25904074,210.46842 C15.2616672,214.683452 21.3845711,218.307609 22.4332074,218.859894 C22.9373759,219.124888 23.4269681,219.445625 23.5212854,219.572547 C23.6156026,219.700328 25.313313,220.705418 27.293975,221.807415 C29.2746371,222.908555 31.3581907,224.136617 31.9240942,224.536252 C32.4899976,224.935029 33.3388528,225.451296 33.810439,225.682844 C34.2820252,225.914392 35.1308804,226.403216 35.6967839,226.768547 C36.2626873,227.134736 37.883229,228.096947 39.2979876,228.907365 C40.7127463,229.718641 42.119788,230.536778 42.4258904,230.725446 C42.7311353,230.914973 43.5028218,231.361775 44.1407493,231.71853 C44.7778194,232.075286 45.3771626,232.47149 45.4714799,232.600986 C45.6163854,232.799088 49.9927055,235.30581 51.6398275,236.134238 C51.9253515,236.277455 52.6224417,236.697672 53.1883451,237.067291 C54.222405,237.743068 56.0941736,238.86136 57.7935988,239.817568 C59.4724457,240.761769 64.8296651,243.977715 66.392759,244.978517 C67.2416142,245.522226 68.399144,246.200576 68.9650474,246.48701 C69.5309509,246.773443 70.2254687,247.156784 70.5084205,247.33945 C70.7913722,247.521258 71.7696992,248.103559 72.6820042,248.632689 C73.5951666,249.160961 74.7029654,249.82559 75.1445416,250.108593 C75.8922201,250.587984 84.4159265,255.599713 86.0613337,256.527621 C86.4677552,256.756596 87.0310864,257.101345 87.3140381,257.293445 C89.2818388,258.629563 90.4556597,259.370517 90.6031376,259.370517 C90.7660492,259.370517 94.9734556,261.80949 97.4094127,263.31541 C98.0199025,263.692747 100.490157,265.159219 102.899534,266.574235 C105.308053,267.989251 107.642833,269.378539 108.087839,269.661542 C108.532845,269.944546 111.024535,271.398153 113.625119,272.892067 C116.224845,274.385981 119.356178,276.253802 120.582302,277.042781 C124.481891,279.552933 125.323029,279.761326 127.270252,278.703066 C127.836155,278.395193 128.723594,277.921806 129.242339,277.650809 C129.761084,277.379812 130.185512,277.015338 130.185512,276.84039 C130.185512,276.665443 130.396439,276.522226 130.653668,276.522226 C130.910897,276.522226 131.489662,276.234077 131.939812,275.88161 C132.389963,275.53 133.571501,274.796764 134.566119,274.252197 C135.561595,273.708488 136.95063,272.922082 137.652865,272.505296 C138.355957,272.088509 139.394304,271.487342 139.960208,271.170035 C140.526111,270.852729 141.992316,269.941973 143.21844,269.146133 C144.444564,268.351152 146.37378,267.207133 147.505587,266.605965 C148.637394,266.00394 150.952454,264.654958 152.650164,263.607846 C154.347874,262.560735 156.89444,261.071109 158.309198,260.297566 C159.723957,259.524024 161.035824,258.765061 161.224459,258.611553 C161.832376,258.115869 164.164584,256.626243 164.333498,256.626243 C164.422671,256.626243 165.148913,256.213744 165.94718,255.710342 C166.745447,255.206081 168.246806,254.332202 169.284296,253.768768 C170.321785,253.204477 171.538478,252.459235 171.988628,252.111913 C172.438779,251.764591 172.99868,251.48073 173.232758,251.48073 C173.466837,251.48073 173.865541,251.23203 174.117626,250.927588 C174.36971,250.624002 174.813858,250.27668 175.102812,250.155761 C175.876213,249.834166 181.839635,246.357515 186.947343,243.249625 C189.399591,241.757426 192.023325,240.22149 192.777863,239.836435 C193.532401,239.451379 194.555315,238.86479 195.051766,238.533762 C195.548218,238.201877 198.067346,236.695957 200.649066,235.186606 C203.231643,233.677256 205.7079,232.210784 206.151191,231.927781 C206.594482,231.644778 209.063021,230.178307 211.63531,228.668956 C216.692429,225.702568 216.563814,225.778893 222.94309,221.97979 C225.319027,220.564774 227.52948,219.252668 227.855303,219.063999 C229.125156,218.328191 234.648717,215.055645 235.134879,214.750344 C235.417831,214.572824 236.03518,214.245226 236.506766,214.021396 C236.978353,213.797567 237.623997,213.397932 237.940388,213.134653 C238.529442,212.644972 239.045615,212.342244 242.563648,210.426398 C243.665445,209.826088 245.410314,208.784122 246.441802,208.110917 C247.472432,207.437713 248.419034,206.886285 248.545076,206.886285 C249.556843,206.886285 248.979793,204.773195 247.215203,202.020345 C246.890237,201.513512 245.466904,199.153437 244.052146,196.77621 C242.637387,194.398126 240.522109,190.87688 239.35086,188.949885 C238.179611,187.02289 237.06581,185.137918 236.876318,184.76058 C236.686827,184.383242 235.841401,182.993954 234.998548,181.673272 C234.155695,180.352591 232.977587,178.362135 232.380816,177.248989 C231.783187,176.1367 231.153834,175.056143 230.980633,174.847749 C230.362427,174.103365 229.065136,171.992847 226.215898,167.094319 C224.625366,164.358621 223.224326,162.043141 223.103429,161.948806 C222.982531,161.854472 222.625841,161.314193 222.311164,160.748187 C221.99563,160.18218 221.439158,159.255988 221.073893,158.689981 C220.707771,158.123975 220.166733,157.197783 219.870062,156.631776 C218.866012,154.714215 217.976001,153.207437 216.628979,151.143229 C215.890732,150.011216 214.388516,147.567955 213.291863,145.712998 C209.924738,140.01863 209.305674,138.994673 206.747104,134.896272 C206.318389,134.210204 205.871669,133.416937 205.753343,133.133934 C205.635876,132.850931 204.736432,131.38446 203.75639,129.875109 C202.775491,128.365759 200.850562,125.201268 199.478675,122.842908 C198.106787,120.484548 195.76772,116.548231 194.279222,114.095537 C192.791582,111.642842 191.351958,109.16099 191.08101,108.579547 C190.810063,107.998961 190.347908,107.324042 190.05381,107.07963 C189.759712,106.836075 189.519631,106.498187 189.519631,106.329242 C189.519631,106.160298 188.761664,104.79931 187.834782,103.304538 C186.907901,101.809767 186.054759,100.289268 185.939006,99.9256517 C185.82411,99.5620354 185.424548,98.9883108 185.052424,98.6512797 C184.679442,98.3142486 184.375054,97.9214744 184.375054,97.7782576 C184.375054,97.6350409 183.834874,96.6976999 183.174653,95.6951825 C182.514432,94.6926651 181.974252,93.7604697 181.974252,93.6241136 C181.974252,93.4877575 181.473513,92.6353175 180.861308,91.7297073 C180.249104,90.824097 179.516002,89.6560656 179.232192,89.1346536 C178.948383,88.6132416 177.587643,86.2977608 176.208039,83.9891407 C174.829292,81.6805206 173.51914,79.4833866 173.296208,79.106049 C173.074134,78.7287114 172.235568,77.3840174 171.432157,76.1173636 C170.629603,74.8507099 169.655563,73.2298733 169.268005,72.5155046 C168.522041,71.1416527 168.510894,71.1227858 166.365606,67.6264098 C164.832522,65.1274057 164.872821,65.1934398 162.351121,60.9981316 C161.353931,59.3395613 160.302722,57.5643594 160.014626,57.0532384 C159.726529,56.5412599 158.893965,55.1982811 158.16515,54.0679834 C157.436335,52.9376857 156.514599,51.4197594 156.116751,50.6950997 C155.719761,49.9695824 155.051824,48.8101268 154.634256,48.1189129 C154.216688,47.4268415 153.641352,46.3728689 153.356686,45.7777046 C153.072019,45.1816827 152.712756,44.6414038 152.559276,44.5770849 C152.272038,44.4561654 148.020045,37.298757 148.020045,36.9359983 C148.020045,36.8253698 147.5013,35.9960846 146.86766,35.0939047 C145.909911,33.732059 142.667113,28.3541404 140.459232,24.467563 C140.167706,23.9547269 139.229678,22.4539523 138.373963,21.1332707 C136.887181,18.8375144 136.362434,17.9421951 135.157745,15.6447236 C134.861075,15.0787172 134.169987,13.9209768 133.621232,13.0719672 C132.750941,11.725558 130.772851,8.4770242 128.229715,4.21739713 C127.814719,3.52189531 127.367141,2.72091047 127.235097,2.43790726 C126.527718,0.913977867 125.293877,0.105274761 124.493895,0.64212327 M123.921132,8.63996544 C124.500754,9.77540861 124.554772,146.523416 123.976008,148.183702 C123.664761,149.076448 123.127152,149.494092 120.975004,150.516334 C119.532808,151.201545 116.631267,152.587403 114.527135,153.596781 C112.422145,154.605302 110.516937,155.431157 110.292291,155.431157 C110.068501,155.431157 109.47516,155.657559 108.974421,155.934559 C108.473683,156.212417 107.523651,156.672083 106.86343,156.956801 C106.203209,157.242377 105.431523,157.611996 105.148571,157.779226 C104.359736,158.244895 101.176958,159.707078 97.9461636,161.089506 C96.3427705,161.775574 94.5678915,162.543971 94.001988,162.796101 C93.4360846,163.048231 92.5872294,163.422996 92.1156432,163.627959 C91.644057,163.833779 91.0267077,164.144225 90.743756,164.317457 C89.8888988,164.8423 85.0521392,167.094319 84.780334,167.094319 C84.6414305,167.094319 83.650242,167.493954 82.5767403,167.98192 C80.7495581,168.81292 79.8063857,169.23228 77.710828,170.145608 C77.2392418,170.351429 76.6218926,170.661875 76.3389409,170.835107 C75.5441037,171.323073 70.6558983,173.611969 70.4098161,173.611969 C70.1654487,173.611969 66.9269375,175.100737 60.6248309,178.11172 C58.3011971,179.221435 56.3179627,180.129618 56.2176434,180.129618 C56.0384407,180.129618 55.1844409,180.495807 51.8164579,182.016306 C50.8732855,182.441669 49.7157557,182.962223 49.2441695,183.172332 C48.7725833,183.383298 48.1552341,183.693744 47.8722824,183.863546 C47.0654412,184.346366 42.0649126,186.647268 41.8214026,186.647268 C41.5641737,186.647268 40.2162946,187.263872 34.7853363,189.864071 C32.5860297,190.917186 29.1331613,192.484852 27.1130574,193.348441 C25.0929536,194.211172 23.1114341,195.125358 22.7092996,195.380061 C22.3071652,195.633906 21.4866052,195.944352 20.887262,196.068702 C20.2870614,196.19391 19.6122644,196.518077 19.3876179,196.789074 C19.1629713,197.060071 18.856869,197.281328 18.7085337,197.281328 C18.461594,197.281328 14.5328522,199.00336 12.0317304,200.20741 C7.09465152,202.584637 6.12232649,202.326503 7.79345654,199.082257 C9.73982144,195.305451 10.1959739,194.508754 12.1234754,191.528645 C13.0666478,190.070749 14.1298603,188.336711 14.486551,187.676371 C15.161348,186.425153 17.1814518,183.093434 19.6465616,179.16655 C20.4388264,177.904184 21.3254085,176.407697 21.6160771,175.841691 C21.9067457,175.275685 22.5352415,174.195127 23.0119722,173.440452 C23.4895605,172.685776 24.0554639,171.720993 24.2698213,171.296488 C24.4850361,170.871983 24.790281,170.524661 24.948048,170.524661 C25.1066724,170.524661 25.2361443,170.313695 25.2361443,170.056419 C25.2361443,169.799144 25.5311,169.213413 25.8912204,168.754605 C26.2513408,168.296654 27.0316016,167.002557 27.6232279,165.878263 C28.2157117,164.754826 29.3835307,162.754937 30.2178095,161.434255 C31.0520884,160.113573 31.8392087,158.801468 31.9669657,158.518464 C32.0947226,158.235461 32.3905358,157.772365 32.6228992,157.489362 C32.85612,157.206359 33.4957624,156.123228 34.0453747,155.082977 C34.594987,154.042726 35.7396553,152.113158 36.5885105,150.795049 C37.4373657,149.476941 38.6643473,147.494203 39.3151362,146.388775 C40.9099551,143.678805 41.652489,142.445597 43.0706773,140.148126 C43.730898,139.078717 44.5797532,137.676564 44.9570222,137.032518 C45.3342911,136.388471 46.8596582,133.820003 48.3464409,131.324429 C49.834081,128.829713 52.1354217,124.935417 53.4618651,122.671391 C54.7883085,120.407366 55.973276,118.477798 56.0958884,118.383464 C56.2193583,118.28913 57.1582436,116.775491 58.1837292,115.019156 C60.381321,111.256071 61.0149613,110.195238 62.6200693,107.595896 C64.5064141,104.539462 65.2952493,103.198198 65.857723,102.08934 C66.1449619,101.523333 67.0195399,100.056862 67.8015156,98.830515 C69.9888182,95.4001731 70.4552598,94.6317765 71.0828982,93.4277265 C71.4027194,92.8145529 71.7902775,92.3128654 71.9437574,92.3128654 C72.0972373,92.3128654 72.2232794,92.13363 72.2232794,91.9140881 C72.2232794,91.5144533 74.039315,88.3851239 76.8696897,83.9085277 C77.704826,82.5878461 78.6248478,81.0441922 78.9155164,80.4781858 C79.206185,79.9121794 80.3542831,77.982612 81.4689414,76.1902584 C82.5827423,74.3979047 84.1604125,71.7951328 84.9749705,70.4075595 C85.7903859,69.0191286 86.8458816,67.2439267 87.3226124,66.4626663 C87.7984858,65.6805484 88.4930036,64.5288111 88.8659855,63.9027737 C89.2381099,63.2767363 90.062957,61.9646305 90.6974548,60.986983 C91.3319526,60.0093356 91.9741673,58.8884714 92.1242175,58.4956972 C92.275125,58.1029231 93.1445585,56.6364519 94.0568635,55.2368724 C95.9715035,52.3013573 95.7871562,52.6058002 98.4228944,47.994563 C99.534123,46.0504168 100.785113,43.9964995 101.201823,43.4304931 C101.618534,42.8644867 102.220449,41.9382944 102.539413,41.372288 C102.85752,40.8062816 103.489445,39.7257239 103.943883,38.9710486 C104.39832,38.2163734 104.933356,37.2395836 105.13228,36.8013574 C105.331204,36.3622736 105.917685,35.3563258 106.43643,34.565632 C107.649693,32.7132474 108.073263,32.0340397 108.927263,30.566711 C109.312249,29.9063701 109.92874,28.9029951 110.29915,28.3369887 C110.668702,27.7709823 111.24318,26.7676073 111.575005,26.1072665 C111.907688,25.4469256 112.274667,24.8294641 112.39042,24.7351297 C112.506173,24.6407953 113.123523,23.6622903 113.762308,22.5602929 C114.401093,21.4582956 115.193357,20.1075985 115.523468,19.5587438 C116.639841,17.7020712 117.318925,16.5554794 119.143535,13.4458745 C120.145013,11.7401369 121.111336,10.2530837 121.292253,10.14074 C121.473171,10.0292539 121.848725,9.39464066 122.125675,8.73001192 C122.683861,7.39475133 123.2712,7.36473583 123.921132,8.63996544 M128.948241,9.41779547 C129.855401,11.1295361 130.683678,12.542837 130.888604,12.728933 C130.992353,12.8232674 132.054708,14.5984693 133.249965,16.6738262 C134.444364,18.7491831 136.220958,21.6821254 137.19757,23.1914758 C138.174182,24.7008263 139.811872,27.3807809 140.838216,29.1456918 C141.864559,30.9114603 143.012657,32.8710431 143.389926,33.5005109 C144.297943,35.0150068 147.668499,40.6321917 148.534502,42.0746505 C148.911771,42.7024031 150.069301,44.6251097 151.106791,46.3462838 C152.144281,48.0683154 153.330106,50.0459075 153.741672,50.7414093 C155.291904,53.3587602 155.945265,54.4341724 156.518028,55.3097672 C157.697851,57.1115543 160.367029,61.864293 160.367029,62.1627327 C160.367029,62.3308195 160.508505,62.4688907 160.681706,62.4688907 C160.854907,62.4688907 161.279334,63.0117424 161.624878,63.6746559 C161.970422,64.3384271 163.410904,66.8237098 164.825662,69.198364 C166.240421,71.5730182 167.706625,74.0368613 168.083894,74.6740473 C168.461163,75.3112333 169.464356,76.9552246 170.313211,78.3265038 C171.162066,79.6986406 171.975767,81.0527681 172.120672,81.3357713 C172.266435,81.6187745 172.757742,82.4677841 173.213038,83.2224593 C173.668333,83.9771345 174.363708,85.1348749 174.758983,85.7952158 C175.154258,86.4555566 175.742454,87.4057613 176.06742,87.9065912 C177.49847,90.1131586 179.916421,94.3693554 179.916421,94.6806589 C179.916421,94.8693277 180.124777,95.1463278 180.379433,95.2972629 C180.633232,95.4481979 181.05766,95.9841888 181.322605,96.4884491 C181.740174,97.285146 183.858024,100.866423 186.330851,104.956248 C186.745847,105.644032 187.286027,106.591664 187.531252,107.063336 C187.77562,107.535008 188.200047,108.186773 188.47271,108.51094 C188.745372,108.835965 189.362722,109.787885 189.844597,110.625746 C190.326472,111.464464 191.221629,113.009833 191.834691,114.061233 C192.447753,115.111775 192.949349,116.104859 192.949349,116.266943 C192.949349,116.429027 193.258024,116.841525 193.635293,117.182844 C194.012562,117.524163 194.321236,117.945238 194.321236,118.117612 C194.321236,118.289987 194.76367,119.076393 195.30385,119.865372 C195.844888,120.65435 196.756336,122.182568 197.330814,123.26141 C197.904434,124.340253 198.818454,125.883907 199.361207,126.691752 C199.90396,127.499598 201.41818,130.012323 202.72576,132.276349 C204.03334,134.540374 205.300621,136.596864 205.542416,136.846422 C205.784211,137.095121 205.982277,137.431295 205.982277,137.592521 C205.982277,137.753747 206.759966,139.060707 207.709998,140.495448 C208.660029,141.931046 209.59034,143.447257 209.77726,143.864901 C209.96418,144.283403 210.846475,145.810763 211.736486,147.258367 C214.055833,151.028313 217.058551,156.014315 217.544714,156.901916 C217.773647,157.31956 218.126908,157.892427 218.329262,158.17543 C218.531615,158.458433 218.884876,159.028728 219.11381,159.442941 C219.342743,159.857155 220.424819,161.70954 221.518899,163.559352 C222.612979,165.409164 223.689053,167.231533 223.91027,167.60887 C224.131487,167.986208 224.895456,169.187685 225.60798,170.278534 C226.320504,171.368525 226.903556,172.330736 226.903556,172.415637 C226.903556,172.552851 228.41349,175.082728 229.568447,176.879369 C229.80767,177.251562 230.238099,178.019958 230.524481,178.585965 C230.810862,179.151971 231.491661,180.309711 232.038701,181.158721 C233.800719,183.896134 237.19271,189.673687 237.19271,189.937823 C237.19271,190.079325 237.449081,190.478102 237.762043,190.824567 C238.075862,191.171031 238.50029,191.745614 238.705216,192.100654 C238.910999,192.456552 239.696404,193.784094 240.450942,195.050748 C244.203053,201.351429 244.534879,203.024578 241.742231,201.560679 C240.570125,200.946648 237.639431,199.682567 237.388204,199.682567 C237.28617,199.682567 235.386963,198.818979 233.167936,197.764149 C230.948909,196.708461 228.284018,195.458959 227.246528,194.987287 C226.209038,194.515615 224.950332,193.911875 224.449593,193.646881 C223.948854,193.381887 223.376091,193.164918 223.175453,193.164918 C222.851345,193.164918 221.23166,192.419676 212.327255,188.17377 C211.006814,187.544302 208.92326,186.61811 207.697136,186.116423 C206.471012,185.614735 203.924446,184.468143 202.038102,183.567679 C200.151757,182.667214 197.913866,181.623532 197.065011,181.247052 C191.570603,178.810652 188.940009,177.612605 188.490716,177.34075 C188.207764,177.169233 187.436078,176.787608 186.775857,176.493456 C186.115636,176.199304 184.450508,175.43005 183.076049,174.785146 C181.700732,174.140241 180.414588,173.611969 180.217379,173.611969 C180.02017,173.611969 177.980345,172.704643 175.685864,171.594928 C169.961665,168.827499 166.213841,167.094319 165.953182,167.094319 C165.832285,167.094319 164.565004,166.542034 163.136526,165.867114 C161.707191,165.191337 159.921166,164.347473 159.166628,163.990717 C156.182773,162.579989 151.743861,160.576669 151.601528,160.576669 C151.519214,160.576669 150.409701,160.095564 149.135561,159.508118 C144.074154,157.172913 142.642247,156.518575 141.160609,155.862522 C140.311754,155.4869 138.999887,154.905457 138.245349,154.571856 C137.490811,154.237398 135.621615,153.367806 134.091103,152.639716 C132.561449,151.910768 131.152692,151.314746 130.960628,151.314746 C130.769421,151.314746 130.420447,151.083198 130.185512,150.800195 C129.950576,150.517192 129.473845,150.285644 129.126586,150.285644 C128.779327,150.285644 127.949336,149.806253 127.282256,149.22138 L126.06985,148.156259 L126.06985,78.2819094 C126.06985,27.066047 126.172742,8.30379193 126.454836,8.02164631 C127.031886,7.44449128 128.270014,8.13742035 128.948241,9.41779547 M123.820813,152.763208 C124.734833,154.068453 124.623367,274.05581 123.707632,275.187823 L123.060273,275.987093 L121.221087,274.990578 C120.20932,274.442581 118.640224,273.475225 117.733921,272.841469 C116.827618,272.207714 115.747257,271.54137 115.333118,271.362134 C114.91898,271.182041 114.348789,270.892177 114.065838,270.71723 C113.782886,270.541425 111.776501,269.346808 109.607204,268.062145 C107.437908,266.776625 105.458961,265.530553 105.209449,265.292144 C104.960794,265.053736 104.628969,264.859064 104.472059,264.859064 C103.939596,264.859064 96.9172482,260.687768 96.9172482,260.371319 C96.9172482,260.198087 96.671166,260.056585 96.3702082,260.056585 C96.0692505,260.056585 95.4133169,259.776154 94.9125781,259.43312 C94.0963052,258.873975 87.3569096,254.864762 84.9869745,253.528644 C84.4750891,253.240496 83.6699629,252.757675 83.1983766,252.456662 C82.3392323,251.907808 76.0105454,248.13872 73.7855159,246.849769 C72.5062311,246.108815 64.7430647,241.501008 62.6809468,240.257509 C61.9872864,239.839865 60.9223589,239.222403 60.3144415,238.885372 C59.706524,238.549199 57.8090325,237.424904 56.0984607,236.387226 C54.3870315,235.349547 52.569281,234.264702 52.0591105,233.975695 C51.5480825,233.687547 50.7446711,233.204726 50.2730849,232.903714 C49.8014987,232.602701 47.7573868,231.372066 45.7304236,230.169731 C40.6613005,227.162179 40.0396641,226.798563 37.3593396,225.278063 C36.0680508,224.544828 34.5478284,223.61349 33.9819249,223.207852 C33.4160215,222.803072 32.5671663,222.275657 32.0955801,222.037248 C31.6239939,221.798839 30.6765343,221.263706 29.9905907,220.848634 C29.3046471,220.432706 27.5297681,219.414752 26.0464151,218.584609 C24.5630622,217.755324 22.8867875,216.7408 22.3208841,216.330017 C21.7549806,215.919233 21.0604628,215.471574 20.777511,215.33436 C20.4945593,215.198004 19.6988648,214.746056 19.0094915,214.330985 C18.3192607,213.915056 16.5443817,212.885096 15.0653159,212.040374 C13.5853926,211.19651 12.1251902,210.3475 11.8190879,210.153686 C11.513843,209.960729 10.7421565,209.510497 10.104229,209.153741 C9.46715887,208.796986 8.86781567,208.394778 8.77349842,208.258422 C8.67918118,208.122066 8.10041629,207.754162 7.48735421,207.440286 C5.44495721,206.393174 6.14547709,205.149675 9.64293191,203.613739 C10.7678794,203.11977 12.6147825,202.282766 13.7465894,201.753636 C19.4990837,199.065963 21.1179105,198.316434 23.0068277,197.466566 C24.1386346,196.957161 25.373333,196.411736 25.750602,196.254798 C26.1278709,196.09786 27.439738,195.511272 28.6658622,194.952126 C29.8919863,194.39298 31.1266848,193.840695 31.4096365,193.724063 C31.6925882,193.607432 32.1556001,193.36302 32.4385519,193.179497 C32.7215036,192.996831 33.8790334,192.437685 35.0108403,191.936855 C36.1426472,191.436883 38.2510663,190.504687 39.6966924,189.866644 C41.141461,189.227743 42.473049,188.705473 42.6556815,188.705473 C42.8374565,188.705473 43.1649946,188.490219 43.3836391,188.22694 C43.6022836,187.963662 44.3002312,187.650643 44.934729,187.531439 C45.5692268,187.412234 46.2774636,187.088067 46.5081121,186.809352 C46.7387606,186.531494 47.0560095,186.304234 47.2129191,186.304234 C47.3698287,186.304234 48.4699107,185.852286 49.6574505,185.299144 C53.0237186,183.732335 56.6995188,182.187824 57.0622115,182.187824 C57.2431291,182.187824 57.5698097,181.97257 57.7884542,181.709291 C58.0070987,181.446012 58.7204801,181.130421 59.3738413,181.007786 C60.0272026,180.885151 60.5622386,180.656176 60.5622386,180.49838 C60.5622386,180.341442 61.0638348,180.014702 61.6768969,179.772863 C62.289959,179.530166 63.7947477,178.880974 65.0208718,178.329546 C66.246996,177.778119 67.9447063,177.024301 68.7935615,176.652967 C69.6424167,176.28249 70.9542838,175.687326 71.7088217,175.332285 C76.1091498,173.257786 78.3539001,172.239832 78.5288157,172.239832 C78.8100526,172.239832 84.4347899,169.63706 86.3357111,168.626824 C87.212004,168.161155 88.1260238,167.780387 88.3661041,167.780387 C88.6070418,167.780387 89.0469031,167.57714 89.3452885,167.327582 C89.6428166,167.078883 91.4296996,166.216152 93.3160444,165.410021 C95.2023893,164.603891 97.3734007,163.649398 98.1399426,163.289212 C98.907342,162.929026 99.7176129,162.634875 99.9405445,162.634875 C100.164334,162.634875 100.346966,162.486512 100.346966,162.305562 C100.346966,162.124611 101.0029,161.789295 101.804596,161.56032 C102.606293,161.331345 103.493732,160.965156 103.776684,160.746471 C104.322867,160.323682 106.659362,159.204533 106.995474,159.204533 C107.105225,159.204533 108.547422,158.570777 110.201403,157.79552 C111.855384,157.02112 114.057263,155.990302 115.094753,155.504909 C116.132243,155.019516 117.585586,154.317153 118.32469,153.944103 C119.618551,153.289766 122.558677,152.101152 123.049126,152.033403 C123.180313,152.015394 123.527572,152.343849 123.820813,152.763208 M131.253869,153.557332 C135.468992,155.576946 136.899185,156.232141 141.332095,158.174573 C144.37254,159.508118 148.862898,161.622924 149.391932,161.971961 C149.674884,162.158915 150.197916,162.408472 150.553749,162.525961 C150.91044,162.64345 151.882765,163.102259 152.716186,163.544773 C153.54875,163.988144 154.380457,164.350046 154.563947,164.350046 C154.748294,164.350046 156.553183,165.133021 158.575859,166.089229 C162.740394,168.059103 165.399283,169.28888 167.397951,170.170478 C169.893071,171.269903 175.575256,173.852093 178.373048,175.158195 C180.098196,175.962611 182.833396,177.195818 185.060998,178.172608 C185.721219,178.462472 187.129118,179.080791 188.189758,179.547318 C189.250398,180.013844 190.223581,180.567845 190.353053,180.777095 C190.483382,180.987204 190.954968,181.158721 191.401689,181.158721 C191.84841,181.158721 192.446038,181.390269 192.72899,181.673272 C193.011941,181.956275 193.344624,182.187824 193.467237,182.187824 C193.728753,182.187824 197.659209,183.871264 200.752815,185.308577 C201.932638,185.855717 203.027575,186.304234 203.187057,186.304234 C203.346539,186.304234 203.832701,186.612965 204.267418,186.990302 C204.702135,187.36764 205.357211,187.676371 205.723333,187.676371 C206.089456,187.676371 206.780544,187.985101 207.260704,188.362439 C207.740008,188.739777 208.386509,189.048507 208.696041,189.048507 C209.005573,189.048507 209.56376,189.259473 209.935884,189.516749 C210.308009,189.774025 210.99824,190.10248 211.469826,190.245697 C211.941412,190.388056 214.102134,191.348552 216.271431,192.379369 C222.57268,195.374058 226.030693,196.938294 226.350514,196.938294 C226.460265,196.938294 228.366331,197.804455 230.585358,198.862716 C238.634906,202.700411 240.270024,203.455943 240.53497,203.455943 C240.990265,203.455943 243.522254,204.890684 243.789772,205.299752 C244.525447,206.426619 244.065865,206.869991 238.979593,209.94272 C238.17018,210.431544 236.95263,211.187934 236.274403,211.624445 C235.595319,212.061814 234.173701,212.873947 233.115633,213.43052 C231.10839,214.48535 230.997782,214.551384 228.8302,215.990413 C228.097956,216.476664 226.786088,217.262212 225.91494,217.734742 C225.043792,218.207271 223.713919,218.973953 222.959381,219.437049 C222.204843,219.900145 221.355988,220.38125 221.073036,220.5056 C220.790084,220.62995 219.32388,221.515836 217.814804,222.473759 C216.305728,223.431682 214.222174,224.660602 213.184685,225.205169 C212.147195,225.750593 211.05483,226.404931 210.757302,226.660491 C210.458916,226.916052 210.045635,227.125303 209.838137,227.125303 C209.63064,227.125303 209.2568,227.318259 209.008146,227.554095 C208.400228,228.129535 205.292046,230.029087 202.552559,231.500704 C201.326435,232.158472 200.079733,232.910574 199.782205,233.170423 C199.483819,233.430271 199.070538,233.642952 198.86304,233.642952 C198.655542,233.642952 198.281703,233.839339 198.033048,234.078606 C197.783537,234.317872 196.421939,235.191752 195.00718,236.020179 C193.592421,236.848607 192.049048,237.770511 191.577462,238.069808 C191.105876,238.369963 190.334189,238.804759 189.862603,239.038022 C189.391017,239.271286 188.696499,239.656342 188.31923,239.893893 C187.941961,240.131444 186.630094,240.960729 185.40397,241.736844 C184.177846,242.512959 182.557304,243.484603 181.802766,243.897102 C181.048228,244.308743 179.81353,245.017966 179.058992,245.472486 C178.304454,245.927864 177.304691,246.471573 176.836534,246.681682 C176.369235,246.892648 175.906224,247.174793 175.807619,247.310292 C175.709872,247.44579 174.471744,248.233054 173.056985,249.058909 C171.642227,249.885621 170.098854,250.80581 169.627267,251.105108 C169.155681,251.405263 168.383995,251.848634 167.912409,252.092189 C167.440822,252.335743 166.493363,252.876879 165.807419,253.294523 C162.61178,255.239527 158.184871,257.886036 157.185108,258.448612 C156.577191,258.790789 155.51998,259.40825 154.836609,259.820749 C153.684224,260.516251 146.408077,264.829048 143.732897,266.402717 C143.09154,266.780055 140.627288,268.246526 138.25821,269.661542 C128.705588,275.366201 128.468938,275.493124 127.434878,275.493124 C126.886123,275.493124 126.398246,275.264148 126.278206,274.950272 C125.844346,273.819974 126.044985,153.192001 126.481416,152.75549 C127.182794,152.053985 128.619846,152.294966 131.253869,153.557332 M0.110888461,227.327693 C-0.000577370231,227.439179 0.741099124,228.712693 1.75801048,230.157725 C2.77577926,231.602756 3.95988936,233.287912 4.39031896,233.901943 C5.42523633,235.379563 5.6104411,235.636838 8.57543222,239.701794 C9.97389968,241.619355 11.3063451,243.539489 11.5361362,243.968281 C11.7650699,244.397074 12.0883208,244.912483 12.2538047,245.113158 C12.4192885,245.313833 13.0134872,246.095093 13.5751035,246.849769 C14.1367198,247.604444 14.7146272,248.376271 14.8595328,248.56494 C15.0052958,248.753608 15.3842797,249.293887 15.7032434,249.765559 C16.0222072,250.237231 16.8333355,251.394972 17.5055602,252.338316 C18.1786423,253.28166 19.3018749,254.902496 20.0015374,255.940175 C20.7011998,256.977853 21.9787697,258.753055 22.8396289,259.885068 C23.7004881,261.017081 24.8545882,262.637917 25.4050579,263.486927 C25.9546702,264.335936 26.8884109,265.648042 27.4800372,266.402717 C28.8596412,268.164198 30.8694559,271.056834 31.1738434,271.719747 C31.3041727,272.002751 32.1041544,273.160491 32.9521521,274.292504 C33.8001499,275.424517 35.2277699,277.402966 36.1246412,278.689345 C37.020655,279.975723 38.0247049,281.350432 38.3548152,281.744064 C38.6849256,282.136838 38.9550159,282.575922 38.9550159,282.718281 C38.9550159,282.861498 39.5792245,283.767966 40.3423367,284.733607 C41.105449,285.699248 42.5922317,287.758311 43.6468699,289.309683 C44.7006508,290.861055 45.931062,292.593378 46.3794977,293.159384 C47.4538568,294.512654 47.5275957,294.614707 48.7297118,296.418209 C49.852087,298.100792 53.499592,303.230868 53.9866119,303.811454 C54.1529533,304.010413 54.7351479,304.859423 55.2787582,305.698142 C55.8232259,306.537718 56.3968462,307.317263 56.5537558,307.430464 C56.7106654,307.544523 57.3297295,308.414972 57.9290727,309.365177 C58.9134017,310.924268 62.1896397,315.631554 62.8858724,316.485709 C63.0393523,316.674378 63.9165027,317.909301 64.8348096,319.229983 C65.7522592,320.550665 67.2896302,322.71178 68.2508087,324.032462 C69.2111297,325.353143 70.4586895,327.128345 71.0220207,327.977355 C71.5862093,328.826364 72.7454539,330.447201 73.5985963,331.579214 C74.4517386,332.711227 75.917943,334.795159 76.8568283,336.210175 C77.7948561,337.625191 78.7183077,338.952734 78.908657,339.161127 C79.0990063,339.368663 79.8415403,340.372038 80.5600662,341.390849 C86.5037673,349.819199 88.3806804,352.484575 89.8777522,354.628539 C94.9966062,361.956607 97.5723243,365.597915 98.8035931,367.247051 C99.558131,368.257287 100.715661,369.869548 101.375881,370.830044 C102.584857,372.588951 104.215688,374.851262 104.733575,375.48759 C104.887055,375.676259 106.072023,377.374278 107.366741,379.260966 C110.681564,384.091745 111.126569,384.727216 111.33321,384.921031 C111.677039,385.243483 113.991241,388.519459 115.817566,391.267163 C116.819901,392.776514 118.348698,394.937629 119.213844,396.069642 C120.078991,397.201655 121.506611,399.208405 122.385476,400.529086 C124.776847,404.119797 125.184983,404.269017 126.99073,402.204808 C127.796713,401.283762 128.459506,400.398733 128.463793,400.24008 C128.467223,400.081427 128.787902,399.541148 129.17546,399.03946 C130.021743,397.945181 134.981972,390.911265 137.439365,387.32227 C138.40826,385.907254 139.683258,384.132052 140.274027,383.377377 C140.863938,382.622702 141.802824,381.310596 142.359295,380.461586 C142.916625,379.612576 144.058721,378.008034 144.897287,376.896603 C145.734995,375.784315 147.265507,373.623199 148.296994,372.094125 C149.328482,370.564192 150.809263,368.463965 151.586094,367.426287 C153.101172,365.4041 154.156668,363.905898 154.707995,362.996 C154.896629,362.684697 155.97699,361.142758 157.108797,359.569089 C158.240604,357.994562 159.424714,356.317982 159.740248,355.84288 C160.055782,355.367777 160.445055,354.884957 160.605395,354.770898 C160.765734,354.655981 161.580292,353.499956 162.416286,352.201572 C163.252279,350.903187 164.101135,349.668264 164.30263,349.457298 C164.504126,349.246332 165.245803,348.224948 165.949752,347.18727 C166.65456,346.149591 168.081322,344.142841 169.120527,342.727825 C170.159731,341.312809 171.115765,339.923521 171.244379,339.640517 C171.372994,339.357514 172.106096,338.354139 172.872638,337.410795 C173.640037,336.467451 174.64323,335.078163 175.101955,334.323487 C175.878786,333.0474 178.483657,329.394086 178.893508,329.006457 C178.99297,328.912123 180.069044,327.368469 181.284021,325.576115 C182.498999,323.783762 184.70002,320.619271 186.175656,318.543915 C187.651292,316.468558 189.04633,314.480675 189.275264,314.126492 C189.504198,313.772309 189.968924,313.154847 190.309324,312.754355 C190.89752,312.060568 195.244688,305.932263 198.003896,301.906756 C199.385215,299.89143 202.813218,295.083806 204.331725,293.032462 C204.838466,292.347251 206.097173,290.537746 207.127803,289.010386 C208.159291,287.483026 209.403421,285.801301 209.89387,285.273028 C210.383463,284.743898 210.783882,284.110142 210.783882,283.864015 C210.783882,283.618746 210.979376,283.293721 211.218599,283.142786 C211.457822,282.991851 212.418143,281.710618 213.353598,280.295602 C214.933841,277.904654 217.58587,274.172442 217.984575,273.777953 C218.07975,273.683618 218.927747,272.448695 219.869205,271.033679 C221.710106,268.267108 221.997345,267.867473 222.787895,266.970439 C223.070847,266.649702 224.073182,265.232971 225.014639,263.822243 C225.956954,262.411515 228.387767,258.977742 230.416445,256.192305 C232.44598,253.40601 234.105964,251.041646 234.105964,250.937879 C234.105964,250.780083 235.182895,249.252723 236.262399,247.878871 C236.583078,247.47066 242.597088,238.977991 243.432224,237.753359 C243.752045,237.285118 245.318569,235.104278 246.913388,232.908001 C251.693557,226.325175 251.336009,225.978711 244.198766,230.276072 C241.382968,231.971518 238.727509,233.497163 238.297937,233.666965 C237.869222,233.836767 237.329041,234.134349 237.097535,234.329021 C236.371292,234.939621 234.077669,236.394086 232.431404,237.28769 C231.560256,237.76022 230.230383,238.526044 229.475845,238.988283 C228.721307,239.451379 227.765273,239.974506 227.351134,240.151168 C226.936996,240.327831 225.856635,240.993317 224.950332,241.630503 C223.407816,242.713634 221.511182,243.848219 218.672233,245.384155 C216.739587,246.430409 215.79127,246.972403 215.242515,247.348026 C213.950369,248.230481 210.529226,250.334138 209.754967,250.721767 C209.283381,250.957603 208.280188,251.52704 207.52565,251.985848 C206.771112,252.444656 205.76792,253.016666 205.296334,253.258505 C204.824747,253.499486 204.361735,253.787635 204.267418,253.898264 C204.173101,254.008892 202.65888,254.938515 200.902008,255.963329 C199.145135,256.988144 197.13875,258.164751 196.443374,258.57725 C195.747999,258.989749 194.691646,259.60721 194.09659,259.949387 C193.500676,260.291563 191.069864,261.728877 188.694784,263.143893 C186.319704,264.558909 183.846878,266.02538 183.200376,266.402717 C182.553017,266.780055 180.971059,267.728545 179.684058,268.509805 C178.397056,269.291065 176.390671,270.414502 175.226282,271.005379 C174.061035,271.597113 173.057843,272.206856 172.996965,272.361221 C172.93523,272.515587 172.469646,272.859479 171.961191,273.124472 C170.245474,274.019792 160.549662,279.743317 159.14262,280.691807 C157.79817,281.598275 154.256129,283.617888 152.478678,284.49091 C152.007092,284.722458 151.497779,285.108372 151.346871,285.348496 C151.195964,285.587762 150.879572,285.784149 150.643779,285.784149 C150.407128,285.784149 149.2959,286.377598 148.174382,287.103116 C146.228875,288.361194 143.916387,289.717894 141.675067,290.915941 C141.109163,291.218668 139.56579,292.16287 138.245349,293.013595 C136.924907,293.86432 135.458703,294.754493 134.987117,294.991187 C134.515531,295.228738 133.512338,295.79989 132.7578,296.260413 C132.003262,296.721794 130.922901,297.337541 130.356998,297.62912 C129.791094,297.920699 128.633564,298.604195 127.784709,299.148761 C125.382192,300.688127 125.000636,300.610087 119.948661,297.545077 C119.259288,297.127432 118.232945,296.544274 117.667041,296.249265 C117.101138,295.954255 115.171922,294.795658 113.379894,293.673936 C111.587866,292.552214 109.65865,291.393616 109.092747,291.098607 C108.526843,290.803597 107.446482,290.187851 106.691944,289.7299 C105.937406,289.271949 104.73186,288.574732 104.013335,288.180243 C103.293951,287.786611 101.827747,286.893865 100.755103,286.19579 C99.6816008,285.498573 98.4177498,284.729319 97.9461636,284.485765 C97.4745774,284.243068 96.4713849,283.669344 95.7168469,283.211393 C94.962309,282.753442 93.6230042,281.990191 92.7398518,281.515089 C91.8575569,281.039986 91.0369969,280.491989 90.9160993,280.297317 C90.7952018,280.101788 90.2061477,279.711587 89.6059471,279.430298 C89.0057465,279.14901 87.8970902,278.539267 87.1425522,278.076171 C86.3880143,277.612217 85.3848218,277.034205 84.9132356,276.79065 C84.4416494,276.547096 83.6699629,276.103724 83.1983766,275.803569 C82.3177966,275.245281 78.3478981,272.829463 76.0739952,271.469332 C75.370903,271.048258 74.4097246,270.512267 73.9381383,270.278146 C72.7248756,269.674406 68.6563728,267.213993 68.4505897,266.958433 C68.2610978,266.723454 66.6920019,265.798977 65.3638436,265.141209 C64.8922574,264.907946 62.4545854,263.474921 59.9466042,261.957852 C53.0314355,257.773692 52.8993914,257.695652 52.089978,257.335466 C51.6749821,257.150228 50.6717896,256.57393 49.8606613,256.053376 C49.0503905,255.533679 47.9631699,254.870766 47.4461399,254.580902 C44.9295844,253.169316 39.4806201,249.965377 37.5342552,248.753608 C36.3347114,248.006651 34.5049569,246.905512 33.4674672,246.307775 C30.3412794,244.505987 24.6282268,241.079076 23.0839963,240.079989 C22.2874443,239.56458 21.4034346,239.03888 21.1204828,238.911957 C20.8375311,238.785892 19.0249252,237.741353 17.0922792,236.591331 C12.3678428,233.780166 11.6244514,233.34537 8.89268112,231.795713 C7.60139233,231.062478 6.05287471,230.097694 5.45267408,229.651749 C4.85161602,229.205805 4.2256925,228.840474 4.06106604,228.840474 C3.89643958,228.840474 3.23879118,228.45456 2.60000622,227.982888 C1.47848847,227.155318 0.532743762,226.905761 0.110888461,227.327693 M12.1354794,236.239721 C13.398473,236.912926 15.2813881,237.996914 16.3188778,238.648679 C17.3563674,239.300444 18.5138972,239.983939 18.8911662,240.167463 C19.2684352,240.351843 19.8823547,240.695735 20.2544791,240.931571 C22.8387715,242.569559 24.6059336,243.590944 24.8580179,243.590944 C25.0200721,243.590944 25.3518973,243.831068 25.5954072,244.12522 C25.8397746,244.419371 26.5145716,244.883325 27.0950514,245.156895 C27.6763886,245.430465 28.7687537,246.030774 29.5232917,246.491298 C30.2778296,246.951821 31.2664458,247.496388 31.7208834,247.701351 C32.1744636,247.906314 33.1776561,248.500621 33.9502,249.022033 C34.7218866,249.543445 35.585318,250.080293 35.8682698,250.215792 C36.1512215,250.352148 37.0772453,250.912151 37.9261005,251.461006 C38.7749557,252.00986 40.3954974,252.952347 41.5273043,253.556945 C42.6591112,254.160685 44.2487854,255.098026 45.0599137,255.640877 C45.871042,256.182871 46.6118611,256.626243 46.7053209,256.626243 C46.7996381,256.626243 47.8062603,257.243705 48.9423544,257.99838 C50.0784484,258.753055 51.085928,259.370517 51.1811027,259.370517 C51.2771348,259.370517 52.9739877,260.3353 54.952935,261.51448 C61.0158188,265.127488 70.1131455,270.494258 74.6240819,273.120185 C76.982013,274.493179 79.9144218,276.257232 81.1405459,277.041065 C82.3666701,277.824898 84.5908421,279.123283 86.0836268,279.925983 C87.5755541,280.72954 89.2732645,281.709761 89.8563165,282.105108 C92.2897013,283.756817 92.7827233,284.068978 92.9524943,284.068978 C93.0510987,284.068978 93.9445402,284.588675 94.938301,285.223288 C95.9329192,285.857902 97.5174488,286.7961 98.4606213,287.308079 C99.4037937,287.8192 100.869998,288.683646 101.718853,289.228213 C102.567708,289.772779 103.725238,290.45456 104.291142,290.743566 C104.857045,291.032572 105.860238,291.602867 106.520458,292.01022 C107.180679,292.417573 108.029534,292.922691 108.406803,293.131942 C109.027582,293.476691 112.077459,295.329933 115.378562,297.367556 C116.071365,297.795492 116.991387,298.295464 117.423531,298.478987 C119.78232,299.481505 123.632178,302.337264 123.983724,303.344927 C124.516188,304.873144 124.505899,394.677781 123.972578,396.207713 C123.299496,398.138138 122.935946,397.797677 117.955138,390.581095 C117.042833,389.260413 115.257665,386.713384 113.987812,384.921031 C112.717101,383.128677 111.328065,381.15623 110.900208,380.538769 C110.471493,379.92045 109.890156,379.114319 109.607204,378.746415 C109.324253,378.378511 108.740343,377.572381 108.310771,376.954061 C107.880341,376.3366 106.797408,374.82725 105.904824,373.600902 C105.011382,372.374555 103.820413,370.677393 103.257082,369.828384 C102.285614,368.365343 100.438711,365.800305 99.5504141,364.682013 C99.3257676,364.39901 98.6423963,363.395635 98.0319065,362.452291 C97.4214167,361.508947 96.6505876,360.409522 96.3196199,360.00903 C95.9877947,359.608538 95.485341,358.937906 95.2023893,358.517689 C94.9194375,358.097472 94.147751,357.004908 93.4875303,356.089864 C92.8273096,355.173963 91.5926112,353.406479 90.743756,352.161265 C89.8949008,350.915194 88.4235519,348.862134 87.47352,347.598053 C86.5234881,346.33483 85.3719604,344.68312 84.9149505,343.928445 C84.4570831,343.17377 83.3741497,341.630116 82.5081459,340.498103 C81.0307949,338.567678 80.0584699,337.195541 79.2542011,335.907448 C79.0655666,335.605578 78.6025547,334.953813 78.2252857,334.459843 C77.8480167,333.965874 77.3078362,333.212914 77.0248844,332.787552 C76.7419327,332.362189 75.9702462,331.297926 75.3100255,330.423189 C74.6498048,329.548451 73.9552869,328.581095 73.7666524,328.273222 C73.3688052,327.62403 70.8153802,323.853226 70.4312518,323.346393 C68.2396621,320.457188 67.3127808,319.168237 65.8731567,317.007979 C64.9325566,315.597251 63.9602316,314.207962 63.7124345,313.920671 C62.8335692,312.902717 60.9052104,310.177311 60.9052104,309.952623 C60.9052104,309.826558 60.5579514,309.299143 60.1335238,308.778589 C59.7090962,308.258892 59.1303314,307.487923 58.8473796,307.064275 C58.5644279,306.641486 57.4840668,305.114984 56.4465771,303.671667 C55.4090874,302.229208 54.0980778,300.353669 53.5321743,299.505517 C52.9671283,298.656507 52.423518,297.88468 52.3240562,297.790346 C52.2245944,297.696012 51.8781929,297.232915 51.5540845,296.761243 C51.2299762,296.289571 50.1230347,294.745918 49.0941194,293.330902 C48.065204,291.915885 46.3289093,289.446039 45.2348293,287.842354 C44.1407493,286.23867 43.0912556,284.759335 42.9009063,284.554372 C42.4704767,284.08956 41.6190492,282.907808 40.5146801,281.239804 C39.2825539,279.379701 38.3033695,278.01271 36.5242033,275.670644 C35.659057,274.530913 34.746752,273.214519 34.4980975,272.744562 C34.2485855,272.275463 33.5677865,271.250648 32.9847344,270.467673 C32.4016824,269.685555 31.6154196,268.612715 31.2381506,268.084443 C30.8608816,267.55617 30.0883377,266.498767 29.5215768,265.733801 C28.9548159,264.969692 27.7201175,263.186772 26.7786599,261.771756 C25.8363449,260.35674 24.255245,258.140739 23.2640565,256.848358 C22.2737255,255.555119 21.4634546,254.297898 21.4634546,254.054344 C21.4634546,253.811647 21.2319487,253.523499 20.9489969,253.414585 C20.6660452,253.30653 20.4345393,253.056115 20.4345393,252.858012 C20.4345393,252.660768 19.5470997,251.359811 18.4624515,249.966234 C16.3986187,247.31458 12.2032163,241.338067 12.2032163,241.049918 C12.2032163,240.957299 11.8216602,240.47019 11.3543611,239.96593 C10.0802209,238.590363 8.69290005,236.063916 8.90639999,235.506485 C9.18163485,234.789544 9.58719899,234.881306 12.1354794,236.239721 M241.994315,235.406148 C241.994315,235.869244 240.185996,238.873366 239.027609,240.332119 C237.942961,241.69911 237.869222,241.801163 236.686827,243.590944 C236.126068,244.439953 234.651289,246.523886 233.409731,248.221905 C232.168173,249.919925 230.095766,252.852867 228.804477,254.739555 C227.513189,256.626243 226.360803,258.24708 226.243336,258.341414 C226.125868,258.435748 225.725448,258.960591 225.352466,259.50773 C224.164069,261.250344 223.667617,261.973288 222.715871,263.346283 C222.2057,264.083806 221.161351,265.594014 220.395667,266.702872 C219.630839,267.810873 218.659372,269.14013 218.238374,269.656397 C217.816519,270.172663 217.280625,270.887032 217.047404,271.24293 C216.814184,271.599685 215.810991,273.032711 214.818088,274.427145 C213.825185,275.822436 212.781693,277.308632 212.498741,277.729706 C210.203402,281.1489 209.021865,282.838343 207.533367,284.827941 C206.585907,286.094595 205.270611,287.914392 204.61039,288.870599 C203.950169,289.827665 202.838083,291.415913 202.138421,292.399564 C201.438758,293.383214 200.512735,294.693605 200.08059,295.311924 C199.648446,295.929386 198.676978,297.27751 197.92244,298.30747 C197.167902,299.33743 196.010372,300.972846 195.350152,301.942775 C194.689931,302.913562 193.87966,303.953813 193.54955,304.254825 C193.219439,304.556695 192.949349,304.917739 192.949349,305.056668 C192.949349,305.321662 190.538257,308.86349 187.971114,312.369299 C187.141979,313.501312 185.605466,315.703591 184.555972,317.263539 C183.506478,318.823487 182.380673,320.380863 182.053993,320.723897 C181.727312,321.067789 181.305457,321.590058 181.116822,321.885925 C179.140447,324.982666 175.295734,330.378594 175.065085,330.378594 C174.903888,330.378594 174.771844,330.549254 174.771844,330.757647 C174.771844,330.96604 174.424585,331.567208 174.000158,332.093765 C173.57573,332.619465 172.379616,334.317484 171.342126,335.867141 C170.304637,337.416798 169.214844,338.938155 168.919888,339.247743 C168.624932,339.558189 167.521421,341.12414 166.46764,342.727825 C165.414716,344.33151 163.880775,346.520926 163.060215,347.593765 C162.238798,348.666604 160.332732,351.325119 158.823656,353.502529 C157.31458,355.679939 155.65031,358.044302 155.125563,358.756098 C154.600816,359.468751 153.457005,361.131609 152.583284,362.452291 C151.709564,363.772973 150.826411,365.011326 150.621486,365.204283 C150.41656,365.39724 150.095024,365.80545 149.90639,366.110751 C149.347346,367.014646 144.130745,374.443051 143.923247,374.630005 C143.81864,374.724339 143.200434,375.573349 142.550502,376.516693 C141.899713,377.460037 141.282364,378.309047 141.178615,378.403381 C141.074009,378.497715 140.262023,379.655456 139.373726,380.976137 C138.484572,382.296819 137.298747,383.994838 136.737988,384.749513 C136.177229,385.504189 135.141454,386.97066 134.436647,388.008338 C129.381243,395.45218 127.253103,397.882578 126.472842,397.101317 C126.345085,396.974394 126.201037,375.825479 126.152164,350.103918 L126.062991,303.338924 L127.404868,302.194047 C128.143115,301.56458 130.462461,300.045796 132.558019,298.819449 C136.475614,296.52798 138.364531,295.41998 139.690117,294.637004 C140.106828,294.39002 142.499056,292.981864 145.00618,291.50596 C147.512447,290.030913 151.338297,287.763457 153.507593,286.466787 C155.67689,285.170118 157.644691,284.099851 157.880484,284.088703 C158.116277,284.077554 158.309198,283.927477 158.309198,283.754244 C158.309198,283.581012 158.845092,283.156507 159.499311,282.8109 C160.496501,282.284343 163.694713,280.401085 170.470978,276.350709 C171.102046,275.973371 172.906935,274.924544 174.481176,274.019792 C176.056274,273.115039 177.575639,272.224865 177.85859,272.040484 C178.141542,271.856961 178.758891,271.5165 179.230478,271.284094 C179.702064,271.052546 181.168268,270.150366 182.48871,269.279917 C183.809151,268.409468 185.67063,267.302325 186.624092,266.820362 C187.578411,266.337541 189.307846,265.313584 190.466233,264.543472 C191.624621,263.77336 192.672399,263.143893 192.794154,263.143893 C192.915909,263.143893 193.424365,262.855744 193.925104,262.504134 C194.425843,262.151666 195.916055,261.277787 197.236497,260.561703 C198.556938,259.845619 200.005136,258.976027 200.455287,258.628705 C200.905437,258.282241 201.465339,257.99838 201.699417,257.99838 C201.933495,257.99838 202.3322,257.74968 202.584284,257.445237 C202.836368,257.141652 203.280517,256.79433 203.569471,256.67341 C203.859282,256.553348 205.686464,255.528534 207.630257,254.396521 C209.574907,253.264508 211.630165,252.082755 212.198641,251.769736 C212.767117,251.456718 213.491644,250.979043 213.808893,250.707188 C214.125285,250.435333 214.616592,250.106021 214.899544,249.975668 C215.182495,249.845315 215.723533,249.55202 216.102517,249.323045 C216.481501,249.094927 218.019729,248.229624 219.520231,247.400338 C221.02159,246.571911 222.459499,245.68431 222.715013,245.427892 C222.970527,245.172331 223.388953,244.963081 223.645324,244.963081 C223.901696,244.963081 224.320121,244.75383 224.576493,244.497412 C224.832864,244.240994 226.857255,242.967479 229.076283,241.66738 C231.29531,240.36728 233.626661,238.994286 234.257729,238.616948 C240.005936,235.17803 241.994315,234.353033 241.994315,235.406148" id="path1" fill="#FFFFFF"></path>
    </g>
</svg>