<?xml version="1.0" encoding="UTF-8"?>
<svg width="100pt" height="100pt" version="1.1" viewBox="0 0 100 100" xmlns="http://www.w3.org/2000/svg">
 <path d="m50 6c-4.0586 0-7 3.7852-7 8s2.9414 8 7 8 7-3.7852 7-8-2.9414-8-7-8zm0 4c1.4648 0 3 1.5859 3 4s-1.5352 4-3 4-3-1.5859-3-4 1.5352-4 3-4zm0 15c-4.4062 0-8.4023 0.78906-11.469 2.2188s-5.5312 3.6914-5.5312 6.7812v11c0 1.1016 0.89453 2 2 2h30c1.1055 0 2-0.89844 2-2v-11c0-3.0898-2.4648-5.3516-5.5312-6.7812s-7.0625-2.2188-11.469-2.2188zm0 4c3.9062 0 7.4258 0.74219 9.7812 1.8438 2.3555 1.0977 3.2188 2.3672 3.2188 3.1562v9h-26v-9c0-0.78906 0.86328-2.0547 3.2188-3.1562s5.875-1.8438 9.7812-1.8438zm-0.21875 21.969c-1.0312 0.11328-1.8047 0.99609-1.7812 2.0312v8.875l-9.0312 5.4062c-0.50781 0.24609-0.89062 0.69141-1.0508 1.2344-0.16016 0.53906-0.085938 1.1211 0.20703 1.6055 0.29297 0.48047 0.77344 0.81641 1.3281 0.92578 0.55078 0.10938 1.125-0.023437 1.5781-0.35938l8.9688-5.375 8.9688 5.375c0.45312 0.33594 1.0273 0.46875 1.5781 0.35938 0.55469-0.10938 1.0352-0.44531 1.3281-0.92578 0.29297-0.48438 0.36719-1.0664 0.20703-1.6055-0.16016-0.54297-0.54297-0.98828-1.0508-1.2344l-9.0312-5.4062v-8.875c0.011719-0.57422-0.22266-1.1289-0.64844-1.5195-0.42578-0.38672-0.99609-0.57422-1.5703-0.51172zm-26.781 2.0312c-4.0586 0-7 3.7852-7 8s2.9414 8 7 8 7-3.7852 7-8-2.9414-8-7-8zm54 0c-4.0586 0-7 3.7852-7 8s2.9414 8 7 8 7-3.7852 7-8-2.9414-8-7-8zm-54 4c1.4648 0 3 1.5859 3 4s-1.5352 4-3 4-3-1.5859-3-4 1.5352-4 3-4zm54 0c1.4648 0 3 1.5859 3 4s-1.5352 4-3 4-3-1.5859-3-4 1.5352-4 3-4zm-54 15c-4.4062 0-8.4023 0.78906-11.469 2.2188s-5.5312 3.6914-5.5312 6.7812v11c0 1.1055 0.89453 2 2 2h30c1.1055 0 2-0.89453 2-2v-11c0-3.0898-2.4648-5.3516-5.5312-6.7812s-7.0625-2.2188-11.469-2.2188zm54 0c-4.4062 0-8.4023 0.78906-11.469 2.2188s-5.5312 3.6914-5.5312 6.7812v11c0 1.1055 0.89453 2 2 2h30c1.1055 0 2-0.89453 2-2v-11c0-3.0898-2.4648-5.3516-5.5312-6.7812s-7.0625-2.2188-11.469-2.2188zm-54 4c3.9062 0 7.4258 0.74219 9.7812 1.8438 2.3555 1.0977 3.2188 2.3672 3.2188 3.1562v9h-26v-9c0-0.78906 0.86328-2.0547 3.2188-3.1562s5.875-1.8438 9.7812-1.8438zm54 0c3.9062 0 7.4258 0.74219 9.7812 1.8438 2.3555 1.0977 3.2188 2.3672 3.2188 3.1562v9h-26v-9c0-0.78906 0.86328-2.0547 3.2188-3.1562s5.875-1.8438 9.7812-1.8438z"/>
</svg>
