<?xml version="1.0" encoding="utf-8"?>
<!-- Generator: Adobe Illustrator 25.0.1, SVG Export Plug-In . SVG Version: 6.00 Build 0)  -->
<svg version="1.1" id="レイヤー_1" xmlns="http://www.w3.org/2000/svg" xmlns:xlink="http://www.w3.org/1999/xlink" x="0px"
	 y="0px" viewBox="0 0 100 100" style="enable-background:new 0 0 100 100;" xml:space="preserve">
<style type="text/css">
	.st0{fill-rule:evenodd;clip-rule:evenodd;fill:#FFFFFF;}
</style>
<path class="st0" d="M50,0c13.8,0,26.3,5.6,35.4,14.7c9,9,14.6,21.5,14.6,35.4c0,13.8-5.6,26.3-14.6,35.4C76.3,94.4,63.8,100,50,100
	c-13.8,0-26.3-5.6-35.4-14.6C5.6,76.3,0,63.8,0,50c0-13.8,5.6-26.3,14.7-35.4C23.7,5.6,36.2,0,50,0z M79.8,20.2
	c-3-3-6.4-5.5-10.1-7.5c0.6,0.9,1.2,1.9,1.7,2.8c4.4,8,7.3,18.7,7.8,30.6H92C91.1,36,86.6,26.9,79.8,20.2L79.8,20.2z M79.8,79.8
	C86.6,73.1,91.1,64,92,53.9H79.3c-0.5,11.9-3.4,22.6-7.8,30.6c-0.5,1-1.1,2-1.7,2.8C73.5,85.3,76.9,82.8,79.8,79.8L79.8,79.8z
	 M20.2,79.8c3,3,6.4,5.5,10.1,7.5c-0.6-0.9-1.2-1.9-1.7-2.8c-4.4-8-7.3-18.7-7.9-30.6H8C8.9,64,13.4,73.1,20.2,79.8L20.2,79.8z
	 M20.2,20.2C13.4,26.9,8.9,36,8,46.1h12.7c0.5-11.9,3.4-22.6,7.9-30.6c0.5-1,1.1-1.9,1.7-2.8C26.5,14.7,23.2,17.2,20.2,20.2
	L20.2,20.2z M53.9,8.5v37.6h17.6c-0.5-10.5-3-19.9-6.9-26.8C61.6,13.9,57.9,10.1,53.9,8.5L53.9,8.5z M53.9,53.9v37.6
	c4-1.5,7.7-5.3,10.7-10.7c3.8-7,6.4-16.3,6.9-26.8L53.9,53.9z M46.1,91.5V53.9H28.5c0.5,10.5,3,19.9,6.9,26.8
	C38.4,86.1,42.1,89.9,46.1,91.5L46.1,91.5z M46.1,46.1V8.5c-4,1.5-7.7,5.3-10.7,10.7c-3.8,6.9-6.4,16.3-6.9,26.8L46.1,46.1z"/>
</svg>
