<?xml version="1.0" encoding="utf-8"?>
<!-- Generator: Adobe Illustrator 25.0.1, SVG Export Plug-In . SVG Version: 6.00 Build 0)  -->
<svg version="1.1" id="レイヤー_1" xmlns="http://www.w3.org/2000/svg" xmlns:xlink="http://www.w3.org/1999/xlink" x="0px"
	 y="0px" viewBox="0 0 100 100" style="enable-background:new 0 0 100 100;" xml:space="preserve">
<style type="text/css">
	.st0{fill:#231815;}
</style>
<g>
	<path class="st0" d="M13.7,29.6c5.8,0,10.2-4.4,10.2-10.3c0-2.7-1.1-5.3-3-7.2C19,10.1,16.4,9,13.6,9c-2.7,0-5.3,1.1-7.2,3
		c-2,2-3,4.6-3,7.4C3.4,25.1,7.9,29.6,13.7,29.6z M8.7,19.5c0-1.4,0.5-2.7,1.5-3.7c0.9-0.9,2.1-1.4,3.4-1.4c1.3,0,2.6,0.5,3.6,1.5
		c0.9,0.9,1.4,2.1,1.4,3.4c0,2.9-2,4.9-4.9,5C10.9,24.3,8.7,22.2,8.7,19.5z"/>
	<path class="st0" d="M47.7,81.3c-1-5-1.9-10.2-2.8-15.3c-0.6-3.6-3-5.9-6.5-6.3c-1.9-0.2-10.4-0.7-13-0.9l-0.4-8.9
		c0-0.6-0.1-1.2-0.2-1.8c-0.1-1.5-1.4-2.5-2.9-2.4c-0.7,0.1-1.3,0.4-1.8,0.9c-0.5,0.6-0.7,1.3-0.7,2c0,0.6,0.1,1.2,0.2,1.7l0.7,13.7
		l3.7,0.2c4,0.2,12.2,0.7,13.8,0.9c1.2,0.2,1.7,0.6,1.9,1.9c0.8,4.7,1.8,9.7,2.9,15.4c0.3,1.9,0.7,3.7,1.1,5.6l0.2,0.9
		c0.3,1.2,1.4,2.2,2.6,2.2c0.1,0,0.3,0,0.5-0.1c1.4-0.3,2.3-1.7,2.1-3.2C48.5,85.6,48.1,83.4,47.7,81.3z"/>
	<path class="st0" d="M87.1,50.9H36.3c-1.5,0-2.7,1.2-2.7,2.7c0,1.5,1.2,2.7,2.7,2.7H59v32.1c0,1.5,1.2,2.7,2.7,2.7
		c1.5,0,2.7-1.2,2.7-2.7v-32h22.8c0.7,0,1.4-0.3,1.9-0.8s0.8-1.2,0.8-1.9C89.8,52.1,88.6,50.9,87.1,50.9z"/>
	<path class="st0" d="M96.6,23.2c-0.2-0.7-0.6-1.4-1.3-1.7c-1.3-0.8-2.9-0.4-3.7,0.9L80.1,41.4H56.2c-1.5,0-2.7,1.2-2.7,2.7
		c0,1.5,1.2,2.7,2.7,2.7h26.9l13.1-21.7C96.6,24.5,96.7,23.9,96.6,23.2z"/>
	<path class="st0" d="M34.2,70.4c-3,0-5.8,0-8.6,0h-8c-4.9,0-6.9-1.8-7-6.6c-0.1-4.4-0.4-8.9-0.7-13.2l-0.1-1.4
		c-0.1-1.9-0.3-3.7-0.4-5.6l0-0.3c-0.2-2.8,1.6-5.1,4.2-5.4l0.2,0c0.3,0,0.5,0,0.8,0c1.1,0.3,2.2,0.9,3.5,1.6
		c0.4,0.2,0.7,0.4,1.1,0.6L33,47h13.4c1.5,0,2.7-1.2,2.7-2.7c0-1.5-1.2-2.7-2.7-2.7H34.2l-12.4-6.4c-0.2-0.1-0.4-0.2-0.5-0.3
		c-0.2-0.1-0.3-0.2-0.5-0.3c-1.5-0.8-3.1-1.7-5.1-2.2l-0.2,0c-0.6-0.1-1.2-0.1-1.9,0c-0.1,0-0.3,0-0.5,0.1c-5.4,0.7-9.3,5.5-9,11.1
		c0.1,2,0.2,4,0.4,6c0.3,4.5,0.7,9.4,0.7,14.3c0.1,7.7,4.5,11.8,12.5,11.9h11.7c1.6,0,3.2,0,4.8,0c1.5,0,2.7-1.2,2.7-2.7
		c0-0.7-0.3-1.4-0.8-1.9C35.6,70.6,35,70.4,34.2,70.4z"/>
</g>
</svg>
