<?xml version="1.0" encoding="UTF-8"?>
<svg width="2223px" height="685px" viewBox="0 0 2223 685" version="1.1" xmlns="http://www.w3.org/2000/svg" xmlns:xlink="http://www.w3.org/1999/xlink">
    <!-- Generator: Sketch 43.2 (39069) - http://www.bohemiancoding.com/sketch -->
    <title>download</title>
    <desc>Created with Sketch.</desc>
    <defs></defs>
    <g id="Page-1" stroke="none" stroke-width="1" fill="none" fill-rule="evenodd">
        <g id="download" fill-rule="nonzero">
            <polygon id="Path_1" fill="#FFE644" points="214.875815 491.526735 214.875815 0.744004079 0.7375299 363.503979"></polygon>
            <polygon id="Path_2" fill="#EC7463" points="214.875815 0.744004079 429.0141 363.503979 214.875815 491.526735"></polygon>
            <polyline id="Path_3" fill="#009ECB" points="0.7375299 391.050017 214.875815 519.072772 214.875815 684.675781"></polyline>
            <polyline id="Path_4" fill="#4D68AE" points="429.0141 391.050017 214.875815 519.072772 214.875815 684.675781"></polyline>
            <polygon id="Path_5" fill="#57A759" points="214.875815 235.490835 0.7375299 363.503979 214.875815 491.526735"></polygon>
            <polygon id="Path_6" fill="#8E5298" points="214.875815 235.490835 429.0141 363.51359 214.875815 491.536346"></polygon>
            <g id="Group_1" transform="translate(572.947205, 136.346157)" fill="#26293B">
                <path d="M0.7375299,116.579609 C0.48187643,103.895342 3.37683377,91.3458867 9.16280025,80.0566002 C14.5039809,69.7567015 22.6946991,61.2119016 32.7574,55.4420148 C43.4640912,49.5133012 55.5497966,46.5286297 67.7842366,46.7918286 C79.7671222,46.5894398 91.5761384,49.6776774 101.927236,55.720743 C111.946346,61.7143567 120.073936,70.4119595 125.377732,80.8158943 C131.152366,92.19989 134.054807,104.824687 133.831823,117.588797 L133.831823,128.0363 L36.2351057,128.0363 C36.4734937,135.758926 39.8868375,143.040813 45.6691028,148.162399 C52.052578,153.498001 60.2053934,156.242003 68.5143627,155.851454 C74.9018559,155.915685 81.2091284,154.424733 86.8924039,151.507138 C93.8228429,147.57848 100.036993,142.502189 105.270445,136.494259 L127.366365,159.100079 C119.995058,167.366139 111.049317,174.077698 101.053007,178.841727 C90.8748744,183.625004 79.7493121,186.049568 68.5047557,185.934879 C56.1045614,186.205657 43.8496247,183.223362 32.9591454,177.284693 C22.8109347,171.609053 14.5276661,163.108306 9.11476564,152.814277 C3.34164643,141.625463 0.461604188,129.168206 0.7375299,116.579609 L0.7375299,116.579609 Z M98.0748608,102.162632 C97.4999827,95.0531446 94.0255108,88.493816 88.4679391,84.0260745 C76.2648833,74.5093849 59.1863757,74.4067881 46.869968,83.7761802 C41.3859106,88.4803663 37.7891313,95.011474 36.7442725,102.162632 L98.0748608,102.162632 Z" id="Path_7"></path>
                <path d="M244.839804,82.2479807 L244.839804,135.167898 C244.5121,138.682404 245.632943,142.178398 247.94284,144.846495 C250.873699,147.119257 254.559053,148.19135 258.251067,147.845226 L288.301518,147.845226 L288.301518,182.128797 L255.023141,182.128797 C242.885655,182.908678 230.879265,179.242935 221.245204,171.815853 C213.025997,164.311173 208.643025,153.488299 209.323014,142.376386 L209.323014,82.2479807 L177.043757,82.2479807 L177.043757,50.4441294 L209.332621,50.4441294 L209.332621,16.8910183 L244.878232,16.8910183 L244.878232,50.4441294 L296.505829,50.4441294 L296.505829,82.2479807 L244.839804,82.2479807 Z" id="Path_8"></path>
                <path d="M344.674935,0.734392761 L380.220545,0.734392761 L380.220545,62.6024467 L380.720105,62.6024467 C397.374135,45.4250666 423.55409,41.7404652 444.298713,53.6543096 C451.847575,58.4113943 457.88057,65.2274628 461.687241,73.2998436 C465.981288,82.4639943 468.105011,92.4954445 467.893313,102.614364 L467.893313,182.119186 L432.347702,182.119186 L432.347702,107.343132 C432.779099,99.8633895 430.378028,92.4955912 425.622857,86.7076322 C420.895443,81.632491 414.170299,78.9032177 407.244816,79.2492495 C399.891813,78.8390581 392.698038,81.4979359 387.377702,86.5922964 C382.343406,92.0936501 379.744951,99.3969181 380.17251,106.843343 L380.17251,182.128797 L344.6269,182.128797 L344.674935,0.734392761 Z" id="Path_9"></path>
                <path d="M507.291299,116.579609 C507.035138,103.893042 509.937078,91.34194 515.735783,80.0566002 C521.072951,69.7538269 529.264643,61.208011 539.330383,55.4420148 C550.032722,49.5110768 562.115955,46.5261972 574.347612,46.7918286 C586.330734,46.5874696 598.140272,49.6758436 608.490612,55.720743 C618.512537,61.7168448 626.645735,70.4133236 631.960322,80.8158943 C637.725372,92.2030037 640.624143,104.826182 640.404806,117.588797 L640.404806,128.0363 L542.836909,128.0363 C543.063896,135.761649 546.479259,143.047841 552.270906,148.162399 C558.650035,153.499043 566.800323,156.243348 575.106559,155.851454 C581.494052,155.915685 587.801325,154.424733 593.4846,151.507138 C600.420571,147.582465 606.638516,142.505728 611.872248,136.494259 L633.968168,159.100079 C626.592995,167.36602 617.644151,174.077457 607.645203,178.841727 C597.468032,183.627841 586.341814,186.052548 575.096952,185.934879 C562.69627,186.210147 550.440193,183.227575 539.551342,177.284693 C529.400074,171.613044 521.115797,163.111262 515.706962,152.814277 C509.914332,141.631218 507.020664,129.172177 507.291299,116.579609 L507.291299,116.579609 Z M604.638236,102.162632 C604.063358,95.0531446 600.588886,88.493816 595.031315,84.0260745 C582.828259,74.5093849 565.749751,74.4067881 553.433344,83.7761802 C547.928556,88.4716453 544.310822,95.0036188 543.250007,102.162632 L604.638236,102.162632 Z" id="Path_10"></path>
                <path d="M692.128473,50.4537407 L726.146582,50.4537407 L726.146582,62.612058 L726.646142,62.612058 C736.482085,52.0089876 750.441256,46.210176 764.891298,46.7245494 C775.619917,46.4850469 786.087468,50.0495923 794.442189,56.7875993 C802.975605,63.8838809 809.059365,73.4878428 811.830717,84.2375235 L778.55234,95.1655921 C775.472973,84.8911849 765.646168,78.1581841 754.957741,78.9993552 C747.349516,78.4733349 739.899043,81.3450856 734.61028,86.8421907 C729.682951,92.8780388 727.197602,100.543275 727.645262,108.323486 L727.645262,182.128797 L692.099652,182.128797 L692.128473,50.4537407 Z" id="Path_11"></path>
                <path d="M845.070666,116.579609 C844.821351,103.893754 847.722908,91.344307 853.515151,80.0566002 C858.856331,69.7567015 867.047049,61.2119016 877.10975,55.4420148 C887.813441,49.5145219 899.89573,46.5298755 912.12698,46.7918286 C924.110279,46.5859902 935.920209,49.6744667 946.26998,55.720743 C956.297422,61.7129919 964.434671,70.4102426 969.749297,80.8158943 C975.508063,92.2045592 978.40024,104.827744 978.174567,117.588797 L978.174567,128.0363 L880.597063,128.0363 C880.819306,135.760719 884.231488,143.047547 890.021453,148.162399 C896.403529,153.500502 904.557348,156.244842 912.866713,155.851454 C919.254206,155.915685 925.561479,154.424733 931.244754,151.507138 C938.175088,147.578326 944.389214,142.502055 949.622796,136.494259 L971.718715,159.100079 C964.349161,167.372142 955.398996,174.08457 945.39575,178.841727 C935.224648,183.625643 924.105171,186.050312 912.866713,185.934879 C900.466324,186.207451 888.210931,183.225046 877.321103,177.284693 C867.172892,171.609053 858.889623,163.108306 853.476723,152.814277 C847.693617,141.628066 844.803635,129.170672 845.070666,116.579609 L845.070666,116.579609 Z M942.417604,102.162632 C941.842726,95.0531446 938.368254,88.493816 932.810682,84.0260745 C920.607627,74.5093849 903.529119,74.4067881 891.212711,83.7761802 C885.717476,88.4794522 882.10187,95.0075824 881.029374,102.162632 L942.417604,102.162632 Z" id="Path_12"></path>
                <path d="M1021.40571,137.388112 L1021.40571,50.4249068 L1056.95133,50.4249068 L1056.95133,129.237714 C1055.95477,135.840408 1058.13421,142.526072 1062.83008,147.27141 C1067.52595,152.016748 1074.18638,154.264079 1080.7957,153.333289 C1087.14387,153.635943 1093.32511,151.245375 1097.81917,146.749536 C1102.17406,141.987325 1104.45245,135.685163 1104.15013,129.237714 L1104.15013,50.4249068 L1139.69574,50.4249068 L1139.69574,182.099963 L1105.66803,182.099963 L1105.66803,170.431823 L1105.16847,170.431823 C1101.1688,175.351658 1096.00405,179.193957 1090.14324,181.609786 C1071.35543,189.527191 1049.7148,186.213485 1034.1541,173.03649 C1025.23901,163.380669 1020.63641,150.510385 1021.40571,137.388112 L1021.40571,137.388112 Z" id="Path_13"></path>
                <path d="M1179.08412,50.4537407 L1210.39308,50.4537407 L1210.39308,61.8815978 L1210.89264,61.8815978 C1213.53176,57.5642531 1217.2502,54.0097433 1221.68121,51.5686536 C1226.14233,49.143332 1231.14915,47.8993253 1236.22609,47.9547981 C1246.61781,47.9379712 1256.20606,53.5450173 1261.29055,62.612058 L1261.79011,62.612058 C1267.67523,53.2413983 1278.06365,47.6703678 1289.1218,47.9547981 C1298.03743,47.6549258 1306.61078,51.403066 1312.44741,58.1524065 C1318.64597,65.5805062 1321.84017,75.0612128 1321.40106,84.7277007 L1321.40106,182.138409 L1288.66067,182.138409 L1288.66067,90.9558348 C1288.87299,87.7888301 1287.79924,84.6700616 1285.68252,82.3056486 C1283.39051,80.2019722 1280.34283,79.1197092 1277.23804,79.3069174 C1274.10641,79.1726166 1271.0696,80.3991079 1268.90884,82.6708787 C1266.74739,85.1833263 1265.63917,88.4337602 1265.81541,91.7439628 L1265.81541,182.176854 L1234.77545,182.176854 L1234.77545,90.9558348 C1234.94366,87.8348048 1233.91254,84.7675651 1231.89337,82.3825391 C1229.78286,80.2207374 1226.83882,79.08115 1223.82356,79.2588608 C1220.59778,79.1193557 1217.46137,80.3396293 1215.17733,82.6228221 C1212.92927,85.0926239 1211.76331,88.360168 1211.93979,91.6959063 L1211.93979,182.128797 L1179.16098,182.128797 L1179.08412,50.4537407 Z" id="Path_14"></path>
                <path d="M40.4717582,359.159663 L5.70430843,359.159663 L5.70430843,327.355812 L40.4717582,327.355812 L40.4717582,307.969784 C39.9691769,297.546739 44.207129,287.455798 52.0000642,280.51986 C61.0451227,273.364349 72.4027806,269.7831 83.9142582,270.45681 L122.159414,270.45681 L122.159414,302.010767 L88.1509107,302.010767 C85.2386299,301.809247 82.367952,302.789673 80.1867726,304.73077 C78.2751248,306.819025 77.2907822,309.593089 77.4584068,312.419824 L77.4584068,327.326978 L130.152372,327.326978 L130.152372,359.159663 L77.4584068,359.159663 L77.4584068,444.38322 L40.4717582,444.38322 L40.4717582,359.159663 Z" id="Path_15"></path>
                <path d="M169.598393,378.53608 C169.358106,365.970917 172.260907,353.544945 178.042877,342.387914 C183.451111,332.09995 191.679247,323.56798 201.762367,317.792551 C223.628449,306.036282 249.930744,306.036282 271.796826,317.792551 C281.879946,323.56798 290.108082,332.09995 295.516316,342.387914 C306.773621,365.170827 306.773621,391.901334 295.516316,414.684247 C290.111842,424.972452 281.882574,433.502261 271.796826,439.269999 C249.930744,451.026268 223.628449,451.026268 201.762367,439.269999 C191.662429,433.508039 183.419302,424.977684 178.00445,414.684247 C172.237334,403.523185 169.347878,391.097791 169.598393,378.53608 L169.598393,378.53608 Z M268.434404,378.53608 C269.013615,368.758426 266.060949,359.098176 260.11481,351.316828 C254.199411,344.609616 245.532801,340.991856 236.606672,341.503672 C227.771428,341.035574 219.210845,344.653428 213.386742,351.316828 C207.440602,359.098176 204.487937,368.758426 205.067148,378.53608 C204.485084,388.311113 207.438168,397.969319 213.386742,405.745722 C219.506713,412.040776 227.918064,415.581761 236.69559,415.558208 C245.473116,415.534655 253.865361,411.948582 259.951492,405.620775 C265.956735,397.914235 268.970068,388.293104 268.434404,378.53608 L268.434404,378.53608 Z" id="Path_16"></path>
                <path d="M345.866193,399.632923 L345.866193,312.67933 L381.411803,312.67933 L381.411803,391.492137 C380.438267,398.086074 382.629461,404.753246 387.324412,409.482505 C392.019364,414.211764 398.66838,416.4494 405.26579,415.520432 C411.611647,415.826391 417.79122,413.435118 422.279648,408.936679 C426.640114,404.177845 428.919372,397.87328 428.61061,391.424858 L428.61061,312.67933 L464.15622,312.67933 L464.15622,444.354386 L430.099683,444.354386 L430.099683,432.695857 L429.600123,432.695857 C425.592573,437.605124 420.429854,441.442608 414.574897,443.864209 C399.64546,452.130082 381.384393,451.523671 367.035696,442.285533 C352.686998,433.047395 344.569992,416.670781 345.904621,399.652146 L345.866193,399.632923 Z" id="Path_17"></path>
                <path d="M513.545405,312.698552 L549.091015,312.698552 L549.091015,325.125986 L549.571361,325.125986 C554.500348,320.090374 560.313197,316.004857 566.719716,313.073394 C573.30323,310.243965 580.412156,308.845116 587.576343,308.969361 C595.985675,308.924483 604.268967,311.014442 611.651289,315.043714 C619.364637,319.380328 625.660185,325.85566 629.779551,333.689671 C634.716375,343.320057 637.113759,354.052019 636.744569,364.868786 L636.744569,444.373609 L601.198958,444.373609 L601.198958,369.587943 C601.551181,362.242191 599.260813,355.01332 594.743107,349.211949 C590.04892,343.915445 583.17685,341.078842 576.115286,341.522895 C568.761582,341.108027 561.566002,343.767572 556.248172,348.865942 C551.213876,354.367296 548.615421,361.670564 549.04298,369.116989 L549.04298,444.402443 L513.49737,444.402443 L513.545405,312.698552 Z" id="Path_18"></path>
                <path d="M673.462224,378.526469 C673.263687,366.171689 675.892578,353.935175 681.147761,342.753144 C685.88097,332.609863 693.367407,324.001017 702.753728,317.907887 C712.165569,311.9026 723.13149,308.791438 734.293252,308.95975 C747.074106,308.212458 759.640672,312.492909 769.310482,320.887395 L769.810042,320.887395 L769.810042,262.988816 L805.355652,262.988816 L805.355652,444.373609 L772.586442,444.373609 L772.586442,432.945752 L772.077275,432.945752 C762.031889,443.159922 748.143479,448.657097 733.83212,448.083577 C722.82838,448.259636 712.00748,445.256163 702.667266,439.433391 C693.33583,433.479715 685.886453,424.997005 681.186189,414.972587 C675.849977,403.577889 673.207088,391.107217 673.462224,378.526469 L673.462224,378.526469 Z M769.819649,386.955595 L769.819649,369.837838 C769.830893,364.913535 768.452259,360.086106 765.842383,355.911038 C763.117519,351.544635 759.31208,347.955954 754.794423,345.492369 C749.973924,342.809193 744.535764,341.43412 739.019857,341.503672 C730.50553,341.1565 722.337696,344.899423 717.039221,351.576334 C706.21311,367.896574 706.262379,389.129936 717.164111,405.399714 C722.323891,412.057299 730.353192,415.846978 738.770078,415.597323 C746.990826,415.867759 754.985104,412.875875 761.010101,407.273921 C766.727439,402.089597 769.937159,394.693708 769.819649,386.974818 L769.819649,386.955595 Z" id="Path_19"></path>
                <path d="M853.255764,409.100072 C852.682293,398.127573 857.331718,387.530587 865.792797,380.525623 C878.295215,372.163735 892.678668,367.041186 907.650154,365.618469 C914.881924,364.818202 921.951907,362.932442 928.622065,360.024682 C931.947224,358.576636 934.129167,355.328478 934.213293,351.701281 C934.245583,347.793896 932.151428,344.178077 928.746955,342.262966 C924.207929,339.719553 919.042075,338.513302 913.846619,338.783669 C907.103839,338.643807 900.535964,340.93645 895.343688,345.242475 C890.092428,349.607582 886.533885,355.673815 885.285241,362.389066 L852.256644,354.930683 C853.838203,346.140316 857.689896,337.91652 863.429494,331.075392 C869.350694,324.0247 876.834229,318.453086 885.285241,314.803431 C894.287891,310.865271 904.021441,308.877054 913.846619,308.969361 C928.664113,308.221259 943.188625,313.28682 954.330187,323.088387 C964.586944,332.909375 970.109009,346.680568 969.480303,360.870478 L969.480303,444.354386 L937.710213,444.354386 L937.710213,429.716349 L937.210653,429.716349 C933.245854,435.642252 927.696799,440.334631 921.195914,443.258696 C913.907999,446.563722 905.976427,448.205262 897.975984,448.064355 C890.011797,448.204032 882.12242,446.50704 874.919372,443.104915 C868.415635,440.051963 862.902321,435.228936 859.01031,429.187726 C855.182709,423.193131 853.1831,416.213005 853.255764,409.100072 Z M935.702366,395.432778 L935.702366,380.525623 L935.22202,380.525623 C933.428892,383.246349 930.823421,385.331679 927.776656,386.48464 C922.460733,388.490309 916.966566,389.986771 911.368033,390.953903 C904.700035,392.032291 898.246477,394.167157 892.250259,397.278151 C888.951264,399.215183 886.956101,402.784594 887.0337,406.61074 C886.895759,410.111062 888.649823,413.415203 891.625809,415.260927 C895.684008,417.490726 900.290906,418.523837 904.912182,418.240435 C910.12389,418.259511 915.282795,417.195839 920.062297,415.116757 C924.514,413.315212 928.441822,410.423356 931.484927,406.706854 C934.149796,403.548072 935.642922,399.565713 935.711973,395.432778 L935.702366,395.432778 Z" id="Path_20"></path>
                <path d="M1089.20176,344.502403 L1089.20176,397.42232 C1088.86688,400.93596 1089.98476,404.433535 1092.29519,407.100918 C1095.22381,409.37807 1098.91094,410.45068 1102.60342,410.099649 L1132.65387,410.099649 L1132.65387,444.38322 L1099.37549,444.38322 C1087.24386,445.163687 1075.24329,441.497637 1065.61677,434.070276 C1057.39518,426.56659 1053.00881,415.744045 1053.68497,404.630809 L1053.68497,344.502403 L1021.41532,344.502403 L1021.41532,312.698552 L1053.68497,312.698552 L1053.68497,279.155052 L1089.23058,279.155052 L1089.23058,312.698552 L1140.86779,312.698552 L1140.86779,344.502403 L1089.20176,344.502403 Z" id="Path_21"></path>
                <path d="M1314.68582,411.829686 L1314.68582,444.373609 L1185.30941,444.373609 L1185.30941,411.829686 L1232.24883,411.829686 L1232.24883,345.242475 L1187.75917,345.242475 L1187.75917,312.688941 L1267.73679,312.688941 L1267.73679,411.829686 L1314.68582,411.829686 Z M1231.48988,257.087466 L1267.99618,257.087466 L1267.99618,292.101498 L1231.48988,292.101498 L1231.48988,257.087466 Z" id="Path_22"></path>
                <path d="M1351.70129,378.53608 C1351.46158,365.973243 1354.35739,353.548942 1360.12656,342.387914 C1365.54304,332.102733 1373.77327,323.572043 1383.85566,317.792551 C1405.72174,306.036282 1432.02403,306.036282 1453.89012,317.792551 C1463.97324,323.56798 1472.20137,332.09995 1477.60961,342.387914 C1488.84771,365.175312 1488.84771,391.896849 1477.60961,414.684247 C1472.20557,424.972768 1463.9762,433.502687 1453.89012,439.269999 C1432.02403,451.026268 1405.72174,451.026268 1383.85566,439.269999 C1373.77066,433.498179 1365.5393,424.969657 1360.12656,414.684247 C1354.35892,403.522654 1351.4632,391.098746 1351.70129,378.53608 L1351.70129,378.53608 Z M1450.5373,378.53608 C1451.11651,368.758426 1448.16385,359.098176 1442.21771,351.316828 C1436.30614,344.6214 1427.65389,341.005204 1418.73839,341.503672 C1409.90645,341.038576 1401.35005,344.656159 1395.52807,351.316828 C1389.5765,359.095384 1386.6232,368.757703 1387.20847,378.53608 C1386.61946,388.311941 1389.57327,397.972521 1395.52807,405.745722 C1401.64804,412.040776 1410.05939,415.581761 1418.83692,415.558208 C1427.61444,415.534655 1436.00669,411.948582 1442.09282,405.620775 C1448.08434,397.908894 1451.08386,388.288275 1450.5373,378.53608 L1450.5373,378.53608 Z" id="Path_23"></path>
                <path d="M1526.83547,312.698552 L1562.38108,312.698552 L1562.38108,325.125986 L1562.88064,325.125986 C1567.80349,320.087477 1573.61377,316.001477 1580.01939,313.073394 C1586.60334,310.245367 1593.71196,308.846578 1600.87602,308.969361 C1609.28855,308.923275 1617.57524,311.013258 1624.96057,315.043714 C1632.67392,319.380328 1638.96947,325.85566 1643.08883,333.689671 C1648.02233,343.320938 1650.4164,354.052854 1650.04424,364.868786 L1650.04424,444.373609 L1614.49863,444.373609 L1614.49863,369.587943 C1614.85946,362.241072 1612.56817,355.009274 1608.04278,349.211949 C1603.35032,343.913025 1596.47701,341.075913 1589.41496,341.522895 C1582.06196,341.112704 1574.86818,343.771581 1569.54785,348.865942 C1564.51355,354.367296 1561.9151,361.670564 1562.34266,369.116989 L1562.34266,444.402443 L1526.79705,444.402443 L1526.83547,312.698552 Z" id="Path_24"></path>
            </g>
        </g>
    </g>
</svg>