<?xml version="1.0" encoding="utf-8"?>
<!-- Generator: Adobe Illustrator 24.1.2, SVG Export Plug-In . SVG Version: 6.00 Build 0)  -->
<svg version="1.1" id="レイヤー_1" xmlns="http://www.w3.org/2000/svg" xmlns:xlink="http://www.w3.org/1999/xlink" x="0px"
	 y="0px" viewBox="0 0 244.42 404" style="enable-background:new 0 0 244.42 404;" xml:space="preserve">
<style type="text/css">
	.st0{fill:url(#SVGID_1_);}
	.st1{fill:url(#SVGID_2_);}
</style>
<g>
	<linearGradient id="SVGID_1_" gradientUnits="userSpaceOnUse" x1="80.1665" y1="142.6688" x2="190.5864" y2="381.7797">
		<stop  offset="0" style="stop-color:#EB008B"/>
		<stop  offset="1" style="stop-color:#00316D"/>
	</linearGradient>
	<path class="st0" d="M123.32,306.94L20.04,245.28L0,232.77L123.32,404l109.46-151.98l11.63-17.37L123.32,306.94z M117.45,379.87
		L34.6,264.85l82.84,49.46V379.87z M126.78,383.23v-67.48l85.25-50.9L126.78,383.23z"/>
	<linearGradient id="SVGID_2_" gradientUnits="userSpaceOnUse" x1="88.9999" y1="138.5896" x2="199.4199" y2="377.7005">
		<stop  offset="0" style="stop-color:#EB008B"/>
		<stop  offset="1" style="stop-color:#00316D"/>
	</linearGradient>
	<path class="st1" d="M244.06,209.49L122.95,0L0.17,211.11l121.17,63.08L244.06,209.49z M117.45,109.64v9.79L82.5,105.57l17.32-6.61
		v2.84L117.45,109.64z M122.22,58.7l13.58,20.28l-13.48,6.1l-13.5-6.12L122.22,58.7z M117.45,156.02v13.89l-60.64-26.5l28.51-16.27
		v14.66L117.45,156.02z M126.78,93.32l8.49-3.84v6.27l-8.49,3.8V93.32z M117.45,99.43l-8.3-3.69v-6.38l8.3,3.76V99.43z
		 M126.78,170.04v-13.86l32.32-14.4v-14.53l28.44,16.23L126.78,170.04z M160.77,165.37v19.54l-33.99,15.12v-19.81L160.77,165.37z
		 M149.76,135.73l-22.98,10.23v-16.32l22.98-9.11V135.73z M117.45,145.81l-22.79-10.09v-15.28l22.79,9.04V145.81z M83.64,165.32
		l33.81,14.78v19.76l-33.81-14.94V165.32z M126.78,210.25l43.33-19.27v-22.98l35.71,17.76l-79.04,36.43V210.25z M174.09,159.55
		l23.35-10.21l17.71,30.63L174.09,159.55z M191.94,141.56l0.5-0.87l0.3,0.52L191.94,141.56z M159.42,116.7l15.57-6.18L187.99,133
		L159.42,116.7z M126.78,119.61v-9.84l17.82-7.97v-2.85l17.38,6.69L126.78,119.61z M84.97,116.59l-26.88,15.34l12.29-21.13
		L84.97,116.59z M70.27,159.47l-39.68,19.74l17.19-29.57L70.27,159.47z M74.31,167.89v23.09l43.14,19.07v12.05l-78.96-36.4
		L74.31,167.89z M126.78,259.73v-27.27l93.73-43.21l9.33,16.13L126.78,259.73z M167.65,97.81l-23.04-8.87v-3.7l5.08-2.3l-22.9-34.22
		v-21.6L167.65,97.81z M117.45,49L95.01,82.96l4.8,2.18v3.83l-21.52,8.21l39.15-67.32V49z M14.44,206.97l10.12-17.41l92.88,42.81
		v28.22L14.44,206.97z M121.16,262.53h0.3l-0.15,0.08L121.16,262.53z"/>
</g>
</svg>
