
<svg width="135px" height="132px" viewBox="0 0 135 132" version="1.1" xmlns="http://www.w3.org/2000/svg" xmlns:xlink="http://www.w3.org/1999/xlink" style="">
    <!-- Generator: Sketch 51.2 (57519) - http://www.bohemiancoding.com/sketch -->
    <desc>Created with Sketch.</desc>
    <defs></defs>
    <g id="Page-1" stroke="none" stroke-width="1" fill="none" fill-rule="evenodd">
        <path id="Oval-4" fill="#3D6DFA" fill-rule="nonzero" d="M0,77.5A55,54.5 0,1,1 110,77.5A55,54.5 0,1,1 0,77.5" class="vgplYvvy_0"></path>
        <g id="Group" transform="translate(6.000000, 1.000000)">
            <g id="Group-15-Copy-4" transform="translate(4.409722, 0.000000)" stroke="#FFFFFF" stroke-linejoin="round" stroke-width="1.2348">
                <path d="M20.2847222,10.0300752 C20.2847222,15.5695356 15.74383,20.0601504 10.1423491,20.0601504 C4.5408682,20.0601504 0,15.5695356 0,10.0300752 C0,4.49061474 4.5408682,0 10.1423491,0 C15.74383,0 20.2847222,4.49061474 20.2847222,10.0300752 Z" id="Stroke-1" class="vgplYvvy_1"></path>
                <path id="Stroke-3" d="M10.0106421,18.3667611L5.13704004,11.5932038L10.0106421,14.4545755Z" class="vgplYvvy_2"></path>
                <path id="Stroke-5" d="M10.1423611,18.3667611L15.0159632,11.5932038L10.1423611,14.4545755Z" class="vgplYvvy_3"></path>
                <path id="Stroke-7" d="M10.0106421,7.44342078L5.13704004,9.63929304L10.0106421,1.5631286L10.0106421,7.44342078L10.0106421,1.5631286Z" class="vgplYvvy_4"></path>
                <path id="Stroke-9" d="M10.1423611,7.44342078L15.0159632,9.63929304L10.1423611,1.5631286L10.1423611,7.44342078L10.1423611,1.5631286Z" class="vgplYvvy_5"></path>
                <path id="Stroke-11" d="M10.1423611,12.6352895L15.0159632,9.76089067L10.1423611,7.55512157Z" class="vgplYvvy_6"></path>
                <path id="Stroke-13" d="M10.0106421,12.6352895L5.13704004,9.76089067L10.0106421,7.55512157Z" class="vgplYvvy_7"></path>
            </g>
            <g id="Group-15-Copy-5" transform="translate(99.659722, 17.443609)" stroke="#FFFFFF" stroke-linejoin="round" stroke-width="1.6464">
                <path d="M27.3402778,13.518797 C27.3402778,20.9850263 21.2199448,27.037594 13.6701227,27.037594 C6.12030061,27.037594 0,20.9850263 0,13.518797 C0,6.05256769 6.12030061,0 13.6701227,0 C21.2199448,0 27.3402778,6.05256769 27.3402778,13.518797 Z" id="Stroke-1" class="vgplYvvy_8"></path>
                <path id="Stroke-3" d="M13.4926046,24.7551997L6.92383658,15.6256225L13.4926046,19.482254Z" class="vgplYvvy_9"></path>
                <path id="Stroke-5" d="M13.6701389,24.7551997L20.2389069,15.6256225L13.6701389,19.482254Z" class="vgplYvvy_10"></path>
                <path id="Stroke-7" d="M13.4926046,10.0324367L6.92383658,12.9920906L13.4926046,2.10682551L13.4926046,10.0324367L13.4926046,2.10682551Z" class="vgplYvvy_11"></path>
                <path id="Stroke-9" d="M13.6701389,10.0324367L20.2389069,12.9920906L13.6701389,2.10682551L13.6701389,10.0324367L13.6701389,2.10682551Z" class="vgplYvvy_12"></path>
                <path id="Stroke-11" d="M13.6701389,17.0301728L20.2389069,13.1559831L13.6701389,10.1829899Z" class="vgplYvvy_13"></path>
                <path id="Stroke-13" d="M13.4926046,17.0301728L6.92383658,13.1559831L13.4926046,10.1829899Z" class="vgplYvvy_14"></path>
            </g>
            <g id="Group-18" transform="translate(0.000000, 27.909774)" stroke="#FFFFFF">
                <path id="Stroke-1" stroke-width="3" d="M0.702799479,78.4962406L98.9569227,78.4962406L98.9569227,24.92748L0.702799479,24.92748Z" class="vgplYvvy_15"></path>
                <path d="M49.8298611,65.8918263 C41.964777,65.8918263 35.5671658,59.5313238 35.5671658,51.7118603 C35.5671658,43.8923968 41.964777,37.5318943 49.8298611,37.5318943 C57.6949452,37.5318943 64.0925564,43.8923968 64.0925564,51.7118603 C64.0925564,59.5313238 57.6949452,65.8918263 49.8298611,65.8918263 Z" id="Stroke-3" stroke-width="5.04" class="vgplYvvy_16"></path>
                <path d="M44.2832574,57.2262915 L55.3764648,46.1974291" id="Stroke-4" stroke-width="5.04" class="vgplYvvy_17"></path>
                <path d="M43.4908854,46.9852049 L46.6603733,46.9852049" id="Stroke-5" stroke-width="5.04" class="vgplYvvy_18"></path>
                <path d="M52.999349,56.4385156 L56.1688368,56.4385156" id="Stroke-6" stroke-width="5.04" class="vgplYvvy_19"></path>
                <path d="M92.617947,62.7407228 L92.617947,40.6829978 C87.3676904,40.6829978 83.1094835,36.4494902 83.1094835,31.2296871 L16.5502387,31.2296871 C16.5502387,36.4494902 12.2920318,40.6829978 7.04177517,40.6829978 L7.04177517,62.7407228 C12.2920318,62.7407228 16.5502387,66.9742304 16.5502387,72.1940335 L83.1094835,72.1940335 C83.1094835,66.9742304 87.3676904,62.7407228 92.617947,62.7407228 Z" id="Stroke-7" stroke-width="3" class="vgplYvvy_20"></path>
                <path id="Stroke-8" stroke-width="3" d="M0.702799479,22.8825713L84.5199056,0.553851467L91.0807454,24.9276375" class="vgplYvvy_21"></path>
                <path d="M84.5734699,25.124424 L82.4942859,17.4073713 C77.4215206,18.7591948 72.2077131,15.7672219 70.8495876,10.7223051 L16.7892181,25.124424" id="Stroke-9" stroke-width="3" class="vgplYvvy_22"></path>
            </g>
            <path id="Oval-2-Copy-4" fill="#5B9DFD" fill-rule="nonzero" d="M24.694444500000003,89.8345865A26.4583333,26.1654135 0,1,1 77.6111111,89.8345865A26.4583333,26.1654135 0,1,1 24.694444500000003,89.8345865" class="vgplYvvy_23"></path>
            <g id="Group-15-Copy-3" transform="translate(25.576389, 67.157895)" stroke="#FFFFFF" stroke-linejoin="round" stroke-width="2.94">
                <path d="M49.3888889,24.4210526 C49.3888889,37.9084346 38.3328035,48.8421053 24.6944152,48.8421053 C11.0560269,48.8421053 0,37.9084346 0,24.4210526 C0,10.9336707 11.0560269,0 24.6944152,0 C38.3328035,0 49.3888889,10.9336707 49.3888889,24.4210526 Z" id="Stroke-1" class="vgplYvvy_24"></path>
                <path id="Stroke-3" d="M24.2454545,44.4019139L12.5717172,28.4172249L24.2454545,35.1696794Z" class="vgplYvvy_25"></path>
                <path id="Stroke-5" d="M25.1434343,44.4019139L36.8171717,28.4172249L25.1434343,35.1696794Z" class="vgplYvvy_26"></path>
                <path id="Stroke-7" d="M24.2454545,17.777017L12.5717172,23.0889952L24.2454545,3.55215311L24.2454545,17.777017L24.2454545,3.55215311Z" class="vgplYvvy_27"></path>
                <path id="Stroke-9" d="M25.1434343,17.777017L36.8171717,23.0889952L25.1434343,3.55215311L25.1434343,17.777017L25.1434343,3.55215311Z" class="vgplYvvy_28"></path>
                <path id="Stroke-11" d="M25.1434343,30.1933014L36.8171717,23.1588752L25.1434343,17.7607656Z" class="vgplYvvy_29"></path>
                <path id="Stroke-13" d="M24.2454545,30.1933014L12.5717172,23.1588752L24.2454545,17.7607656Z" class="vgplYvvy_30"></path>
            </g>
        </g>
    </g>
<style data-made-with="vivus-instant">.vgplYvvy_0{stroke-dasharray:345 347;stroke-dashoffset:346;animation:vgplYvvy_draw 3000ms ease-in 0ms forwards;}.vgplYvvy_1{stroke-dasharray:64 66;stroke-dashoffset:65;animation:vgplYvvy_draw 3000ms ease-in 0ms forwards;}.vgplYvvy_2{stroke-dasharray:18 20;stroke-dashoffset:19;animation:vgplYvvy_draw 3000ms ease-in 0ms forwards;}.vgplYvvy_3{stroke-dasharray:18 20;stroke-dashoffset:19;animation:vgplYvvy_draw 3000ms ease-in 0ms forwards;}.vgplYvvy_4{stroke-dasharray:33 35;stroke-dashoffset:34;animation:vgplYvvy_draw 3000ms ease-in 0ms forwards;}.vgplYvvy_5{stroke-dasharray:33 35;stroke-dashoffset:34;animation:vgplYvvy_draw 3000ms ease-in 0ms forwards;}.vgplYvvy_6{stroke-dasharray:17 19;stroke-dashoffset:18;animation:vgplYvvy_draw 3000ms ease-in 0ms forwards;}.vgplYvvy_7{stroke-dasharray:17 19;stroke-dashoffset:18;animation:vgplYvvy_draw 3000ms ease-in 0ms forwards;}.vgplYvvy_8{stroke-dasharray:86 88;stroke-dashoffset:87;animation:vgplYvvy_draw 3000ms ease-in 0ms forwards;}.vgplYvvy_9{stroke-dasharray:25 27;stroke-dashoffset:26;animation:vgplYvvy_draw 3000ms ease-in 0ms forwards;}.vgplYvvy_10{stroke-dasharray:25 27;stroke-dashoffset:26;animation:vgplYvvy_draw 3000ms ease-in 0ms forwards;}.vgplYvvy_11{stroke-dasharray:44 46;stroke-dashoffset:45;animation:vgplYvvy_draw 3000ms ease-in 0ms forwards;}.vgplYvvy_12{stroke-dasharray:44 46;stroke-dashoffset:45;animation:vgplYvvy_draw 3000ms ease-in 0ms forwards;}.vgplYvvy_13{stroke-dasharray:22 24;stroke-dashoffset:23;animation:vgplYvvy_draw 3000ms ease-in 0ms forwards;}.vgplYvvy_14{stroke-dasharray:22 24;stroke-dashoffset:23;animation:vgplYvvy_draw 3000ms ease-in 0ms forwards;}.vgplYvvy_15{stroke-dasharray:304 306;stroke-dashoffset:305;animation:vgplYvvy_draw 3000ms ease-in 0ms forwards;}.vgplYvvy_16{stroke-dasharray:90 92;stroke-dashoffset:91;animation:vgplYvvy_draw 3000ms ease-in 0ms forwards;}.vgplYvvy_17{stroke-dasharray:16 18;stroke-dashoffset:17;animation:vgplYvvy_draw 3000ms ease-in 0ms forwards;}.vgplYvvy_18{stroke-dasharray:4 6;stroke-dashoffset:5;animation:vgplYvvy_draw 3000ms ease-in 0ms forwards;}.vgplYvvy_19{stroke-dasharray:4 6;stroke-dashoffset:5;animation:vgplYvvy_draw 3000ms ease-in 0ms forwards;}.vgplYvvy_20{stroke-dasharray:237 239;stroke-dashoffset:238;animation:vgplYvvy_draw 3000ms ease-in 0ms forwards;}.vgplYvvy_21{stroke-dasharray:112 114;stroke-dashoffset:113;animation:vgplYvvy_draw 3000ms ease-in 0ms forwards;}.vgplYvvy_22{stroke-dasharray:79 81;stroke-dashoffset:80;animation:vgplYvvy_draw 3000ms ease-in 0ms forwards;}.vgplYvvy_23{stroke-dasharray:166 168;stroke-dashoffset:167;animation:vgplYvvy_draw 3000ms ease-in 0ms forwards;}.vgplYvvy_24{stroke-dasharray:155 157;stroke-dashoffset:156;animation:vgplYvvy_draw 3000ms ease-in 0ms forwards;}.vgplYvvy_25{stroke-dasharray:43 45;stroke-dashoffset:44;animation:vgplYvvy_draw 3000ms ease-in 0ms forwards;}.vgplYvvy_26{stroke-dasharray:43 45;stroke-dashoffset:44;animation:vgplYvvy_draw 3000ms ease-in 0ms forwards;}.vgplYvvy_27{stroke-dasharray:79 81;stroke-dashoffset:80;animation:vgplYvvy_draw 3000ms ease-in 0ms forwards;}.vgplYvvy_28{stroke-dasharray:79 81;stroke-dashoffset:80;animation:vgplYvvy_draw 3000ms ease-in 0ms forwards;}.vgplYvvy_29{stroke-dasharray:39 41;stroke-dashoffset:40;animation:vgplYvvy_draw 3000ms ease-in 0ms forwards;}.vgplYvvy_30{stroke-dasharray:39 41;stroke-dashoffset:40;animation:vgplYvvy_draw 3000ms ease-in 0ms forwards;}@keyframes vgplYvvy_draw{100%{stroke-dashoffset:0;}}@keyframes vgplYvvy_fade{0%{stroke-opacity:1;}94.44444444444444%{stroke-opacity:1;}100%{stroke-opacity:0;}}</style></svg>
