
<svg width="135px" height="132px" viewBox="0 0 135 132" version="1.1" xmlns="http://www.w3.org/2000/svg" xmlns:xlink="http://www.w3.org/1999/xlink">
    <!-- Generator: Sketch 51.2 (57519) - http://www.bohemiancoding.com/sketch -->
    <desc>Created with Sketch.</desc>
    <defs></defs>
    <g id="Page-1" stroke="none" stroke-width="1" fill="none" fill-rule="evenodd">
        <ellipse id="Oval-4" fill="#3D6DFA" fill-rule="nonzero" cx="55" cy="77.5" rx="55" ry="54.5"></ellipse>
        <g id="Group" transform="translate(6.000000, 1.000000)">
            <g id="Group-15-Copy-4" transform="translate(4.409722, 0.000000)" stroke="#FFFFFF" stroke-linejoin="round" stroke-width="1.2348">
                <path d="M20.2847222,10.0300752 C20.2847222,15.5695356 15.74383,20.0601504 10.1423491,20.0601504 C4.5408682,20.0601504 0,15.5695356 0,10.0300752 C0,4.49061474 4.5408682,0 10.1423491,0 C15.74383,0 20.2847222,4.49061474 20.2847222,10.0300752 Z" id="Stroke-1"></path>
                <polygon id="Stroke-3" points="10.0106421 18.3667611 5.13704004 11.5932038 10.0106421 14.4545755"></polygon>
                <polygon id="Stroke-5" points="10.1423611 18.3667611 15.0159632 11.5932038 10.1423611 14.4545755"></polygon>
                <polygon id="Stroke-7" points="10.0106421 7.44342078 5.13704004 9.63929304 10.0106421 1.5631286 10.0106421 7.44342078 10.0106421 1.5631286"></polygon>
                <polygon id="Stroke-9" points="10.1423611 7.44342078 15.0159632 9.63929304 10.1423611 1.5631286 10.1423611 7.44342078 10.1423611 1.5631286"></polygon>
                <polygon id="Stroke-11" points="10.1423611 12.6352895 15.0159632 9.76089067 10.1423611 7.55512157"></polygon>
                <polygon id="Stroke-13" points="10.0106421 12.6352895 5.13704004 9.76089067 10.0106421 7.55512157"></polygon>
            </g>
            <g id="Group-15-Copy-5" transform="translate(99.659722, 17.443609)" stroke="#FFFFFF" stroke-linejoin="round" stroke-width="1.6464">
                <path d="M27.3402778,13.518797 C27.3402778,20.9850263 21.2199448,27.037594 13.6701227,27.037594 C6.12030061,27.037594 0,20.9850263 0,13.518797 C0,6.05256769 6.12030061,0 13.6701227,0 C21.2199448,0 27.3402778,6.05256769 27.3402778,13.518797 Z" id="Stroke-1"></path>
                <polygon id="Stroke-3" points="13.4926046 24.7551997 6.92383658 15.6256225 13.4926046 19.482254"></polygon>
                <polygon id="Stroke-5" points="13.6701389 24.7551997 20.2389069 15.6256225 13.6701389 19.482254"></polygon>
                <polygon id="Stroke-7" points="13.4926046 10.0324367 6.92383658 12.9920906 13.4926046 2.10682551 13.4926046 10.0324367 13.4926046 2.10682551"></polygon>
                <polygon id="Stroke-9" points="13.6701389 10.0324367 20.2389069 12.9920906 13.6701389 2.10682551 13.6701389 10.0324367 13.6701389 2.10682551"></polygon>
                <polygon id="Stroke-11" points="13.6701389 17.0301728 20.2389069 13.1559831 13.6701389 10.1829899"></polygon>
                <polygon id="Stroke-13" points="13.4926046 17.0301728 6.92383658 13.1559831 13.4926046 10.1829899"></polygon>
            </g>
            <g id="Group-18" transform="translate(0.000000, 27.909774)" stroke="#FFFFFF">
                <polygon id="Stroke-1" stroke-width="3" points="0.702799479 78.4962406 98.9569227 78.4962406 98.9569227 24.92748 0.702799479 24.92748"></polygon>
                <path d="M49.8298611,65.8918263 C41.964777,65.8918263 35.5671658,59.5313238 35.5671658,51.7118603 C35.5671658,43.8923968 41.964777,37.5318943 49.8298611,37.5318943 C57.6949452,37.5318943 64.0925564,43.8923968 64.0925564,51.7118603 C64.0925564,59.5313238 57.6949452,65.8918263 49.8298611,65.8918263 Z" id="Stroke-3" stroke-width="5.04"></path>
                <path d="M44.2832574,57.2262915 L55.3764648,46.1974291" id="Stroke-4" stroke-width="5.04"></path>
                <path d="M43.4908854,46.9852049 L46.6603733,46.9852049" id="Stroke-5" stroke-width="5.04"></path>
                <path d="M52.999349,56.4385156 L56.1688368,56.4385156" id="Stroke-6" stroke-width="5.04"></path>
                <path d="M92.617947,62.7407228 L92.617947,40.6829978 C87.3676904,40.6829978 83.1094835,36.4494902 83.1094835,31.2296871 L16.5502387,31.2296871 C16.5502387,36.4494902 12.2920318,40.6829978 7.04177517,40.6829978 L7.04177517,62.7407228 C12.2920318,62.7407228 16.5502387,66.9742304 16.5502387,72.1940335 L83.1094835,72.1940335 C83.1094835,66.9742304 87.3676904,62.7407228 92.617947,62.7407228 Z" id="Stroke-7" stroke-width="3"></path>
                <polyline id="Stroke-8" stroke-width="3" points="0.702799479 22.8825713 84.5199056 0.553851467 91.0807454 24.9276375"></polyline>
                <path d="M84.5734699,25.124424 L82.4942859,17.4073713 C77.4215206,18.7591948 72.2077131,15.7672219 70.8495876,10.7223051 L16.7892181,25.124424" id="Stroke-9" stroke-width="3"></path>
            </g>
            <ellipse id="Oval-2-Copy-4" fill="#5B9DFD" fill-rule="nonzero" cx="51.1527778" cy="89.8345865" rx="26.4583333" ry="26.1654135"></ellipse>
            <g id="Group-15-Copy-3" transform="translate(25.576389, 67.157895)" stroke="#FFFFFF" stroke-linejoin="round" stroke-width="2.94">
                <path d="M49.3888889,24.4210526 C49.3888889,37.9084346 38.3328035,48.8421053 24.6944152,48.8421053 C11.0560269,48.8421053 0,37.9084346 0,24.4210526 C0,10.9336707 11.0560269,0 24.6944152,0 C38.3328035,0 49.3888889,10.9336707 49.3888889,24.4210526 Z" id="Stroke-1"></path>
                <polygon id="Stroke-3" points="24.2454545 44.4019139 12.5717172 28.4172249 24.2454545 35.1696794"></polygon>
                <polygon id="Stroke-5" points="25.1434343 44.4019139 36.8171717 28.4172249 25.1434343 35.1696794"></polygon>
                <polygon id="Stroke-7" points="24.2454545 17.777017 12.5717172 23.0889952 24.2454545 3.55215311 24.2454545 17.777017 24.2454545 3.55215311"></polygon>
                <polygon id="Stroke-9" points="25.1434343 17.777017 36.8171717 23.0889952 25.1434343 3.55215311 25.1434343 17.777017 25.1434343 3.55215311"></polygon>
                <polygon id="Stroke-11" points="25.1434343 30.1933014 36.8171717 23.1588752 25.1434343 17.7607656"></polygon>
                <polygon id="Stroke-13" points="24.2454545 30.1933014 12.5717172 23.1588752 24.2454545 17.7607656"></polygon>
            </g>
        </g>
    </g>
</svg>
