<?xml version="1.0" encoding="UTF-8"?>
<svg width="1452px" height="604px" viewBox="0 0 1452 604" version="1.1" xmlns="http://www.w3.org/2000/svg" xmlns:xlink="http://www.w3.org/1999/xlink">
    <!-- Generator: Sketch 51.2 (57519) - http://www.bohemiancoding.com/sketch -->
    <title>Slice</title>
    <desc>Created with Sketch.</desc>
    <defs>
        <linearGradient x1="0%" y1="100%" x2="100%" y2="0%" id="linearGradient-1">
            <stop stop-color="#6320DE" offset="0%"></stop>
            <stop stop-color="#534FFF" offset="33.9724171%"></stop>
            <stop stop-color="#15A1F1" offset="81.4080564%"></stop>
            <stop stop-color="#00BDD3" offset="100%"></stop>
        </linearGradient>
        <polygon id="path-2" points="0.857462 30.000406 1452 30.000406 1452 634 0.857462 634"></polygon>
        <linearGradient x1="114.727193%" y1="112.572041%" x2="30.3311912%" y2="37.2502561%" id="linearGradient-3">
            <stop stop-color="#00F7FF" stop-opacity="0" offset="0%"></stop>
            <stop stop-color="#00EBFF" offset="100%"></stop>
        </linearGradient>
        <linearGradient x1="122.71615%" y1="143.707678%" x2="-53.7392945%" y2="-24.6622395%" id="linearGradient-4">
            <stop stop-color="#001C96" offset="0%"></stop>
            <stop stop-color="#157EFF" offset="100%"></stop>
        </linearGradient>
        <linearGradient x1="50%" y1="82.7980991%" x2="50%" y2="18.9984159%" id="linearGradient-5">
            <stop stop-color="#02C9F4" offset="0%"></stop>
            <stop stop-color="#00EBFF" stop-opacity="0" offset="100%"></stop>
        </linearGradient>
        <linearGradient x1="-11.2754026%" y1="-21.8056367%" x2="89.7862347%" y2="71.0462909%" id="linearGradient-6">
            <stop stop-color="#000D8A" offset="0%"></stop>
            <stop stop-color="#180078" stop-opacity="0" offset="100%"></stop>
        </linearGradient>
        <linearGradient x1="158.493098%" y1="175.861565%" x2="-5.9899155%" y2="-3.27571358%" id="linearGradient-7">
            <stop stop-color="#093CC3" offset="0%"></stop>
            <stop stop-color="#27A6FF" offset="100%"></stop>
        </linearGradient>
        <linearGradient x1="172.769261%" y1="71.3469196%" x2="-96.422956%" y2="11.4640501%" id="linearGradient-8">
            <stop stop-color="#001C96" offset="0%"></stop>
            <stop stop-color="#157EFF" offset="100%"></stop>
        </linearGradient>
    </defs>
    <g id="Page-1" stroke="none" stroke-width="1" fill="none" fill-rule="evenodd">
        <g id="Group-2" transform="translate(0.000000, -30.000000)">
            <g id="Group">
                <g id="bg">
                    <use fill="#F2F2F2" xlink:href="#path-2"></use>
                    <use fill="url(#linearGradient-1)" xlink:href="#path-2"></use>
                </g>
                <g id="Group-4" transform="translate(823.000000, 362.000000)">
                    <path d="M23.4123986,111.603451 L174.992671,209.764701 L326.572944,111.603451 L174.992671,13.4422 L23.4123986,111.603451 Z M21.5702648,111.603451 L174.992671,12.2492601 L328.415078,111.603451 L174.992671,210.957641 L21.5702648,111.603451 Z" id="Line" fill="url(#linearGradient-3)" fill-rule="nonzero"></path>
                    <g id="Screw" transform="translate(0.000000, 108.817809)">
                        <path d="M1.75829045,7.79359963 C4.10267773,9.30193182 7.90368051,9.30193182 10.2480678,7.79359963 C12.5924551,6.28526743 12.5924551,3.83977776 10.2480678,2.33144557 C7.90368051,0.823113379 4.10267773,0.823113379 1.75829045,2.33144557 C-0.586096818,3.83977776 -0.586096818,6.28526743 1.75829045,7.79359963 Z" id="Oval-2" fill="url(#linearGradient-4)"></path>
                        <path d="M1.75829045,6.5934032 C4.10267773,8.10173539 7.90368051,8.10173539 10.2480678,6.5934032 C12.5924551,5.08507101 12.5924551,2.63958134 10.2480678,1.13124914 C7.90368051,-0.377083048 4.10267773,-0.377083048 1.75829045,1.13124914 C-0.586096818,2.63958134 -0.586096818,5.08507101 1.75829045,6.5934032 Z" id="Oval-2" fill="#00EBFF"></path>
                    </g>
                    <g id="Screw" transform="translate(168.889439, 214.435095)">
                        <path d="M1.75829045,7.79359963 C4.10267773,9.30193182 7.90368051,9.30193182 10.2480678,7.79359963 C12.5924551,6.28526743 12.5924551,3.83977776 10.2480678,2.33144557 C7.90368051,0.823113379 4.10267773,0.823113379 1.75829045,2.33144557 C-0.586096818,3.83977776 -0.586096818,6.28526743 1.75829045,7.79359963 Z" id="Oval-2" fill="url(#linearGradient-4)"></path>
                        <path d="M1.75829045,6.5934032 C4.10267773,8.10173539 7.90368051,8.10173539 10.2480678,6.5934032 C12.5924551,5.08507101 12.5924551,2.63958134 10.2480678,1.13124914 C7.90368051,-0.377083048 4.10267773,-0.377083048 1.75829045,1.13124914 C-0.586096818,2.63958134 -0.586096818,5.08507101 1.75829045,6.5934032 Z" id="Oval-2" fill="#00EBFF"></path>
                    </g>
                    <g id="Screw" transform="translate(332.976335, 107.217548)">
                        <path d="M1.75829045,7.79359963 C4.10267773,9.30193182 7.90368051,9.30193182 10.2480678,7.79359963 C12.5924551,6.28526743 12.5924551,3.83977776 10.2480678,2.33144557 C7.90368051,0.823113379 4.10267773,0.823113379 1.75829045,2.33144557 C-0.586096818,3.83977776 -0.586096818,6.28526743 1.75829045,7.79359963 Z" id="Oval-2" fill="url(#linearGradient-4)"></path>
                        <path d="M1.75829045,6.5934032 C4.10267773,8.10173539 7.90368051,8.10173539 10.2480678,6.5934032 C12.5924551,5.08507101 12.5924551,2.63958134 10.2480678,1.13124914 C7.90368051,-0.377083048 4.10267773,-0.377083048 1.75829045,1.13124914 C-0.586096818,2.63958134 -0.586096818,5.08507101 1.75829045,6.5934032 Z" id="Oval-2" fill="#00EBFF"></path>
                    </g>
                    <g id="Screw" transform="translate(168.889439, 0.000000)">
                        <path d="M1.75829045,7.79359963 C4.10267773,9.30193182 7.90368051,9.30193182 10.2480678,7.79359963 C12.5924551,6.28526743 12.5924551,3.83977776 10.2480678,2.33144557 C7.90368051,0.823113379 4.10267773,0.823113379 1.75829045,2.33144557 C-0.586096818,3.83977776 -0.586096818,6.28526743 1.75829045,7.79359963 Z" id="Oval-2" fill="url(#linearGradient-4)"></path>
                        <path d="M1.75829045,6.5934032 C4.10267773,8.10173539 7.90368051,8.10173539 10.2480678,6.5934032 C12.5924551,5.08507101 12.5924551,2.63958134 10.2480678,1.13124914 C7.90368051,-0.377083048 4.10267773,-0.377083048 1.75829045,1.13124914 C-0.586096818,2.63958134 -0.586096818,5.08507101 1.75829045,6.5934032 Z" id="Oval-2" fill="#00EBFF"></path>
                    </g>
                </g>
                <g id="Group-4-Copy" transform="translate(1179.000000, 362.000000)">
                    <path d="M1.84306543,111.5 L153.5,209.805309 L305.156935,111.5 L153.5,13.1946906 L1.84306543,111.5 Z M0,111.5 L153.5,12 L307,111.5 L153.5,211 L0,111.5 Z" id="Line" fill="url(#linearGradient-3)" fill-rule="nonzero"></path>
                    <g id="Screw" transform="translate(147.000000, 214.000000)">
                        <path d="M1.75829045,7.79359963 C4.10267773,9.30193182 7.90368051,9.30193182 10.2480678,7.79359963 C12.5924551,6.28526743 12.5924551,3.83977776 10.2480678,2.33144557 C7.90368051,0.823113379 4.10267773,0.823113379 1.75829045,2.33144557 C-0.586096818,3.83977776 -0.586096818,6.28526743 1.75829045,7.79359963 Z" id="Oval-2" fill="url(#linearGradient-4)"></path>
                        <path d="M1.75829045,6.5934032 C4.10267773,8.10173539 7.90368051,8.10173539 10.2480678,6.5934032 C12.5924551,5.08507101 12.5924551,2.63958134 10.2480678,1.13124914 C7.90368051,-0.377083048 4.10267773,-0.377083048 1.75829045,1.13124914 C-0.586096818,2.63958134 -0.586096818,5.08507101 1.75829045,6.5934032 Z" id="Oval-2" fill="#00EBFF"></path>
                    </g>
                    <g id="Screw" transform="translate(147.000000, 0.000000)">
                        <path d="M1.75829045,7.79359963 C4.10267773,9.30193182 7.90368051,9.30193182 10.2480678,7.79359963 C12.5924551,6.28526743 12.5924551,3.83977776 10.2480678,2.33144557 C7.90368051,0.823113379 4.10267773,0.823113379 1.75829045,2.33144557 C-0.586096818,3.83977776 -0.586096818,6.28526743 1.75829045,7.79359963 Z" id="Oval-2" fill="url(#linearGradient-4)"></path>
                        <path d="M1.75829045,6.5934032 C4.10267773,8.10173539 7.90368051,8.10173539 10.2480678,6.5934032 C12.5924551,5.08507101 12.5924551,2.63958134 10.2480678,1.13124914 C7.90368051,-0.377083048 4.10267773,-0.377083048 1.75829045,1.13124914 C-0.586096818,2.63958134 -0.586096818,5.08507101 1.75829045,6.5934032 Z" id="Oval-2" fill="#00EBFF"></path>
                    </g>
                </g>
                <g id="Group-4-Copy-2" transform="translate(1157.000000, 147.000000)">
                    <path d="M23.4123986,111.603451 L174.992671,209.764701 L326.572944,111.603451 L174.992671,13.4422 L23.4123986,111.603451 Z M21.5702648,111.603451 L174.992671,12.2492601 L328.415078,111.603451 L174.992671,210.957641 L21.5702648,111.603451 Z" id="Line" fill="url(#linearGradient-3)" fill-rule="nonzero"></path>
                    <g id="Screw" transform="translate(0.000000, 108.817809)">
                        <path d="M1.75829045,7.79359963 C4.10267773,9.30193182 7.90368051,9.30193182 10.2480678,7.79359963 C12.5924551,6.28526743 12.5924551,3.83977776 10.2480678,2.33144557 C7.90368051,0.823113379 4.10267773,0.823113379 1.75829045,2.33144557 C-0.586096818,3.83977776 -0.586096818,6.28526743 1.75829045,7.79359963 Z" id="Oval-2" fill="url(#linearGradient-4)"></path>
                        <path d="M1.75829045,6.5934032 C4.10267773,8.10173539 7.90368051,8.10173539 10.2480678,6.5934032 C12.5924551,5.08507101 12.5924551,2.63958134 10.2480678,1.13124914 C7.90368051,-0.377083048 4.10267773,-0.377083048 1.75829045,1.13124914 C-0.586096818,2.63958134 -0.586096818,5.08507101 1.75829045,6.5934032 Z" id="Oval-2" fill="#00EBFF"></path>
                    </g>
                    <g id="Screw" transform="translate(168.889439, 214.435095)">
                        <path d="M1.75829045,7.79359963 C4.10267773,9.30193182 7.90368051,9.30193182 10.2480678,7.79359963 C12.5924551,6.28526743 12.5924551,3.83977776 10.2480678,2.33144557 C7.90368051,0.823113379 4.10267773,0.823113379 1.75829045,2.33144557 C-0.586096818,3.83977776 -0.586096818,6.28526743 1.75829045,7.79359963 Z" id="Oval-2" fill="url(#linearGradient-4)"></path>
                        <path d="M1.75829045,6.5934032 C4.10267773,8.10173539 7.90368051,8.10173539 10.2480678,6.5934032 C12.5924551,5.08507101 12.5924551,2.63958134 10.2480678,1.13124914 C7.90368051,-0.377083048 4.10267773,-0.377083048 1.75829045,1.13124914 C-0.586096818,2.63958134 -0.586096818,5.08507101 1.75829045,6.5934032 Z" id="Oval-2" fill="#00EBFF"></path>
                    </g>
                    <g id="Screw" transform="translate(168.889439, 0.000000)">
                        <path d="M1.75829045,7.79359963 C4.10267773,9.30193182 7.90368051,9.30193182 10.2480678,7.79359963 C12.5924551,6.28526743 12.5924551,3.83977776 10.2480678,2.33144557 C7.90368051,0.823113379 4.10267773,0.823113379 1.75829045,2.33144557 C-0.586096818,3.83977776 -0.586096818,6.28526743 1.75829045,7.79359963 Z" id="Oval-2" fill="url(#linearGradient-4)"></path>
                        <path d="M1.75829045,6.5934032 C4.10267773,8.10173539 7.90368051,8.10173539 10.2480678,6.5934032 C12.5924551,5.08507101 12.5924551,2.63958134 10.2480678,1.13124914 C7.90368051,-0.377083048 4.10267773,-0.377083048 1.75829045,1.13124914 C-0.586096818,2.63958134 -0.586096818,5.08507101 1.75829045,6.5934032 Z" id="Oval-2" fill="#00EBFF"></path>
                    </g>
                </g>
                <g id="Group-4-Copy-3" transform="translate(820.000000, 145.000000)">
                    <path d="M23.4123986,111.603451 L174.992671,209.764701 L326.572944,111.603451 L174.992671,13.4422 L23.4123986,111.603451 Z M21.5702648,111.603451 L174.992671,12.2492601 L328.415078,111.603451 L174.992671,210.957641 L21.5702648,111.603451 Z" id="Line" fill="url(#linearGradient-3)" fill-rule="nonzero"></path>
                    <g id="Screw" transform="translate(0.000000, 108.817809)">
                        <path d="M1.75829045,7.79359963 C4.10267773,9.30193182 7.90368051,9.30193182 10.2480678,7.79359963 C12.5924551,6.28526743 12.5924551,3.83977776 10.2480678,2.33144557 C7.90368051,0.823113379 4.10267773,0.823113379 1.75829045,2.33144557 C-0.586096818,3.83977776 -0.586096818,6.28526743 1.75829045,7.79359963 Z" id="Oval-2" fill="url(#linearGradient-4)"></path>
                        <path d="M1.75829045,6.5934032 C4.10267773,8.10173539 7.90368051,8.10173539 10.2480678,6.5934032 C12.5924551,5.08507101 12.5924551,2.63958134 10.2480678,1.13124914 C7.90368051,-0.377083048 4.10267773,-0.377083048 1.75829045,1.13124914 C-0.586096818,2.63958134 -0.586096818,5.08507101 1.75829045,6.5934032 Z" id="Oval-2" fill="#00EBFF"></path>
                    </g>
                    <g id="Screw" transform="translate(332.976335, 107.217548)">
                        <path d="M1.75829045,7.79359963 C4.10267773,9.30193182 7.90368051,9.30193182 10.2480678,7.79359963 C12.5924551,6.28526743 12.5924551,3.83977776 10.2480678,2.33144557 C7.90368051,0.823113379 4.10267773,0.823113379 1.75829045,2.33144557 C-0.586096818,3.83977776 -0.586096818,6.28526743 1.75829045,7.79359963 Z" id="Oval-2" fill="url(#linearGradient-4)"></path>
                        <path d="M1.75829045,6.5934032 C4.10267773,8.10173539 7.90368051,8.10173539 10.2480678,6.5934032 C12.5924551,5.08507101 12.5924551,2.63958134 10.2480678,1.13124914 C7.90368051,-0.377083048 4.10267773,-0.377083048 1.75829045,1.13124914 C-0.586096818,2.63958134 -0.586096818,5.08507101 1.75829045,6.5934032 Z" id="Oval-2" fill="#00EBFF"></path>
                    </g>
                    <g id="Screw" transform="translate(168.889439, 0.000000)">
                        <path d="M1.75829045,7.79359963 C4.10267773,9.30193182 7.90368051,9.30193182 10.2480678,7.79359963 C12.5924551,6.28526743 12.5924551,3.83977776 10.2480678,2.33144557 C7.90368051,0.823113379 4.10267773,0.823113379 1.75829045,2.33144557 C-0.586096818,3.83977776 -0.586096818,6.28526743 1.75829045,7.79359963 Z" id="Oval-2" fill="url(#linearGradient-4)"></path>
                        <path d="M1.75829045,6.5934032 C4.10267773,8.10173539 7.90368051,8.10173539 10.2480678,6.5934032 C12.5924551,5.08507101 12.5924551,2.63958134 10.2480678,1.13124914 C7.90368051,-0.377083048 4.10267773,-0.377083048 1.75829045,1.13124914 C-0.586096818,2.63958134 -0.586096818,5.08507101 1.75829045,6.5934032 Z" id="Oval-2" fill="#00EBFF"></path>
                    </g>
                </g>
                <g id="Group-4-Copy-4" transform="translate(1009.000000, 40.000000)">
                    <path d="M1.84306543,111.5 L153.5,209.805309 L305.156935,111.5 L153.5,13.1946906 L1.84306543,111.5 Z M0,111.5 L153.5,12 L307,111.5 L153.5,211 L0,111.5 Z" id="Line" fill="url(#linearGradient-3)" fill-rule="nonzero"></path>
                    <g id="Screw" transform="translate(147.000000, 214.000000)">
                        <path d="M1.75829045,7.79359963 C4.10267773,9.30193182 7.90368051,9.30193182 10.2480678,7.79359963 C12.5924551,6.28526743 12.5924551,3.83977776 10.2480678,2.33144557 C7.90368051,0.823113379 4.10267773,0.823113379 1.75829045,2.33144557 C-0.586096818,3.83977776 -0.586096818,6.28526743 1.75829045,7.79359963 Z" id="Oval-2" fill="url(#linearGradient-4)"></path>
                        <path d="M1.75829045,6.5934032 C4.10267773,8.10173539 7.90368051,8.10173539 10.2480678,6.5934032 C12.5924551,5.08507101 12.5924551,2.63958134 10.2480678,1.13124914 C7.90368051,-0.377083048 4.10267773,-0.377083048 1.75829045,1.13124914 C-0.586096818,2.63958134 -0.586096818,5.08507101 1.75829045,6.5934032 Z" id="Oval-2" fill="#00EBFF"></path>
                    </g>
                    <g id="Screw" transform="translate(147.000000, 0.000000)">
                        <path d="M1.75829045,7.79359963 C4.10267773,9.30193182 7.90368051,9.30193182 10.2480678,7.79359963 C12.5924551,6.28526743 12.5924551,3.83977776 10.2480678,2.33144557 C7.90368051,0.823113379 4.10267773,0.823113379 1.75829045,2.33144557 C-0.586096818,3.83977776 -0.586096818,6.28526743 1.75829045,7.79359963 Z" id="Oval-2" fill="url(#linearGradient-4)"></path>
                        <path d="M1.75829045,6.5934032 C4.10267773,8.10173539 7.90368051,8.10173539 10.2480678,6.5934032 C12.5924551,5.08507101 12.5924551,2.63958134 10.2480678,1.13124914 C7.90368051,-0.377083048 4.10267773,-0.377083048 1.75829045,1.13124914 C-0.586096818,2.63958134 -0.586096818,5.08507101 1.75829045,6.5934032 Z" id="Oval-2" fill="#00EBFF"></path>
                    </g>
                </g>
                <g id="Group-4-Copy-5" transform="translate(1011.000000, 483.000000)" fill="url(#linearGradient-3)" fill-rule="nonzero">
                    <path d="M1.84306543,99.5 L153.5,197.805309 L305.156935,99.5 L153.5,1.19469062 L1.84306543,99.5 Z M0,99.5 L153.5,0 L307,99.5 L153.5,199 L0,99.5 Z" id="Line"></path>
                </g>
                <g id="Group-4-Copy-7" transform="translate(672.000000, 480.000000)" fill="url(#linearGradient-3)" fill-rule="nonzero">
                    <path d="M1.84306543,99.5 L153.5,197.805309 L305.156935,99.5 L153.5,1.19469062 L1.84306543,99.5 Z M0,99.5 L153.5,0 L307,99.5 L153.5,199 L0,99.5 Z" id="Line"></path>
                </g>
                <g id="Group-4-Copy-9" transform="translate(841.000000, 588.000000)" fill="url(#linearGradient-3)" fill-rule="nonzero">
                    <path d="M1.84306543,99.5 L153.5,197.805309 L305.156935,99.5 L153.5,1.19469062 L1.84306543,99.5 Z M0,99.5 L153.5,0 L307,99.5 L153.5,199 L0,99.5 Z" id="Line"></path>
                </g>
                <g id="Group-4-Copy-6" transform="translate(671.000000, 267.000000)" fill="url(#linearGradient-3)" fill-rule="nonzero">
                    <path d="M1.84306543,99.5 L153.5,197.805309 L305.156935,99.5 L153.5,1.19469062 L1.84306543,99.5 Z M0,99.5 L153.5,0 L307,99.5 L153.5,199 L0,99.5 Z" id="Line"></path>
                </g>
                <g id="Group-4-Copy-8" transform="translate(1350.000000, 267.000000)" fill="url(#linearGradient-3)" fill-rule="nonzero">
                    <path d="M1.84306543,99.5 L153.5,197.805309 L305.156935,99.5 L153.5,1.19469062 L1.84306543,99.5 Z M0,99.5 L153.5,0 L307,99.5 L153.5,199 L0,99.5 Z" id="Line"></path>
                </g>
                <path d="M1109,44 C1109,161.862068 1109,224.187053 1109,230.974953 C1109,238.579513 1114.04091,246.109746 1123.04275,251.912074 C1141.79641,264.000153 1172.2021,264.000153 1190.95576,251.912074 C1199.97023,246.101604 1205,238.558213 1205,230.942951 C1205,223.59413 1205,161.279813 1205,44 L1109,44 Z" id="Light" fill="url(#linearGradient-5)" opacity="0.5"></path>
                <path d="M1128,0 C1128,143.934556 1128,217.935076 1128,222.00156 C1128,226.557287 1131.04555,231.068486 1136.48416,234.544536 C1147.8145,241.786242 1166.1846,241.786242 1177.51494,234.544536 C1182.96118,231.063609 1186,226.544527 1186,221.982388 C1186,217.579869 1186,143.585739 1186,0 L1128,0 Z" id="Light" fill="url(#linearGradient-5)" opacity="0.400000006"></path>
                <g id="Ethereum" transform="translate(1040.000000, 152.000000)">
                    <g id="Ethereum-Base" transform="translate(0.000000, 118.000000)">
                        <polygon id="Shadow" fill="url(#linearGradient-6)" points="7.39342861 105.669858 127.906315 26.602202 248.419201 105.669858 127.906315 184.737514"></polygon>
                        <polygon id="Base" fill="#00EBFF" points="0 93.8466572 0 79.1075262 241.025773 79.1075262 241.025773 93.8466572 120.512886 172.914313"></polygon>
                        <polygon id="Base" fill="url(#linearGradient-7)" points="0 79.0676561 120.512886 0 241.025773 79.0676561 120.512886 158.135312"></polygon>
                        <g id="Radar" opacity="0.200000003" fill="#00EBFF" fill-rule="nonzero">
                            <path d="M103.424705,11.6382837 L120.475267,22.8256875 L137.52583,11.6382837 L120.475267,0.45087994 L103.424705,11.6382837 Z M120.540296,0.152207749 L137.850974,11.5102813 C137.937679,11.5671713 137.937679,11.7093961 137.850974,11.7662861 L120.540296,23.1243597 C120.500056,23.1507624 120.450478,23.1507624 120.410238,23.1243597 L103.099561,11.7662861 C103.012856,11.7093961 103.012856,11.5671713 103.099561,11.5102813 L120.410238,0.152207749 C120.450478,0.125805036 120.500056,0.125805036 120.540296,0.152207749 Z" id="Polygon-5-Copy-21"></path>
                            <path d="M120.592324,22.8714183 L137.642886,34.0588221 L154.693449,22.8714183 L137.642886,11.6840145 L120.592324,22.8714183 Z M137.707915,11.3853424 L155.018593,22.7434159 C155.105298,22.8003059 155.105298,22.9425307 155.018593,22.9994207 L137.707915,34.3574943 C137.667675,34.383897 137.618097,34.383897 137.577857,34.3574943 L120.26718,22.9994207 C120.180475,22.9425307 120.180475,22.8003059 120.26718,22.7434159 L137.577857,11.3853424 C137.618097,11.3589396 137.667675,11.3589396 137.707915,11.3853424 Z" id="Polygon-5-Copy-22"></path>
                            <path d="M154.810505,22.9171491 L137.759943,34.1045529 L154.810505,45.2919567 L171.861068,34.1045529 L154.810505,22.9171491 Z M154.875534,22.618477 L172.186212,33.9765505 C172.272917,34.0334405 172.272917,34.1756653 172.186212,34.2325553 L154.875534,45.5906289 C154.835294,45.6170316 154.785716,45.6170316 154.745476,45.5906289 L137.434799,34.2325553 C137.348094,34.1756653 137.348094,34.0334405 137.434799,33.9765505 L154.745476,22.618477 C154.785716,22.5920742 154.835294,22.5920742 154.875534,22.618477 Z" id="Polygon-5-Copy-23"></path>
                            <path d="M171.978124,34.1502837 L154.927562,45.3376875 L171.978124,56.5250913 L189.028687,45.3376875 L171.978124,34.1502837 Z M172.043153,33.8516116 L189.353831,45.2096851 C189.440536,45.2665751 189.440536,45.4087999 189.353831,45.4656899 L172.043153,56.8237635 C172.002913,56.8501662 171.953336,56.8501662 171.913096,56.8237635 L154.602418,45.4656899 C154.515713,45.4087999 154.515713,45.2665751 154.602418,45.2096851 L171.913096,33.8516116 C171.953336,33.8252088 172.002913,33.8252088 172.043153,33.8516116 Z" id="Polygon-5-Copy-24"></path>
                            <path d="M172.095181,56.5708221 L189.145743,67.7582259 L206.196306,56.5708221 L189.145743,45.3834183 L172.095181,56.5708221 Z M189.210772,45.0847462 L206.52145,56.4428197 C206.608155,56.4997097 206.608155,56.6419345 206.52145,56.6988245 L189.210772,68.0568981 C189.170532,68.0833008 189.120955,68.0833008 189.080715,68.0568981 L171.770037,56.6988245 C171.683332,56.6419345 171.683332,56.4997097 171.770037,56.4428197 L189.080715,45.0847462 C189.120955,45.0583434 189.170532,45.0583434 189.210772,45.0847462 Z" id="Polygon-5-Copy-25"></path>
                            <path d="M189.2628,67.8039567 L206.313362,78.9913605 L223.363925,67.8039567 L206.313362,56.6165529 L189.2628,67.8039567 Z M206.378391,56.3178808 L223.689069,67.6759543 C223.775774,67.7328443 223.775774,67.8750691 223.689069,67.9319591 L206.378391,79.2900327 C206.338151,79.3164354 206.288574,79.3164354 206.248334,79.2900327 L188.937656,67.9319591 C188.850951,67.8750691 188.850951,67.7328443 188.937656,67.6759543 L206.248334,56.3178808 C206.288574,56.291478 206.338151,56.291478 206.378391,56.3178808 Z" id="Polygon-5-Copy-26"></path>
                            <path d="M206.430419,79.0370913 L223.480981,90.2244951 L240.531544,79.0370913 L223.480981,67.8496875 L206.430419,79.0370913 Z M223.54601,67.5510154 L240.856688,78.9090889 C240.943393,78.9659789 240.943393,79.1082037 240.856688,79.1650937 L223.54601,90.5231673 C223.50577,90.54957 223.456193,90.54957 223.415953,90.5231673 L206.105275,79.1650937 C206.01857,79.1082037 206.01857,78.9659789 206.105275,78.9090889 L223.415953,67.5510154 C223.456193,67.5246126 223.50577,67.5246126 223.54601,67.5510154 Z" id="Polygon-5-Copy-27"></path>
                            <path d="M86.2570859,22.8714183 L103.307648,34.0588221 L120.35821,22.8714183 L103.307648,11.6840145 L86.2570859,22.8714183 Z M103.372677,11.3853424 L120.683355,22.7434159 C120.77006,22.8003059 120.77006,22.9425307 120.683355,22.9994207 L103.372677,34.3574943 C103.332437,34.383897 103.282859,34.383897 103.242619,34.3574943 L85.9319416,22.9994207 C85.8452365,22.9425307 85.8452365,22.8003059 85.9319416,22.7434159 L103.242619,11.3853424 C103.282859,11.3589396 103.332437,11.3589396 103.372677,11.3853424 Z" id="Polygon-5-Copy-21"></path>
                            <path d="M103.424705,34.1045529 L120.475267,45.2919567 L137.52583,34.1045529 L120.475267,22.9171491 L103.424705,34.1045529 Z M120.540296,22.618477 L137.850974,33.9765505 C137.937679,34.0334405 137.937679,34.1756653 137.850974,34.2325553 L120.540296,45.5906289 C120.500056,45.6170316 120.450478,45.6170316 120.410238,45.5906289 L103.099561,34.2325553 C103.012856,34.1756653 103.012856,34.0334405 103.099561,33.9765505 L120.410238,22.618477 C120.450478,22.5920742 120.500056,22.5920742 120.540296,22.618477 Z" id="Polygon-5-Copy-22"></path>
                            <path d="M120.592324,45.3376875 L137.642886,56.5250913 L154.693449,45.3376875 L137.642886,34.1502837 L120.592324,45.3376875 Z M137.707915,33.8516116 L155.018593,45.2096851 C155.105298,45.2665751 155.105298,45.4087999 155.018593,45.4656899 L137.707915,56.8237635 C137.667675,56.8501662 137.618097,56.8501662 137.577857,56.8237635 L120.26718,45.4656899 C120.180475,45.4087999 120.180475,45.2665751 120.26718,45.2096851 L137.577857,33.8516116 C137.618097,33.8252088 137.667675,33.8252088 137.707915,33.8516116 Z" id="Polygon-5-Copy-23"></path>
                            <path d="M137.759943,56.5708221 L154.810505,67.7582259 L171.861068,56.5708221 L154.810505,45.3834183 L137.759943,56.5708221 Z M154.875534,45.0847462 L172.186212,56.4428197 C172.272917,56.4997097 172.272917,56.6419345 172.186212,56.6988245 L154.875534,68.0568981 C154.835294,68.0833008 154.785716,68.0833008 154.745476,68.0568981 L137.434799,56.6988245 C137.348094,56.6419345 137.348094,56.4997097 137.434799,56.4428197 L154.745476,45.0847462 C154.785716,45.0583434 154.835294,45.0583434 154.875534,45.0847462 Z" id="Polygon-5-Copy-24"></path>
                            <path d="M154.927562,67.8039567 L171.978124,78.9913605 L189.028687,67.8039567 L171.978124,56.6165529 L154.927562,67.8039567 Z M172.043153,56.3178808 L189.353831,67.6759543 C189.440536,67.7328443 189.440536,67.8750691 189.353831,67.9319591 L172.043153,79.2900327 C172.002913,79.3164354 171.953336,79.3164354 171.913096,79.2900327 L154.602418,67.9319591 C154.515713,67.8750691 154.515713,67.7328443 154.602418,67.6759543 L171.913096,56.3178808 C171.953336,56.291478 172.002913,56.291478 172.043153,56.3178808 Z" id="Polygon-5-Copy-25"></path>
                            <path d="M172.095181,79.0370913 L189.145743,90.2244951 L206.196306,79.0370913 L189.145743,67.8496875 L172.095181,79.0370913 Z M189.210772,67.5510154 L206.52145,78.9090889 C206.608155,78.9659789 206.608155,79.1082037 206.52145,79.1650937 L189.210772,90.5231673 C189.170532,90.54957 189.120955,90.54957 189.080715,90.5231673 L171.770037,79.1650937 C171.683332,79.1082037 171.683332,78.9659789 171.770037,78.9090889 L189.080715,67.5510154 C189.120955,67.5246126 189.170532,67.5246126 189.210772,67.5510154 Z" id="Polygon-5-Copy-26"></path>
                            <path d="M189.2628,90.2702259 L206.313362,101.45763 L223.363925,90.2702259 L206.313362,79.0828221 L189.2628,90.2702259 Z M206.378391,78.78415 L223.689069,90.1422235 C223.775774,90.1991135 223.775774,90.3413383 223.689069,90.3982283 L206.378391,101.756302 C206.338151,101.782705 206.288574,101.782705 206.248334,101.756302 L188.937656,90.3982283 C188.850951,90.3413383 188.850951,90.1991135 188.937656,90.1422235 L206.248334,78.78415 C206.288574,78.7577472 206.338151,78.7577472 206.378391,78.78415 Z" id="Polygon-5-Copy-27"></path>
                            <path d="M69.0894669,34.1045529 L86.1400292,45.2919567 L103.190591,34.1045529 L86.1400292,22.9171491 L69.0894669,34.1045529 Z M86.205058,22.618477 L103.515736,33.9765505 C103.602441,34.0334405 103.602441,34.1756653 103.515736,34.2325553 L86.205058,45.5906289 C86.164818,45.6170316 86.1152403,45.6170316 86.0750003,45.5906289 L68.7643226,34.2325553 C68.6776174,34.1756653 68.6776174,34.0334405 68.7643226,33.9765505 L86.0750003,22.618477 C86.1152403,22.5920742 86.164818,22.5920742 86.205058,22.618477 Z" id="Polygon-5-Copy-21"></path>
                            <path d="M103.307648,34.1502837 L86.2570859,45.3376875 L103.307648,56.5250913 L120.35821,45.3376875 L103.307648,34.1502837 Z M103.372677,33.8516116 L120.683355,45.2096851 C120.77006,45.2665751 120.77006,45.4087999 120.683355,45.4656899 L103.372677,56.8237635 C103.332437,56.8501662 103.282859,56.8501662 103.242619,56.8237635 L85.9319416,45.4656899 C85.8452365,45.4087999 85.8452365,45.2665751 85.9319416,45.2096851 L103.242619,33.8516116 C103.282859,33.8252088 103.332437,33.8252088 103.372677,33.8516116 Z" id="Polygon-5-Copy-22"></path>
                            <path d="M103.424705,56.5708221 L120.475267,67.7582259 L137.52583,56.5708221 L120.475267,45.3834183 L103.424705,56.5708221 Z M120.540296,45.0847462 L137.850974,56.4428197 C137.937679,56.4997097 137.937679,56.6419345 137.850974,56.6988245 L120.540296,68.0568981 C120.500056,68.0833008 120.450478,68.0833008 120.410238,68.0568981 L103.099561,56.6988245 C103.012856,56.6419345 103.012856,56.4997097 103.099561,56.4428197 L120.410238,45.0847462 C120.450478,45.0583434 120.500056,45.0583434 120.540296,45.0847462 Z" id="Polygon-5-Copy-23"></path>
                            <path d="M120.592324,67.8039567 L137.642886,78.9913605 L154.693449,67.8039567 L137.642886,56.6165529 L120.592324,67.8039567 Z M137.707915,56.3178808 L155.018593,67.6759543 C155.105298,67.7328443 155.105298,67.8750691 155.018593,67.9319591 L137.707915,79.2900327 C137.667675,79.3164354 137.618097,79.3164354 137.577857,79.2900327 L120.26718,67.9319591 C120.180475,67.8750691 120.180475,67.7328443 120.26718,67.6759543 L137.577857,56.3178808 C137.618097,56.291478 137.667675,56.291478 137.707915,56.3178808 Z" id="Polygon-5-Copy-24"></path>
                            <path d="M137.759943,79.0370913 L154.810505,90.2244951 L171.861068,79.0370913 L154.810505,67.8496875 L137.759943,79.0370913 Z M154.875534,67.5510154 L172.186212,78.9090889 C172.272917,78.9659789 172.272917,79.1082037 172.186212,79.1650937 L154.875534,90.5231673 C154.835294,90.54957 154.785716,90.54957 154.745476,90.5231673 L137.434799,79.1650937 C137.348094,79.1082037 137.348094,78.9659789 137.434799,78.9090889 L154.745476,67.5510154 C154.785716,67.5246126 154.835294,67.5246126 154.875534,67.5510154 Z" id="Polygon-5-Copy-25"></path>
                            <path d="M154.927562,90.2702259 L171.978124,101.45763 L189.028687,90.2702259 L171.978124,79.0828221 L154.927562,90.2702259 Z M172.043153,78.78415 L189.353831,90.1422235 C189.440536,90.1991135 189.440536,90.3413383 189.353831,90.3982283 L172.043153,101.756302 C172.002913,101.782705 171.953336,101.782705 171.913096,101.756302 L154.602418,90.3982283 C154.515713,90.3413383 154.515713,90.1991135 154.602418,90.1422235 L171.913096,78.78415 C171.953336,78.7577472 172.002913,78.7577472 172.043153,78.78415 Z" id="Polygon-5-Copy-26"></path>
                            <path d="M172.095181,101.503361 L189.145743,112.690764 L206.196306,101.503361 L189.145743,90.3159568 L172.095181,101.503361 Z M189.210772,90.0172846 L206.52145,101.375358 C206.608155,101.432248 206.608155,101.574473 206.52145,101.631363 L189.210772,112.989436 C189.170532,113.015839 189.120955,113.015839 189.080715,112.989436 L171.770037,101.631363 C171.683332,101.574473 171.683332,101.432248 171.770037,101.375358 L189.080715,90.0172846 C189.120955,89.9908818 189.170532,89.9908818 189.210772,90.0172846 Z" id="Polygon-5-Copy-27"></path>
                            <path d="M68.9724101,34.1502837 L51.9218478,45.3376875 L68.9724101,56.5250913 L86.0229724,45.3376875 L68.9724101,34.1502837 Z M69.037439,33.8516116 L86.3481167,45.2096851 C86.4348218,45.2665751 86.4348218,45.4087999 86.3481167,45.4656899 L69.037439,56.8237635 C68.997199,56.8501662 68.9476213,56.8501662 68.9073813,56.8237635 L51.5967035,45.4656899 C51.5099984,45.4087999 51.5099984,45.2665751 51.5967035,45.2096851 L68.9073813,33.8516116 C68.9476213,33.8252088 68.997199,33.8252088 69.037439,33.8516116 Z" id="Polygon-5-Copy-21"></path>
                            <path d="M69.0894669,56.5708221 L86.1400292,67.7582259 L103.190591,56.5708221 L86.1400292,45.3834183 L69.0894669,56.5708221 Z M86.205058,45.0847462 L103.515736,56.4428197 C103.602441,56.4997097 103.602441,56.6419345 103.515736,56.6988245 L86.205058,68.0568981 C86.164818,68.0833008 86.1152403,68.0833008 86.0750003,68.0568981 L68.7643226,56.6988245 C68.6776174,56.6419345 68.6776174,56.4997097 68.7643226,56.4428197 L86.0750003,45.0847462 C86.1152403,45.0583434 86.164818,45.0583434 86.205058,45.0847462 Z" id="Polygon-5-Copy-22"></path>
                            <path d="M86.2570859,67.8039567 L103.307648,78.9913605 L120.35821,67.8039567 L103.307648,56.6165529 L86.2570859,67.8039567 Z M103.372677,56.3178808 L120.683355,67.6759543 C120.77006,67.7328443 120.77006,67.8750691 120.683355,67.9319591 L103.372677,79.2900327 C103.332437,79.3164354 103.282859,79.3164354 103.242619,79.2900327 L85.9319416,67.9319591 C85.8452365,67.8750691 85.8452365,67.7328443 85.9319416,67.6759543 L103.242619,56.3178808 C103.282859,56.291478 103.332437,56.291478 103.372677,56.3178808 Z" id="Polygon-5-Copy-23"></path>
                            <path d="M103.424705,79.0370913 L120.475267,90.2244951 L137.52583,79.0370913 L120.475267,67.8496875 L103.424705,79.0370913 Z M120.540296,67.5510154 L137.850974,78.9090889 C137.937679,78.9659789 137.937679,79.1082037 137.850974,79.1650937 L120.540296,90.5231673 C120.500056,90.54957 120.450478,90.54957 120.410238,90.5231673 L103.099561,79.1650937 C103.012856,79.1082037 103.012856,78.9659789 103.099561,78.9090889 L120.410238,67.5510154 C120.450478,67.5246126 120.500056,67.5246126 120.540296,67.5510154 Z" id="Polygon-5-Copy-24"></path>
                            <path d="M120.592324,90.2702259 L137.642886,101.45763 L154.693449,90.2702259 L137.642886,79.0828221 L120.592324,90.2702259 Z M137.707915,78.78415 L155.018593,90.1422235 C155.105298,90.1991135 155.105298,90.3413383 155.018593,90.3982283 L137.707915,101.756302 C137.667675,101.782705 137.618097,101.782705 137.577857,101.756302 L120.26718,90.3982283 C120.180475,90.3413383 120.180475,90.1991135 120.26718,90.1422235 L137.577857,78.78415 C137.618097,78.7577472 137.667675,78.7577472 137.707915,78.78415 Z" id="Polygon-5-Copy-25"></path>
                            <path d="M137.759943,101.503361 L154.810505,112.690764 L171.861068,101.503361 L154.810505,90.3159568 L137.759943,101.503361 Z M154.875534,90.0172846 L172.186212,101.375358 C172.272917,101.432248 172.272917,101.574473 172.186212,101.631363 L154.875534,112.989436 C154.835294,113.015839 154.785716,113.015839 154.745476,112.989436 L137.434799,101.631363 C137.348094,101.574473 137.348094,101.432248 137.434799,101.375358 L154.745476,90.0172846 C154.785716,89.9908818 154.835294,89.9908818 154.875534,90.0172846 Z" id="Polygon-5-Copy-26"></path>
                            <path d="M154.927562,112.736495 L171.978124,123.923899 L189.028687,112.736495 L171.978124,101.549091 L154.927562,112.736495 Z M172.043153,101.250419 L189.353831,112.608493 C189.440536,112.665383 189.440536,112.807608 189.353831,112.864497 L172.043153,124.222571 C172.002913,124.248974 171.953336,124.248974 171.913096,124.222571 L154.602418,112.864497 C154.515713,112.807608 154.515713,112.665383 154.602418,112.608493 L171.913096,101.250419 C171.953336,101.224016 172.002913,101.224016 172.043153,101.250419 Z" id="Polygon-5-Copy-27"></path>
                            <path d="M34.7542288,56.5708221 L51.8047911,67.7582259 L68.8553534,56.5708221 L51.8047911,45.3834183 L34.7542288,56.5708221 Z M51.8698199,45.0847462 L69.1804977,56.4428197 C69.2672028,56.4997097 69.2672028,56.6419345 69.1804977,56.6988245 L51.8698199,68.0568981 C51.8295799,68.0833008 51.7800022,68.0833008 51.7397622,68.0568981 L34.4290845,56.6988245 C34.3423793,56.6419345 34.3423793,56.4997097 34.4290845,56.4428197 L51.7397622,45.0847462 C51.7800022,45.0583434 51.8295799,45.0583434 51.8698199,45.0847462 Z" id="Polygon-5-Copy-21"></path>
                            <path d="M51.9218478,67.8039567 L68.9724101,78.9913605 L86.0229724,67.8039567 L68.9724101,56.6165529 L51.9218478,67.8039567 Z M69.037439,56.3178808 L86.3481167,67.6759543 C86.4348218,67.7328443 86.4348218,67.8750691 86.3481167,67.9319591 L69.037439,79.2900327 C68.997199,79.3164354 68.9476213,79.3164354 68.9073813,79.2900327 L51.5967035,67.9319591 C51.5099984,67.8750691 51.5099984,67.7328443 51.5967035,67.6759543 L68.9073813,56.3178808 C68.9476213,56.291478 68.997199,56.291478 69.037439,56.3178808 Z" id="Polygon-5-Copy-22"></path>
                            <path d="M69.0894669,79.0370913 L86.1400292,90.2244951 L103.190591,79.0370913 L86.1400292,67.8496875 L69.0894669,79.0370913 Z M86.205058,67.5510154 L103.515736,78.9090889 C103.602441,78.9659789 103.602441,79.1082037 103.515736,79.1650937 L86.205058,90.5231673 C86.164818,90.54957 86.1152403,90.54957 86.0750003,90.5231673 L68.7643226,79.1650937 C68.6776174,79.1082037 68.6776174,78.9659789 68.7643226,78.9090889 L86.0750003,67.5510154 C86.1152403,67.5246126 86.164818,67.5246126 86.205058,67.5510154 Z" id="Polygon-5-Copy-23"></path>
                            <path d="M86.2570859,90.2702259 L103.307648,101.45763 L120.35821,90.2702259 L103.307648,79.0828221 L86.2570859,90.2702259 Z M103.372677,78.78415 L120.683355,90.1422235 C120.77006,90.1991135 120.77006,90.3413383 120.683355,90.3982283 L103.372677,101.756302 C103.332437,101.782705 103.282859,101.782705 103.242619,101.756302 L85.9319416,90.3982283 C85.8452365,90.3413383 85.8452365,90.1991135 85.9319416,90.1422235 L103.242619,78.78415 C103.282859,78.7577472 103.332437,78.7577472 103.372677,78.78415 Z" id="Polygon-5-Copy-24"></path>
                            <path d="M103.424705,101.503361 L120.475267,112.690764 L137.52583,101.503361 L120.475267,90.3159568 L103.424705,101.503361 Z M120.540296,90.0172846 L137.850974,101.375358 C137.937679,101.432248 137.937679,101.574473 137.850974,101.631363 L120.540296,112.989436 C120.500056,113.015839 120.450478,113.015839 120.410238,112.989436 L103.099561,101.631363 C103.012856,101.574473 103.012856,101.432248 103.099561,101.375358 L120.410238,90.0172846 C120.450478,89.9908818 120.500056,89.9908818 120.540296,90.0172846 Z" id="Polygon-5-Copy-25"></path>
                            <path d="M120.592324,112.736495 L137.642886,123.923899 L154.693449,112.736495 L137.642886,101.549091 L120.592324,112.736495 Z M137.707915,101.250419 L155.018593,112.608493 C155.105298,112.665383 155.105298,112.807608 155.018593,112.864497 L137.707915,124.222571 C137.667675,124.248974 137.618097,124.248974 137.577857,124.222571 L120.26718,112.864497 C120.180475,112.807608 120.180475,112.665383 120.26718,112.608493 L137.577857,101.250419 C137.618097,101.224016 137.667675,101.224016 137.707915,101.250419 Z" id="Polygon-5-Copy-26"></path>
                            <path d="M137.759943,123.96963 L154.810505,135.157033 L171.861068,123.96963 L154.810505,112.782226 L137.759943,123.96963 Z M154.875534,112.483554 L172.186212,123.841627 C172.272917,123.898517 172.272917,124.040742 172.186212,124.097632 L154.875534,135.455706 C154.835294,135.482108 154.785716,135.482108 154.745476,135.455706 L137.434799,124.097632 C137.348094,124.040742 137.348094,123.898517 137.434799,123.841627 L154.745476,112.483554 C154.785716,112.457151 154.835294,112.457151 154.875534,112.483554 Z" id="Polygon-5-Copy-27"></path>
                            <path d="M17.5866098,67.8039567 L34.637172,78.9913605 L51.6877343,67.8039567 L34.637172,56.6165529 L17.5866098,67.8039567 Z M34.7022009,56.3178808 L52.0128786,67.6759543 C52.0995838,67.7328443 52.0995838,67.8750691 52.0128786,67.9319591 L34.7022009,79.2900327 C34.6619609,79.3164354 34.6123832,79.3164354 34.5721432,79.2900327 L17.2614655,67.9319591 C17.1747603,67.8750691 17.1747603,67.7328443 17.2614655,67.6759543 L34.5721432,56.3178808 C34.6123832,56.291478 34.6619609,56.291478 34.7022009,56.3178808 Z" id="Polygon-5-Copy-21"></path>
                            <path d="M34.7542288,79.0370913 L51.8047911,90.2244951 L68.8553534,79.0370913 L51.8047911,67.8496875 L34.7542288,79.0370913 Z M51.8698199,67.5510154 L69.1804977,78.9090889 C69.2672028,78.9659789 69.2672028,79.1082037 69.1804977,79.1650937 L51.8698199,90.5231673 C51.8295799,90.54957 51.7800022,90.54957 51.7397622,90.5231673 L34.4290845,79.1650937 C34.3423793,79.1082037 34.3423793,78.9659789 34.4290845,78.9090889 L51.7397622,67.5510154 C51.7800022,67.5246126 51.8295799,67.5246126 51.8698199,67.5510154 Z" id="Polygon-5-Copy-22"></path>
                            <path d="M51.9218478,90.2702259 L68.9724101,101.45763 L86.0229724,90.2702259 L68.9724101,79.0828221 L51.9218478,90.2702259 Z M69.037439,78.78415 L86.3481167,90.1422235 C86.4348218,90.1991135 86.4348218,90.3413383 86.3481167,90.3982283 L69.037439,101.756302 C68.997199,101.782705 68.9476213,101.782705 68.9073813,101.756302 L51.5967035,90.3982283 C51.5099984,90.3413383 51.5099984,90.1991135 51.5967035,90.1422235 L68.9073813,78.78415 C68.9476213,78.7577472 68.997199,78.7577472 69.037439,78.78415 Z" id="Polygon-5-Copy-23"></path>
                            <path d="M69.0894669,101.503361 L86.1400292,112.690764 L103.190591,101.503361 L86.1400292,90.3159568 L69.0894669,101.503361 Z M86.205058,90.0172846 L103.515736,101.375358 C103.602441,101.432248 103.602441,101.574473 103.515736,101.631363 L86.205058,112.989436 C86.164818,113.015839 86.1152403,113.015839 86.0750003,112.989436 L68.7643226,101.631363 C68.6776174,101.574473 68.6776174,101.432248 68.7643226,101.375358 L86.0750003,90.0172846 C86.1152403,89.9908818 86.164818,89.9908818 86.205058,90.0172846 Z" id="Polygon-5-Copy-24"></path>
                            <path d="M86.2570859,112.736495 L103.307648,123.923899 L120.35821,112.736495 L103.307648,101.549091 L86.2570859,112.736495 Z M103.372677,101.250419 L120.683355,112.608493 C120.77006,112.665383 120.77006,112.807608 120.683355,112.864497 L103.372677,124.222571 C103.332437,124.248974 103.282859,124.248974 103.242619,124.222571 L85.9319416,112.864497 C85.8452365,112.807608 85.8452365,112.665383 85.9319416,112.608493 L103.242619,101.250419 C103.282859,101.224016 103.332437,101.224016 103.372677,101.250419 Z" id="Polygon-5-Copy-25"></path>
                            <path d="M103.424705,123.96963 L120.475267,135.157033 L137.52583,123.96963 L120.475267,112.782226 L103.424705,123.96963 Z M120.540296,112.483554 L137.850974,123.841627 C137.937679,123.898517 137.937679,124.040742 137.850974,124.097632 L120.540296,135.455706 C120.500056,135.482108 120.450478,135.482108 120.410238,135.455706 L103.099561,124.097632 C103.012856,124.040742 103.012856,123.898517 103.099561,123.841627 L120.410238,112.483554 C120.450478,112.457151 120.500056,112.457151 120.540296,112.483554 Z" id="Polygon-5-Copy-26"></path>
                            <path d="M120.592324,135.202764 L137.642886,146.390168 L154.693449,135.202764 L137.642886,124.015361 L120.592324,135.202764 Z M137.707915,123.716688 L155.018593,135.074762 C155.105298,135.131652 155.105298,135.273877 155.018593,135.330767 L137.707915,146.68884 C137.667675,146.715243 137.618097,146.715243 137.577857,146.68884 L120.26718,135.330767 C120.180475,135.273877 120.180475,135.131652 120.26718,135.074762 L137.577857,123.716688 C137.618097,123.690286 137.667675,123.690286 137.707915,123.716688 Z" id="Polygon-5-Copy-27"></path>
                            <path d="M17.469553,67.8496875 L0.418990708,79.0370913 L17.469553,90.2244951 L34.5201153,79.0370913 L17.469553,67.8496875 Z M17.5345818,67.5510154 L34.8452596,78.9090889 C34.9319647,78.9659789 34.9319647,79.1082037 34.8452596,79.1650937 L17.5345818,90.5231673 C17.4943419,90.54957 17.4447641,90.54957 17.4045241,90.5231673 L0.0938464084,79.1650937 C0.00714126171,79.1082037 0.00714126171,78.9659789 0.0938464084,78.9090889 L17.4045241,67.5510154 C17.4447641,67.5246126 17.4943419,67.5246126 17.5345818,67.5510154 Z" id="Polygon-5-Copy-21"></path>
                            <path d="M17.5866098,90.2702259 L34.637172,101.45763 L51.6877343,90.2702259 L34.637172,79.0828221 L17.5866098,90.2702259 Z M34.7022009,78.78415 L52.0128786,90.1422235 C52.0995838,90.1991135 52.0995838,90.3413383 52.0128786,90.3982283 L34.7022009,101.756302 C34.6619609,101.782705 34.6123832,101.782705 34.5721432,101.756302 L17.2614655,90.3982283 C17.1747603,90.3413383 17.1747603,90.1991135 17.2614655,90.1422235 L34.5721432,78.78415 C34.6123832,78.7577472 34.6619609,78.7577472 34.7022009,78.78415 Z" id="Polygon-5-Copy-22"></path>
                            <path d="M34.7542288,101.503361 L51.8047911,112.690764 L68.8553534,101.503361 L51.8047911,90.3159568 L34.7542288,101.503361 Z M51.8698199,90.0172846 L69.1804977,101.375358 C69.2672028,101.432248 69.2672028,101.574473 69.1804977,101.631363 L51.8698199,112.989436 C51.8295799,113.015839 51.7800022,113.015839 51.7397622,112.989436 L34.4290845,101.631363 C34.3423793,101.574473 34.3423793,101.432248 34.4290845,101.375358 L51.7397622,90.0172846 C51.7800022,89.9908818 51.8295799,89.9908818 51.8698199,90.0172846 Z" id="Polygon-5-Copy-23"></path>
                            <path d="M51.9218478,112.736495 L68.9724101,123.923899 L86.0229724,112.736495 L68.9724101,101.549091 L51.9218478,112.736495 Z M69.037439,101.250419 L86.3481167,112.608493 C86.4348218,112.665383 86.4348218,112.807608 86.3481167,112.864497 L69.037439,124.222571 C68.997199,124.248974 68.9476213,124.248974 68.9073813,124.222571 L51.5967035,112.864497 C51.5099984,112.807608 51.5099984,112.665383 51.5967035,112.608493 L68.9073813,101.250419 C68.9476213,101.224016 68.997199,101.224016 69.037439,101.250419 Z" id="Polygon-5-Copy-24"></path>
                            <path d="M69.0894669,123.96963 L86.1400292,135.157033 L103.190591,123.96963 L86.1400292,112.782226 L69.0894669,123.96963 Z M86.205058,112.483554 L103.515736,123.841627 C103.602441,123.898517 103.602441,124.040742 103.515736,124.097632 L86.205058,135.455706 C86.164818,135.482108 86.1152403,135.482108 86.0750003,135.455706 L68.7643226,124.097632 C68.6776174,124.040742 68.6776174,123.898517 68.7643226,123.841627 L86.0750003,112.483554 C86.1152403,112.457151 86.164818,112.457151 86.205058,112.483554 Z" id="Polygon-5-Copy-25"></path>
                            <path d="M86.2570859,135.202764 L103.307648,146.390168 L120.35821,135.202764 L103.307648,124.015361 L86.2570859,135.202764 Z M103.372677,123.716688 L120.683355,135.074762 C120.77006,135.131652 120.77006,135.273877 120.683355,135.330767 L103.372677,146.68884 C103.332437,146.715243 103.282859,146.715243 103.242619,146.68884 L85.9319416,135.330767 C85.8452365,135.273877 85.8452365,135.131652 85.9319416,135.074762 L103.242619,123.716688 C103.282859,123.690286 103.332437,123.690286 103.372677,123.716688 Z" id="Polygon-5-Copy-26"></path>
                            <path d="M103.424705,146.435899 L120.475267,157.623303 L137.52583,146.435899 L120.475267,135.248495 L103.424705,146.435899 Z M120.540296,134.949823 L137.850974,146.307897 C137.937679,146.364786 137.937679,146.507011 137.850974,146.563901 L120.540296,157.921975 C120.500056,157.948378 120.450478,157.948378 120.410238,157.921975 L103.099561,146.563901 C103.012856,146.507011 103.012856,146.364786 103.099561,146.307897 L120.410238,134.949823 C120.450478,134.92342 120.500056,134.92342 120.540296,134.949823 Z" id="Polygon-5-Copy-27"></path>
                        </g>
                    </g>
                    <g transform="translate(64.000000, 0.000000)" id="Rectangle">
                        <polygon fill="url(#linearGradient-8)" points="0 108.237015 57.3658798 70.5893577 114.73176 108.237015 57.3658798 204.709137"></polygon>
                        <polygon fill="#00EBFF" points="0 108.237015 57.3658798 70.5893577 114.73176 108.237015 57.3658798 145.884673"></polygon>
                        <polygon fill="url(#linearGradient-8)" points="0 96.4721222 57.3658798 0 114.73176 96.4721222 57.3658798 134.11978"></polygon>
                    </g>
                </g>
            </g>
        </g>
    </g>
</svg>