<!--?xml version="1.0" encoding="UTF-8"?-->
<svg width="85px" height="84px" viewBox="0 0 85 84" version="1.1" xmlns="http://www.w3.org/2000/svg" xmlns:xlink="http://www.w3.org/1999/xlink" style="">
    <!-- Generator: Sketch 51.2 (57519) - http://www.bohemiancoding.com/sketch -->
    <title>Group 3</title>
    <desc>Created with Sketch.</desc>
    <defs></defs>
    <g id="White-/-Landing-page" stroke="none" stroke-width="1" fill="none" fill-rule="evenodd">
        <g id="EIP1337-Copy" transform="translate(-775.000000, -1294.000000)" stroke="#5B3AF0">
            <g id="Group-3" transform="translate(777.000000, 1296.000000)">
                <g id="Group-5" transform="translate(29.000000, 19.000000)" stroke-linejoin="round" stroke-width="1.806">
                    <g id="Group-15-Copy-6">
                        <path id="Stroke-3" d="M11.0740741,40L0,24.3478261L11.0740741,30.9598154Z" class="XKFlNBae_0"></path>
                        <path id="Stroke-5" d="M11.9259259,40L23,24.3478261L11.9259259,30.9598154Z" class="XKFlNBae_1"></path>
                        <path id="Stroke-7" d="M11.0740741,13.9289569L0,19.1304348L11.0740741,0L11.0740741,13.9289569L11.0740741,0Z" class="XKFlNBae_2"></path>
                        <path id="Stroke-9" d="M11.9259259,13.9289569L23,19.1304348L11.9259259,0L11.9259259,13.9289569L11.9259259,0Z" class="XKFlNBae_3"></path>
                        <path id="Stroke-11" d="M11.9259259,26.0869565L23,19.1988611L11.9259259,13.9130435Z" class="XKFlNBae_4"></path>
                        <path id="Stroke-13" d="M11.0740741,26.0869565L0,19.1988611L11.0740741,13.9130435Z" class="XKFlNBae_5"></path>
                    </g>
                </g>
                <path d="M69,40 C69,34.5675602 67.9106323,29.4543561 66,25" id="Stroke-1" stroke-width="2.58" class="XKFlNBae_6"></path>
                <path d="M40,69 C45.4337982,69 50.5442855,67.9113074 55,66" id="Stroke-3" stroke-width="2.58" class="XKFlNBae_7"></path>
                <path d="M11,40 C11,45.4324398 12.0893677,50.5456439 14,55" id="Stroke-5" stroke-width="2.58" class="XKFlNBae_8"></path>
                <path d="M40,10 C34.5662018,10 29.4557145,11.0893677 25,13" id="Stroke-7" stroke-width="2.58" class="XKFlNBae_9"></path>
                <path d="M25,71 C29.5477279,72.9210526 34.6335259,74 40,74 C45.3677675,74 50.4535656,72.9210526 55,71" id="Stroke-9" stroke-width="2.58" class="XKFlNBae_10"></path>
                <path d="M9,25 C7.07894737,29.5488252 6,34.6331106 6,40.0006467 C6,45.3668894 7.07894737,50.4524682 9,55" id="Stroke-11" stroke-width="2.58" class="XKFlNBae_11"></path>
                <path d="M55,8 C50.4522721,6.07894737 45.3664741,5 40,5 C34.6322325,5 29.5464344,6.07894737 25,8" id="Stroke-13" stroke-width="2.58" class="XKFlNBae_12"></path>
                <path d="M72,55 C73.9210526,50.4511748 75,45.3668894 75,39.9993533 C75,34.6331106 73.9210526,29.5475318 72,25" id="Stroke-15" stroke-width="2.58" class="XKFlNBae_13"></path>
                <path d="M58,4 C52.5713451,1.44291092 46.4631225,0 40,0" id="Stroke-17" stroke-width="2.58" class="XKFlNBae_14"></path>
                <path d="M76,58 C78.5570891,52.5700307 80,46.4631225 80,40" id="Stroke-19" stroke-width="2.58" class="XKFlNBae_15"></path>
                <path d="M22,76 C27.4286549,78.5570891 33.5368775,80 40,80" id="Stroke-21" stroke-width="2.58" class="XKFlNBae_16"></path>
                <path d="M4,22 C1.44291092,27.4299693 0,33.5368775 0,40" id="Stroke-23" stroke-width="2.58" class="XKFlNBae_17"></path>
                <path d="M26,13 C26,20.1786 20.1799,26 13,26 C5.8201,26 0,20.1786 0,13 C0,5.8214 5.8201,0 13,0 C20.1799,0 26,5.8214 26,13 Z" id="Stroke-25" stroke-width="2.58" class="XKFlNBae_18"></path>
                <path d="M17,11 C17,13.2093333 15.2093333,15 13,15 C10.7906667,15 9,13.2093333 9,11 C9,8.79066667 10.7906667,7 13,7 C15.2093333,7 17,8.79066667 17,11 Z" id="Stroke-27" stroke-width="2.58" class="XKFlNBae_19"></path>
                <path id="Stroke-29" stroke-width="2.58" d="M9,13L6,15.5714286L6,22" class="XKFlNBae_20"></path>
                <path id="Stroke-31" stroke-width="2.58" d="M19,22L19,15.5714286L16,13" class="XKFlNBae_21"></path>
                <path d="M81,13 C81,20.1786 75.1799,26 68,26 C60.8201,26 55,20.1786 55,13 C55,5.8214 60.8201,0 68,0 C75.1799,0 81,5.8214 81,13 Z" id="Stroke-33" stroke-width="2.58" class="XKFlNBae_22"></path>
                <path d="M71,11 C71,13.2093333 69.2093333,15 67,15 C64.7906667,15 63,13.2093333 63,11 C63,8.79066667 64.7906667,7 67,7 C69.2093333,7 71,8.79066667 71,11 Z" id="Stroke-35" stroke-width="2.58" class="XKFlNBae_23"></path>
                <path id="Stroke-37" stroke-width="2.58" d="M64,13L61,15.5714286L61,22" class="XKFlNBae_24"></path>
                <path id="Stroke-39" stroke-width="2.58" d="M73,22L73,15.5714286L70,13" class="XKFlNBae_25"></path>
                <path d="M26,67 C26,74.1786 20.1799,80 13,80 C5.8201,80 0,74.1786 0,67 C0,59.8214 5.8201,54 13,54 C20.1799,54 26,59.8214 26,67 Z" id="Stroke-41" stroke-width="2.58" class="XKFlNBae_26"></path>
                <path d="M17,66 C17,68.2093333 15.2093333,70 13,70 C10.7906667,70 9,68.2093333 9,66 C9,63.7906667 10.7906667,62 13,62 C15.2093333,62 17,63.7906667 17,66 Z" id="Stroke-43" stroke-width="2.58" class="XKFlNBae_27"></path>
                <path id="Stroke-45" stroke-width="2.58" d="M9,68L6,70.5714286L6,77" class="XKFlNBae_28"></path>
                <path id="Stroke-47" stroke-width="2.58" d="M19,77L19,70.5714286L16,68" class="XKFlNBae_29"></path>
                <path d="M81,67 C81,74.1786 75.1799,80 68,80 C60.8201,80 55,74.1786 55,67 C55,59.8214 60.8201,54 68,54 C75.1799,54 81,59.8214 81,67 Z" id="Stroke-49" stroke-width="2.58" class="XKFlNBae_30"></path>
                <path d="M71,66 C71,68.2093333 69.2093333,70 67,70 C64.7906667,70 63,68.2093333 63,66 C63,63.7906667 64.7906667,62 67,62 C69.2093333,62 71,63.7906667 71,66 Z" id="Stroke-51" stroke-width="2.58" class="XKFlNBae_31"></path>
                <path id="Stroke-53" stroke-width="2.58" d="M64,68L61,70.5714286L61,77" class="XKFlNBae_32"></path>
                <path id="Stroke-55" stroke-width="2.58" d="M73,77L73,70.5714286L70,68" class="XKFlNBae_33"></path>
            </g>
        </g>
    </g>
<style data-made-with="vivus-instant">.XKFlNBae_0{stroke-dasharray:42 44;stroke-dashoffset:43;animation:XKFlNBae_draw 3000ms ease-in 0ms forwards;}.XKFlNBae_1{stroke-dasharray:42 44;stroke-dashoffset:43;animation:XKFlNBae_draw 3000ms ease-in 0ms forwards;}.XKFlNBae_2{stroke-dasharray:77 79;stroke-dashoffset:78;animation:XKFlNBae_draw 3000ms ease-in 0ms forwards;}.XKFlNBae_3{stroke-dasharray:77 79;stroke-dashoffset:78;animation:XKFlNBae_draw 3000ms ease-in 0ms forwards;}.XKFlNBae_4{stroke-dasharray:38 40;stroke-dashoffset:39;animation:XKFlNBae_draw 3000ms ease-in 0ms forwards;}.XKFlNBae_5{stroke-dasharray:38 40;stroke-dashoffset:39;animation:XKFlNBae_draw 3000ms ease-in 0ms forwards;}.XKFlNBae_6{stroke-dasharray:16 18;stroke-dashoffset:17;animation:XKFlNBae_draw 3000ms ease-in 0ms forwards;}.XKFlNBae_7{stroke-dasharray:16 18;stroke-dashoffset:17;animation:XKFlNBae_draw 3000ms ease-in 0ms forwards;}.XKFlNBae_8{stroke-dasharray:16 18;stroke-dashoffset:17;animation:XKFlNBae_draw 3000ms ease-in 0ms forwards;}.XKFlNBae_9{stroke-dasharray:16 18;stroke-dashoffset:17;animation:XKFlNBae_draw 3000ms ease-in 0ms forwards;}.XKFlNBae_10{stroke-dasharray:31 33;stroke-dashoffset:32;animation:XKFlNBae_draw 3000ms ease-in 0ms forwards;}.XKFlNBae_11{stroke-dasharray:31 33;stroke-dashoffset:32;animation:XKFlNBae_draw 3000ms ease-in 0ms forwards;}.XKFlNBae_12{stroke-dasharray:31 33;stroke-dashoffset:32;animation:XKFlNBae_draw 3000ms ease-in 0ms forwards;}.XKFlNBae_13{stroke-dasharray:31 33;stroke-dashoffset:32;animation:XKFlNBae_draw 3000ms ease-in 0ms forwards;}.XKFlNBae_14{stroke-dasharray:19 21;stroke-dashoffset:20;animation:XKFlNBae_draw 3000ms ease-in 0ms forwards;}.XKFlNBae_15{stroke-dasharray:19 21;stroke-dashoffset:20;animation:XKFlNBae_draw 3000ms ease-in 0ms forwards;}.XKFlNBae_16{stroke-dasharray:19 21;stroke-dashoffset:20;animation:XKFlNBae_draw 3000ms ease-in 0ms forwards;}.XKFlNBae_17{stroke-dasharray:19 21;stroke-dashoffset:20;animation:XKFlNBae_draw 3000ms ease-in 0ms forwards;}.XKFlNBae_18{stroke-dasharray:82 84;stroke-dashoffset:83;animation:XKFlNBae_draw 3000ms ease-in 0ms forwards;}.XKFlNBae_19{stroke-dasharray:26 28;stroke-dashoffset:27;animation:XKFlNBae_draw 3000ms ease-in 0ms forwards;}.XKFlNBae_20{stroke-dasharray:11 13;stroke-dashoffset:12;animation:XKFlNBae_draw 3000ms ease-in 0ms forwards;}.XKFlNBae_21{stroke-dasharray:11 13;stroke-dashoffset:12;animation:XKFlNBae_draw 3000ms ease-in 0ms forwards;}.XKFlNBae_22{stroke-dasharray:82 84;stroke-dashoffset:83;animation:XKFlNBae_draw 3000ms ease-in 0ms forwards;}.XKFlNBae_23{stroke-dasharray:26 28;stroke-dashoffset:27;animation:XKFlNBae_draw 3000ms ease-in 0ms forwards;}.XKFlNBae_24{stroke-dasharray:11 13;stroke-dashoffset:12;animation:XKFlNBae_draw 3000ms ease-in 0ms forwards;}.XKFlNBae_25{stroke-dasharray:11 13;stroke-dashoffset:12;animation:XKFlNBae_draw 3000ms ease-in 0ms forwards;}.XKFlNBae_26{stroke-dasharray:82 84;stroke-dashoffset:83;animation:XKFlNBae_draw 3000ms ease-in 0ms forwards;}.XKFlNBae_27{stroke-dasharray:26 28;stroke-dashoffset:27;animation:XKFlNBae_draw 3000ms ease-in 0ms forwards;}.XKFlNBae_28{stroke-dasharray:11 13;stroke-dashoffset:12;animation:XKFlNBae_draw 3000ms ease-in 0ms forwards;}.XKFlNBae_29{stroke-dasharray:11 13;stroke-dashoffset:12;animation:XKFlNBae_draw 3000ms ease-in 0ms forwards;}.XKFlNBae_30{stroke-dasharray:82 84;stroke-dashoffset:83;animation:XKFlNBae_draw 3000ms ease-in 0ms forwards;}.XKFlNBae_31{stroke-dasharray:26 28;stroke-dashoffset:27;animation:XKFlNBae_draw 3000ms ease-in 0ms forwards;}.XKFlNBae_32{stroke-dasharray:11 13;stroke-dashoffset:12;animation:XKFlNBae_draw 3000ms ease-in 0ms forwards;}.XKFlNBae_33{stroke-dasharray:11 13;stroke-dashoffset:12;animation:XKFlNBae_draw 3000ms ease-in 0ms forwards;}@keyframes XKFlNBae_draw{100%{stroke-dashoffset:0;}}@keyframes XKFlNBae_fade{0%{stroke-opacity:1;}94.44444444444444%{stroke-opacity:1;}100%{stroke-opacity:0;}}</style></svg>