<?xml version="1.0" encoding="UTF-8"?>
<svg width="16px" height="12px" viewBox="0 0 16 12" version="1.1" xmlns="http://www.w3.org/2000/svg" xmlns:xlink="http://www.w3.org/1999/xlink">
    <!-- Generator: Sketch 51.2 (57519) - http://www.bohemiancoding.com/sketch -->
    <title>Social Media Icons/Twitter</title>
    <desc>Created with Sketch.</desc>
    <defs>
        <path d="M17,4.42015385 C16.4113528,4.66153846 15.7791948,4.82446154 15.1145286,4.89692308 C15.792198,4.52215385 16.3128282,3.92861538 16.5583896,3.22153846 C15.9237309,3.56815385 15.2215554,3.82107692 14.4738685,3.95630769 C13.8747187,3.36784615 13.0215054,3 12.0767692,3 C10.263816,3 8.79494874,4.356 8.79494874,6.02907692 C8.79494874,6.26630769 8.82345586,6.498 8.87946987,6.71953846 C6.15128782,6.59307692 3.73268317,5.38707692 2.11327832,3.55430769 C1.8312078,4.002 1.66916729,4.52215385 1.66916729,5.07738462 C1.66916729,6.12876923 2.2488122,7.05553846 3.12903226,7.59923077 C2.59139785,7.58307692 2.08527132,7.44738462 1.64266067,7.22030769 C1.64216054,7.23276923 1.64216054,7.24615385 1.64216054,7.25815385 C1.64216054,8.72630769 2.77344336,9.95076923 4.27531883,10.2290769 C4.00025006,10.2978462 3.71017754,10.3352308 3.41060265,10.3352308 C3.19854964,10.3352308 2.99349837,10.3163077 2.79344836,10.2812308 C3.21055264,11.484 4.42335584,12.36 5.8592148,12.3849231 C4.73643411,13.1972308 3.32108027,13.6823077 1.7831958,13.6823077 C1.51812953,13.6823077 1.25656414,13.668 1,13.6398462 C2.45236309,14.4983077 4.17779445,15 6.03175794,15 C12.0692673,15 15.3715929,10.3841538 15.3715929,6.38076923 C15.3715929,6.24969231 15.3675919,6.11861538 15.3615904,5.98846154 C16.0032508,5.56153846 16.5593898,5.02846154 17,4.42015385 Z" id="path-1"></path>
    </defs>
    <g id="Symbols" stroke="none" stroke-width="1" fill="none" fill-rule="evenodd">
        <g id="content-blocks/team-member-card" transform="translate(-155.000000, -211.000000)">
            <g id="team-member-card" transform="translate(72.000000, 30.000000)">
                <g id="social-icons-profile" transform="translate(5.000000, 177.000000)">
                    <g id="social-media-icons/Twitter" transform="translate(77.000000, 1.000000)">
                        <mask id="mask-2" fill="white">
                            <use xlink:href="#path-1"></use>
                        </mask>
                        <use id="Twitter" fill="#354052" fill-rule="evenodd" xlink:href="#path-1"></use>
                        <g id="🎨-Colour/Jet-Navy" mask="url(#mask-2)" fill="#91CAFF" fill-rule="evenodd">
                            <rect id="Brand/Colour/22313F" x="0" y="0" width="18" height="18"></rect>
                        </g>
                    </g>
                </g>
            </g>
        </g>
    </g>
</svg>